<svg width="152" height="148" viewBox="0 0 152 148" fill="none" xmlns="http://www.w3.org/2000/svg">
<path d="M117.542 67.7007C120.895 70.3071 124.334 72.7994 127.858 75.168L130.051 76.6425C132.543 78.7447 132.847 82.4737 130.736 84.9517L116.253 101.103L125.052 108.715C127.858 113.366 129.285 115.282 125.052 117.874L121.951 119.144C107.506 125.066 94.1838 133.423 82.5642 143.853C79.6439 145.637 75.915 145.385 73.261 143.216L56.2621 132.224C41.2371 122.512 27.325 111.173 14.7827 98.4166L3.30586 86.7448C0.922975 84.8185 0.55675 81.3512 2.42121 78.973L11.2678 66.0598C22.9064 48.6756 36.6092 32.7659 52.0814 18.6827C54.1598 16.1476 57.9126 15.8051 60.4143 17.9169L74.4643 32.1667C80.1385 37.9217 86.1838 43.2963 92.5619 48.2571L117.542 67.7007Z" fill="#1D6BF3"/>
<path d="M132.026 13.2006L120.458 3.26001C117.647 0.848582 113.471 0.943712 110.779 3.48831L104.948 8.99607C96.2823 17.1864 88.9482 26.6799 83.2217 37.1389L76.0635 50.2043C75.3215 51.5599 75.5831 53.2436 76.7056 54.3042C81.9327 59.2317 95.8781 75.3507 108.401 82.7134C110.532 83.9643 113.276 83.2033 114.513 81.063L122.808 66.6753C127.669 58.2377 133.59 50.4564 140.43 43.5218L148.121 35.7215C151.231 32.5681 150.78 27.3838 147.179 24.8059L143.384 22.0948C139.46 19.3029 135.674 16.335 132.026 13.2006Z" fill="white"/>
<path d="M110.614 84.3781C109.653 84.3781 108.711 84.126 107.865 83.6266C98.0762 77.8715 87.66 67.0701 80.7634 59.9262C78.8276 57.919 77.1534 56.183 75.9786 55.0748C74.509 53.6859 74.1617 51.479 75.132 49.7002L82.2902 36.6348C88.0785 26.0663 95.4555 16.511 104.221 8.23509L110.052 2.72733C113.149 -0.197773 117.915 -0.307161 121.139 2.46574L132.711 12.4063C136.321 15.5074 140.112 18.4801 143.984 21.2482L147.779 23.9593C149.748 25.3671 150.994 27.555 151.204 29.9617C151.413 32.3731 150.557 34.7417 148.859 36.4683L141.168 44.2685C134.4 51.1366 128.526 58.856 123.713 67.208L115.418 81.5957C114.671 82.8894 113.467 83.8121 112.022 84.1926C111.56 84.3163 111.085 84.3781 110.614 84.3781ZM115.746 2.56087C114.219 2.56087 112.692 3.12687 111.503 4.2541L105.672 9.76185C97.0726 17.8903 89.8289 27.2697 84.1451 37.6431L76.987 50.7085C76.4733 51.6455 76.654 52.8108 77.4293 53.5385C78.6421 54.68 80.3306 56.4303 82.2854 58.4612C89.0964 65.5243 99.3937 76.1973 108.935 81.8097C109.71 82.2663 110.614 82.3852 111.494 82.1569C112.388 81.9191 113.139 81.3484 113.601 80.5445L121.896 66.1568C126.799 57.6479 132.783 49.7858 139.679 42.7893L147.37 34.9891C148.635 33.7049 149.273 31.9403 149.116 30.1424C148.959 28.3493 148.031 26.7179 146.566 25.6716L142.771 22.9605C138.847 20.159 135.004 17.1436 131.351 14.0044L119.779 4.06384C118.609 3.06027 117.173 2.56087 115.746 2.56087Z" fill="#1D6BF3"/>
<path d="M140.423 44.5777C140.204 44.5777 139.98 44.5111 139.79 44.3684L130.815 37.6383C129.074 36.3304 127.966 34.4231 127.695 32.2637C127.424 30.1044 128.033 27.9831 129.398 26.2851L136.004 18.1044C136.37 17.6525 137.031 17.5812 137.483 17.9474C137.935 18.3136 138.006 18.9747 137.64 19.4266L131.034 27.6074C130.03 28.8535 129.583 30.4136 129.783 32.0022C129.983 33.5907 130.796 34.9938 132.075 35.9546L141.051 42.6847C141.517 43.0319 141.612 43.693 141.26 44.1591C141.06 44.435 140.741 44.5777 140.423 44.5777Z" fill="#1D6BF3"/>
<path d="M127.299 45.0914C127.099 45.0914 126.894 45.0343 126.714 44.9154C117.482 38.7323 104.473 23.1603 103.922 22.5039C103.551 22.0568 103.608 21.3957 104.06 21.02C104.507 20.649 105.168 20.7108 105.544 21.1579C105.677 21.3148 118.909 37.1532 127.888 43.1699C128.374 43.4933 128.502 44.1497 128.179 44.6301C127.969 44.9297 127.636 45.0914 127.299 45.0914Z" fill="#1D6BF3"/>
<path d="M119.019 54.0141C118.795 54.0141 118.572 53.9427 118.377 53.7953C103.404 42.2994 96.8449 33.2102 96.5738 32.8297C96.2361 32.3588 96.3455 31.6977 96.8212 31.36C97.292 31.0223 97.9531 31.1317 98.2908 31.6026C98.3574 31.6929 104.964 40.8345 119.661 52.1211C120.122 52.4731 120.208 53.1342 119.856 53.5955C119.651 53.8714 119.337 54.0141 119.019 54.0141Z" fill="#1D6BF3"/>
<path d="M16.0065 73.8888C14.5434 74.7666 7.69128 79.9346 3.14298 83.4032C1.96716 84.2999 1.36263 85.8057 2.07868 87.0995C2.75666 88.3245 3.65783 89.3934 4.18997 89.9255L16.8505 102.586L28.2451 113.137L40.4836 123.265L57.7864 135.082C61.7252 138.176 70.0831 143.762 71.291 144.366C72.9791 145.21 76.7772 146.898 79.7314 146.476C82.0947 146.138 83.5295 144.929 83.9516 144.366L89.0158 140.146L101.676 131.283L116.447 123.265C119.401 121.858 125.563 118.792 126.575 117.779C127.842 116.513 128.264 113.137 127.842 111.448C127.504 110.098 126.013 108.354 125.309 107.65L116.447 100.898C109.413 95.1304 94.7552 83.0888 92.3919 81.0631C89.4378 78.531 72.9791 61.2282 69.6029 57.008C66.2268 52.7878 64.1167 52.7878 62.8506 52.7878C61.8378 52.7878 59.0524 53.6319 57.7864 54.0539C54.8322 55.1793 48.5864 57.5145 47.2359 57.8521C45.5478 58.2741 32.4652 63.7603 31.6212 64.1824C30.7772 64.6044 18.1166 72.6227 16.0065 73.8888Z" fill="white"/>
<path fill-rule="evenodd" clip-rule="evenodd" d="M58.1227 54.996C56.642 55.56 54.3486 56.4225 52.253 57.1877C50.1795 57.9449 48.2182 58.6373 47.4787 58.8222C47.1353 58.908 46.0749 59.2988 44.5685 59.8906C43.0987 60.4681 41.2843 61.2043 39.493 61.9419C35.883 63.4284 32.4486 64.8868 32.0686 65.0768C32.068 65.0771 32.0624 65.08 32.0505 65.0864C32.0422 65.0909 32.0323 65.0964 32.0204 65.103C32.0143 65.1064 32.0078 65.1101 32.0007 65.1141C31.9588 65.1378 31.9046 65.1692 31.8376 65.2087C31.7038 65.2875 31.528 65.3931 31.3142 65.5231C30.8871 65.7828 30.3181 66.1337 29.6496 66.5486C28.3132 67.3782 26.5873 68.4585 24.82 69.5663C24.2711 69.9104 23.7178 70.2574 23.1708 70.6005C20.2042 72.4609 17.4214 74.2062 16.5212 74.7463C15.8438 75.1527 13.8158 76.6247 11.3292 78.4765C8.86901 80.3086 6.02222 82.4652 3.74959 84.1984C2.81476 84.9113 2.56089 85.9053 2.95384 86.6152C3.57854 87.744 4.41842 88.7395 4.89729 89.2184L17.5443 101.865L28.9043 112.384L41.0859 122.465L58.3781 134.275L58.4044 134.295C60.3457 135.821 63.3965 137.975 66.1254 139.831C68.8859 141.709 71.2096 143.207 71.7384 143.472C72.5573 143.881 73.8751 144.488 75.333 144.941C76.8101 145.399 78.3302 145.666 79.5902 145.486C81.6963 145.185 82.8921 144.112 83.1518 143.766L83.2219 143.673L88.4081 139.351L101.15 130.432L115.993 122.374L116.017 122.362C117.486 121.663 119.753 120.55 121.775 119.489C122.786 118.958 123.727 118.444 124.473 118.004C125.26 117.54 125.72 117.22 125.869 117.072C126.277 116.663 126.655 115.759 126.857 114.601C127.053 113.472 127.038 112.356 126.872 111.691C126.751 111.208 126.388 110.562 125.904 109.894C125.456 109.278 124.969 108.729 124.648 108.404L115.827 101.683L115.813 101.671C108.787 95.9096 94.1155 83.8574 91.7414 81.8224C90.2153 80.5144 85.3194 75.5087 80.4305 70.357C75.5337 65.1969 70.5423 59.7828 68.8223 57.6327C67.1931 55.5963 65.9336 54.6601 65.0058 54.2182C64.1048 53.7892 63.4447 53.7878 62.8508 53.7878C62.5002 53.7878 61.6817 53.9572 60.6733 54.2283C59.7253 54.4832 58.7426 54.7898 58.1227 54.996ZM60.1541 52.2969C61.108 52.0405 62.1886 51.7878 62.8508 51.7878H62.8552C63.5274 51.7878 64.5538 51.7878 65.8656 52.4125C67.1534 53.0257 68.637 54.1996 70.384 56.3833C72.0401 58.4535 76.9661 63.8009 81.8813 68.9802C86.8043 74.1679 91.6148 79.0798 93.0429 80.3039C95.3939 82.3189 110.021 94.3355 117.068 100.113L125.969 106.896L126.017 106.943C126.402 107.328 126.985 107.98 127.522 108.719C128.043 109.437 128.595 110.338 128.812 111.206C129.068 112.229 129.053 113.645 128.827 114.943C128.606 116.211 128.14 117.628 127.283 118.486C126.924 118.844 126.235 119.287 125.489 119.727C124.703 120.191 123.729 120.722 122.704 121.26C120.664 122.331 118.387 123.449 116.901 124.156L102.204 132.135L89.6239 140.941L84.672 145.067C84.0245 145.857 82.383 147.107 79.873 147.466C78.1788 147.708 76.3228 147.342 74.7402 146.851C73.1385 146.354 71.7132 145.695 70.844 145.26C70.1649 144.921 67.7057 143.325 65.0006 141.485C62.2759 139.631 59.1936 137.457 57.1952 135.889L39.8818 124.065L27.5863 113.889L16.1572 103.307L3.48308 90.6326C2.89769 90.0472 1.93521 88.9049 1.20396 87.5837C0.164802 85.7061 1.12 83.6885 2.53679 82.6081C4.81246 80.8726 7.66591 78.7109 10.1346 76.8724C12.577 75.0536 14.7065 73.5027 15.4922 73.0313C16.3736 72.5025 19.1328 70.7721 22.1032 68.9092C22.651 68.5657 23.206 68.2176 23.7577 67.8718C25.5248 66.764 27.2542 65.6815 28.5949 64.8493C29.9012 64.0385 30.9095 63.4203 31.1742 63.2879C31.6383 63.0559 35.1672 61.5602 38.7315 60.0925C40.5274 59.3531 42.3529 58.6122 43.8372 58.0291C45.2849 57.4604 46.4929 57.0071 46.9936 56.8819C47.6045 56.7292 49.4414 56.0852 51.567 55.3091C53.661 54.5444 55.9565 53.681 57.4306 53.1194L57.4503 53.1119L57.4704 53.1052C58.1177 52.8894 59.1499 52.5668 60.1541 52.2969Z" fill="#1D6BF3"/>
</svg>
