<svg width="200" height="180" viewBox="0 0 200 180" fill="none" xmlns="http://www.w3.org/2000/svg">
<path d="M186.239 68.7813C186.18 71.381 185.477 73.8778 184.453 76.2974C181.964 82.0632 179.417 87.8032 176.958 93.5947C175.962 95.9113 175.23 98.3051 174.322 100.647C172.361 105.744 170.428 110.841 168.32 115.886C165.803 121.883 163.255 127.88 160.474 133.801C157.722 139.669 154.648 145.435 151.778 151.252C151.486 151.844 151.105 152.128 150.402 152.256C149.319 152.436 148.294 152.205 147.269 151.973C141.56 150.686 135.88 149.296 130.112 148.189C124.93 147.186 119.66 146.516 114.449 145.641C107.715 144.509 101.01 143.273 94.276 142.115C89.855 141.343 85.4047 140.57 80.9837 139.798C79.9589 139.618 78.9927 139.695 78.0266 140.056C75.4794 140.956 72.9907 140.725 70.707 139.412C69.8287 138.923 69.0967 138.202 68.4233 137.507C67.8963 136.967 67.34 136.529 66.5495 136.297C61.2502 134.882 56.2436 132.823 51.3249 130.557C48.5142 129.27 45.44 128.421 42.4829 127.391C41.7802 127.16 41.0482 127.031 40.3748 126.774C34.8413 124.611 29.0735 122.964 23.657 120.57C20.8463 119.335 17.977 118.228 15.1371 117.07C14.8443 116.941 14.5515 116.838 14.2587 116.761C12.8826 116.4 12.6777 116.066 13.2633 114.882C13.761 113.852 14.3465 112.848 14.815 111.793C15.0785 111.201 15.2249 110.557 15.2835 109.914C15.5177 107.88 15.4298 105.77 15.8983 103.788C16.9816 99.412 18.3869 95.1134 20.5828 91.0207C21.5197 89.2961 22.2224 87.4686 22.8958 85.641C26.4092 76.1687 30.8594 67.0052 35.5147 57.9447C36.2759 56.4518 36.9786 54.9331 37.5934 53.3887C40.7847 45.4865 44.386 37.7645 48.3678 30.1455C48.6898 29.502 48.9826 28.8585 49.2754 28.215C49.8317 27.0052 50.3001 26.722 51.7055 27.0052C53.3744 27.3398 55.0139 27.7002 56.6242 28.215C72.4637 33.1571 87.2492 39.901 100.571 48.9872C102.913 50.5831 105.138 52.3591 106.778 54.5985C107.275 55.2935 107.89 55.4737 108.798 55.3192C116.469 54.1095 124.198 53.3887 131.986 53.7234C136.759 53.9293 141.531 54.3926 146.274 54.8817C153.008 55.6024 159.537 57.0696 165.861 59.206C167.998 59.9267 170.077 60.7504 172.156 61.5741C172.741 61.8057 173.239 62.2948 173.708 62.7066C175.172 63.9936 176.577 65.3321 178.07 66.5934C178.334 66.825 178.948 66.8251 179.388 66.8251C181.027 66.7736 182.667 66.6449 184.306 66.6191C186.092 66.5934 186.209 66.7221 186.239 68.2922C186.239 68.3952 186.239 68.5754 186.239 68.7813ZM51.6469 28.6268C51.1785 28.9099 50.5344 29.1416 50.2416 29.5534C49.656 30.3256 49.1583 31.1751 48.7777 32.0245C47.4016 35.2163 46.0548 38.408 44.7373 41.6255C43.5954 44.4055 42.6293 47.2111 41.3996 49.9653C36.8615 60.2356 32.2648 70.5059 27.6681 80.7762C25.0916 86.5162 22.5152 92.2562 19.968 97.9963C19.2653 99.5921 19.5873 100.828 20.9634 101.574C21.4611 101.832 22.0174 101.986 22.5737 102.166C26.6434 103.402 30.6545 104.766 34.4607 106.568C36.8029 107.675 39.1452 108.781 41.5167 109.811C51.4127 114.161 60.6061 119.438 69.3017 125.384C70.0922 125.924 70.912 126.439 71.7903 126.902C73.6641 127.906 75.1866 127.494 76.0942 125.744C76.6798 124.637 77.2361 123.53 77.7338 122.398C79.0806 119.335 80.1932 116.22 81.7156 113.234C83.648 109.476 85.2876 105.615 86.6344 101.703C88.8009 95.345 91.4653 89.1417 94.4809 83.067C96.0912 79.8238 97.5551 76.5033 99.0483 73.2086C101.303 68.1635 103.469 63.0927 105.694 58.0477C105.841 57.7388 106.017 57.4557 106.192 57.1725C106.719 56.1687 106.69 55.937 105.782 55.242C103.967 53.8006 102.152 52.3591 100.337 50.9177C95.3593 46.9022 89.7378 43.7105 83.97 40.6989C80.7787 39.0258 77.4117 37.6358 74.0155 36.2973C68.1891 34.0322 62.3042 31.8701 56.39 29.7594C55.0139 29.2188 53.4036 29.0129 51.6469 28.6268ZM139.979 133.44C140.535 132.591 141.238 131.69 141.765 130.738C143.785 127.031 146.04 123.402 147.65 119.566C150.402 113.003 152.774 106.31 155.204 99.6179C158.366 90.9177 162.465 82.5522 167.413 74.5213C168.35 73.0027 169.228 71.4583 170.019 69.8624C170.78 68.2665 171.482 66.6449 172.01 64.9975C172.478 63.5818 172.127 63.2214 170.633 62.6037C166.534 60.9306 162.289 59.5921 157.927 58.4853C153.154 57.2755 148.294 56.5805 143.375 56.04C140.155 55.7053 136.934 55.2935 133.714 55.2163C129.263 55.1391 124.784 55.242 120.334 55.4737C116.791 55.6539 113.248 56.1687 109.706 56.4518C108.534 56.5548 108.125 57.0438 107.832 57.9705C106.368 62.4235 104.758 66.7993 102.591 71.0464C99.1654 77.7388 95.5935 84.3798 92.6071 91.2524C88.7424 100.158 85.3754 109.219 81.9498 118.279C80.8958 121.085 79.6661 123.788 77.9973 126.388C77.6167 126.954 77.0604 127.494 77.0604 128.344C77.646 128.292 78.0851 128.241 78.5536 128.189C80.076 128.061 81.6278 127.855 83.1502 127.803C86.9857 127.726 90.8211 127.726 94.6273 127.7C99.1361 127.675 103.674 127.494 108.183 128.035C110.408 128.292 112.604 128.627 114.829 128.833C123.349 129.631 131.693 131.175 139.979 133.44ZM173.971 65.3836C173.766 65.6153 173.649 65.6667 173.62 65.744C172.244 69.8624 169.872 73.5689 167.735 77.3785C165.129 81.9859 162.465 86.5934 160.415 91.3811C157.195 98.9486 154.355 106.645 151.486 114.315C149.817 118.768 148.265 123.222 145.747 127.366C144.459 129.451 143.229 131.587 141.912 133.672C141.472 134.393 141.443 135.01 141.853 135.757C142.585 137.044 143.112 138.434 143.756 139.772C143.902 140.081 144.078 140.416 144.342 140.956C144.956 140.107 145.542 139.489 145.893 138.769C146.947 136.684 147.914 134.547 148.88 132.436C150.285 129.27 151.456 125.976 153.096 122.913C156.082 117.379 158.805 111.767 161.264 106.053C163.958 99.7981 166.857 93.6462 169.667 87.4428C169.989 86.7479 170.165 86.0014 170.428 85.3064C171.365 82.9126 172.302 80.5445 173.21 78.1507C174.264 75.448 175.289 72.771 176.284 70.0426C176.46 69.5792 176.489 68.9872 176.284 68.5496C175.845 67.3656 175.054 66.336 173.971 65.3836ZM142.497 141.445C141.853 139.875 141.238 138.588 140.799 137.276C140.213 135.474 138.749 134.65 136.846 134.238C130.083 132.797 123.349 131.278 116.41 130.609C110.906 130.068 105.431 129.476 99.8974 129.399C93.3098 129.322 86.7222 129.528 80.1346 129.631C79.2855 129.657 78.4365 129.862 77.2653 130.017C77.8216 130.377 78.0851 130.557 78.3194 130.712C79.5198 131.484 80.7787 132.179 81.9206 133.028C82.6525 133.569 83.3845 133.852 84.3214 133.955C88.3325 134.444 92.3143 134.985 96.2962 135.5C103.118 136.375 109.969 137.25 116.791 138.125C123.788 139.026 130.786 139.927 137.754 140.853C139.247 141.034 140.711 141.214 142.497 141.445ZM18.7676 102.604C18.5626 103.093 18.3869 103.402 18.3284 103.711C18.0942 105.229 17.8892 106.774 17.7135 108.318C17.5964 109.399 17.5964 109.399 18.7676 109.888C20.9341 110.789 23.0714 111.716 25.238 112.617C28.4001 113.929 31.5621 115.294 34.7534 116.555C37.652 117.713 40.6676 118.64 43.5662 119.85C47.3723 121.42 51.0321 123.247 54.8383 124.843C58.8786 126.542 63.0069 128.061 67.0473 129.708C68.6576 130.377 70.0629 130.326 71.439 129.322C71.4683 129.296 71.4975 129.245 71.6439 129.065C71.1169 128.678 70.5606 128.267 70.0044 127.88C68.8332 127.083 67.6328 126.31 66.4324 125.538C65.6712 125.023 64.9685 124.457 64.1487 123.994C57.5904 120.236 51.1199 116.4 44.4445 112.797C38.5596 109.605 32.4405 106.774 25.8529 104.792C23.5692 104.097 21.2562 103.376 18.7676 102.604Z" fill="#1D6BF3"/>
<path d="M51.6447 28.627C53.3721 29.0131 54.9824 29.219 56.4463 29.7338C62.3605 31.8445 68.2454 34.0066 74.0718 36.2718C77.468 37.5845 80.8643 39.0002 84.0263 40.6733C89.7941 43.6849 95.4156 46.9024 100.393 50.8921C102.208 52.3335 104.023 53.775 105.839 55.2164C106.746 55.9372 106.775 56.1688 106.248 57.1469C106.102 57.4301 105.897 57.7132 105.751 58.0221C103.526 63.0672 101.359 68.1379 99.1046 73.183C97.6407 76.4777 96.1768 79.7982 94.5372 83.0414C91.4923 89.1161 88.8572 95.3195 86.6907 101.677C85.3439 105.615 83.7043 109.451 81.7719 113.209C80.2495 116.169 79.1076 119.309 77.7901 122.372C77.2924 123.505 76.7361 124.612 76.1505 125.718C75.2429 127.443 73.7204 127.855 71.8466 126.877C70.9976 126.413 70.1485 125.899 69.358 125.358C60.6331 119.412 51.4397 114.11 41.573 109.785C39.2015 108.73 36.8592 107.649 34.517 106.542C30.7108 104.766 26.6997 103.376 22.63 102.141C22.0737 101.986 21.5175 101.806 21.0197 101.549C19.6437 100.802 19.3216 99.5666 20.0243 97.9707C22.6007 92.2306 25.1772 86.4906 27.7244 80.7506C32.2918 70.4803 36.9178 60.2357 41.4559 49.9397C42.6563 47.1855 43.6518 44.3799 44.7936 41.5999C46.1111 38.3824 47.4579 35.1907 48.834 31.9989C49.2146 31.1237 49.7123 30.2743 50.2979 29.5279C50.5614 29.1418 51.2055 28.9101 51.6447 28.627Z" fill="white"/>
<path d="M139.979 133.44C131.694 131.175 123.349 129.631 114.829 128.833C112.604 128.627 110.408 128.292 108.183 128.035C103.674 127.494 99.1656 127.675 94.6275 127.7C90.792 127.726 86.9566 127.726 83.1504 127.803C81.6279 127.829 80.0762 128.035 78.5537 128.189C78.0853 128.241 77.6168 128.292 77.0605 128.344C77.0605 127.494 77.6461 126.954 77.9974 126.388C79.637 123.814 80.8667 121.111 81.95 118.279C85.3755 109.245 88.7425 100.158 92.6073 91.2524C95.5644 84.4055 99.1656 77.7646 102.591 71.0464C104.758 66.7993 106.368 62.4235 107.832 57.9705C108.154 57.0438 108.535 56.529 109.706 56.4518C113.248 56.1687 116.791 55.6539 120.334 55.4737C124.784 55.242 129.264 55.139 133.714 55.2163C136.934 55.2678 140.184 55.6796 143.376 56.04C148.294 56.5805 153.155 57.2497 157.927 58.4853C162.26 59.5921 166.535 60.9048 170.634 62.6037C172.127 63.2214 172.449 63.5818 172.01 64.9975C171.483 66.6449 170.78 68.2922 170.019 69.8624C169.258 71.4583 168.35 73.0027 167.413 74.5213C162.465 82.5522 158.366 90.892 155.204 99.6179C152.774 106.285 150.402 112.977 147.65 119.566C146.04 123.402 143.786 127.031 141.765 130.738C141.238 131.69 140.536 132.591 139.979 133.44Z" fill="white"/>
<path d="M173.972 65.3835C175.056 66.3359 175.846 67.3913 176.344 68.5496C176.52 68.9872 176.49 69.5792 176.344 70.0425C175.349 72.7452 174.324 75.4479 173.27 78.1506C172.362 80.5444 171.396 82.9125 170.488 85.3064C170.225 86.0013 170.049 86.7478 169.727 87.4428C166.916 93.6461 164.018 99.8238 161.324 106.053C158.865 111.793 156.142 117.404 153.156 122.913C151.487 125.976 150.345 129.27 148.94 132.436C147.973 134.573 147.007 136.684 145.953 138.768C145.602 139.463 145.016 140.107 144.402 140.956C144.138 140.416 143.962 140.107 143.816 139.772C143.201 138.434 142.645 137.07 141.913 135.757C141.474 134.985 141.532 134.367 141.971 133.672C143.26 131.587 144.519 129.476 145.807 127.366C148.354 123.221 149.906 118.768 151.545 114.315C154.415 106.645 157.225 98.9486 160.475 91.381C162.525 86.5934 165.189 81.9859 167.795 77.3784C169.961 73.5689 172.333 69.8623 173.68 65.7439C173.65 65.6667 173.738 65.5895 173.972 65.3835Z" fill="white"/>
<path d="M142.499 141.445C140.684 141.214 139.249 141.034 137.786 140.853C130.788 139.952 123.791 139.026 116.822 138.125C110.001 137.25 103.15 136.375 96.3277 135.499C92.3459 134.985 88.3347 134.444 84.3529 133.955C83.416 133.852 82.6841 133.569 81.9521 133.028C80.8103 132.205 79.5513 131.484 78.3509 130.712C78.1167 130.557 77.8532 130.403 77.2969 130.017C78.468 129.862 79.3171 129.631 80.1661 129.631C86.7537 129.528 93.3413 129.322 99.9289 129.399C105.462 129.451 110.938 130.068 116.442 130.609C123.381 131.278 130.115 132.797 136.878 134.238C138.781 134.65 140.245 135.474 140.831 137.275C141.24 138.588 141.855 139.849 142.499 141.445Z" fill="white"/>
<path d="M18.7662 102.604C21.2548 103.376 23.5678 104.097 25.8515 104.792C32.4391 106.774 38.5582 109.605 44.4431 112.797C51.1185 116.401 57.589 120.236 64.1473 123.994C64.9379 124.457 65.6698 125.024 66.431 125.538C67.6022 126.336 68.8026 127.109 70.003 127.881C70.5593 128.267 71.1155 128.679 71.6426 129.065C71.4962 129.271 71.4669 129.296 71.4376 129.322C70.0615 130.3 68.6562 130.352 67.0459 129.708C63.0055 128.035 58.8773 126.517 54.8369 124.843C51.06 123.248 47.3709 121.446 43.5648 119.85C40.6955 118.64 37.6799 117.713 34.7521 116.555C31.5607 115.294 28.3987 113.93 25.2366 112.617C23.0701 111.716 20.9328 110.789 18.7662 109.888C17.595 109.399 17.5658 109.399 17.7122 108.318C17.8878 106.774 18.122 105.255 18.327 103.711C18.3856 103.402 18.5612 103.093 18.7662 102.604Z" fill="white"/>
</svg>
