<svg width="114" height="174" viewBox="0 0 114 174" fill="none" xmlns="http://www.w3.org/2000/svg">
<path d="M113.517 174H0.0908203V142.364C14.6016 131.658 26.8551 122.152 36.8514 113.843C47.009 105.534 55.1511 97.9449 61.2779 91.0744C67.4047 84.2039 71.8385 77.7328 74.5794 71.6612C77.3204 65.5895 78.6908 59.2782 78.6908 52.7273C78.6908 44.7383 76.2724 38.5069 71.4354 34.033C66.7597 29.3994 60.1493 27.0826 51.6041 27.0826C43.0588 27.0826 34.8361 28.9201 26.9357 32.595C19.1967 36.27 11.8607 41.1432 4.92774 47.2149V17.0165C11.6994 11.9036 19.0354 7.8292 26.9357 4.79338C34.9973 1.59779 44.8324 0 56.441 0C64.9862 0 72.8059 1.19835 79.9001 3.59504C86.9942 5.83195 93.0404 9.18732 98.0385 13.6612C103.198 18.135 107.148 23.6474 109.889 30.1983C112.63 36.5895 114 43.8595 114 52.0083C114 59.9972 112.388 67.5868 109.163 74.7768C106.1 81.9669 101.344 89.2369 94.8945 96.5868C88.6065 103.937 80.545 111.686 70.7099 119.835C60.8748 127.824 49.2662 136.691 35.8841 146.438H113.517V174Z" fill="#1D6BF3"/>
</svg>
