<svg width="114" height="174" viewBox="0 0 114 174" fill="none" xmlns="http://www.w3.org/2000/svg">
<path d="M114 123.171C114 130.894 112.469 137.908 109.405 144.212C106.342 150.516 101.989 155.875 96.3456 160.288C90.8638 164.701 84.1727 168.09 76.2724 170.454C68.3721 172.818 59.585 174 49.9111 174C38.1413 174 28.145 172.66 19.9222 169.981C11.8607 167.144 5.25021 163.913 0.0908203 160.288V131.682C2.67051 133.573 5.49205 135.465 8.55544 137.356C11.7801 139.247 15.2465 140.981 18.9548 142.557C22.6631 143.976 26.7745 145.236 31.289 146.34C35.9647 147.285 41.0434 147.758 46.5253 147.758C57.6502 147.758 65.873 145.473 71.1936 140.902C76.5142 136.174 79.1745 129.791 79.1745 121.753C79.1745 105.519 68.4527 97.4022 47.009 97.4022H26.4521V70.4511H48.2182C55.9573 70.4511 62.1647 68.5598 66.8404 64.7772C71.6773 60.837 74.0957 55.163 74.0957 47.7554C74.0957 40.9783 71.7579 35.6984 67.0822 31.9158C62.4065 28.1332 55.5542 26.2418 46.5253 26.2418C37.3351 26.2418 29.3542 27.8967 22.5825 31.2065C15.8108 34.3587 9.60344 38.0625 3.96036 42.3179V13.7119C9.28098 9.77174 15.6496 6.54076 23.0662 4.01901C30.4828 1.33967 40.1567 0 52.0877 0C60.633 0 68.3721 1.10326 75.305 3.30978C82.2379 5.5163 88.1228 8.58967 92.9597 12.5299C97.7967 16.4701 101.505 21.2772 104.085 26.9511C106.664 32.4674 107.954 38.5353 107.954 45.1549C107.954 50.356 106.987 55.0842 105.052 59.3397C103.279 63.5951 100.86 67.3777 97.7967 70.6875C94.8945 73.8397 91.4281 76.4402 87.3973 78.4891C83.5277 80.3804 79.497 81.7201 75.305 82.5081C80.4644 83.2962 85.3819 84.7935 90.0576 87C94.7333 89.0489 98.8447 91.8071 102.392 95.2745C105.939 98.7418 108.76 102.84 110.856 107.568C112.952 112.139 114 117.34 114 123.171Z" fill="#1D6BF3"/>
</svg>
