<svg width="200" height="180" viewBox="0 0 200 180" fill="none" xmlns="http://www.w3.org/2000/svg">
<g clip-path="url(#clip0_451_33060)">
<path d="M129.95 151.8C109.45 151.8 88.8498 150.8 68.3498 151C58.1498 151.1 47.8498 151.8 37.6498 151.8C33.4498 151.8 30.2498 148.4 30.5498 144.2L31.0498 136C31.4498 127.1 31.9498 118.3 32.3498 109.4C33.4498 88.9999 35.2498 68.7 36.1498 48.2C36.1498 47.8 36.1498 47.4 36.2498 47L37.4498 35.8C37.7498 31.6 41.3498 28.2 45.5498 28.2C65.9498 28.2 86.1498 29.8 106.55 29.1C113.55 28.9 120.65 28.6 127.65 28.4C131.05 28.3 134.45 28.2 137.95 28.2C142.15 28.2 146.25 31.7 146.05 35.9C145.45 44.4 144.45 52.9 143.75 61.4C142.95 71.7 142.25 82.0999 141.55 92.3999C141.15 98.2999 140.75 104.2 140.25 110L138.05 144.1C137.75 148.3 134.15 151.8 129.95 151.8Z" fill="white" stroke="#1D6BF3" stroke-width="2"/>
<path d="M138.451 28.2H45.5506C41.3506 28.2 37.6506 31.6 37.3506 35.8H145.551C145.951 31.6 142.651 28.2 138.451 28.2Z" fill="#1D6BF3"/>
<path d="M64.1506 48.6H49.9506C49.3506 48.6 48.8506 48.1 48.8506 47.4C48.8506 46.8 49.4506 46.2 50.0506 46.2H64.2506C64.8506 46.2 65.3506 46.7 65.3506 47.4C65.3506 48.1 64.7506 48.6 64.1506 48.6Z" fill="#1D6BF3"/>
<path d="M101.05 55.7H56.5502C55.9502 55.7 55.4502 55.2 55.4502 54.5C55.4502 53.9 56.0502 53.3 56.6502 53.3H101.15C101.75 53.3 102.25 53.8 102.25 54.5C102.25 55.1 101.65 55.7 101.05 55.7Z" fill="#1D6BF3"/>
<path d="M79.3502 62.7001H56.0502C55.4502 62.7001 54.9502 62.2 54.9502 61.5C54.9502 60.9 55.5502 60.3 56.1502 60.3H79.4502C80.0502 60.3 80.5502 60.8 80.5502 61.5C80.5502 62.1 80.0502 62.7001 79.3502 62.7001Z" fill="#1D6BF3"/>
<path d="M121.25 69.6999C99.5502 69.6999 77.8502 69.6999 56.0502 69.6999C55.5502 69.6999 54.9502 69.6999 54.6502 69.2999C54.2502 68.7999 54.5502 67.9999 55.0502 67.6999C55.5502 67.3999 56.2502 67.3999 56.8502 67.3999C76.5502 67.3999 96.2502 67.3999 116.05 67.3999C117.85 67.3999 119.55 67.3999 121.35 67.3999C121.95 67.3999 122.45 67.8999 122.45 68.5999C122.45 69.0999 121.85 69.6999 121.25 69.6999Z" fill="#1D6BF3"/>
<path d="M111.65 62.7001H88.35C87.75 62.7001 87.25 62.2 87.25 61.5C87.25 60.9 87.85 60.3 88.45 60.3H111.75C112.35 60.3 112.85 60.8 112.85 61.5C112.85 62.1 112.35 62.7001 111.65 62.7001Z" fill="#1D6BF3"/>
<path d="M59.6506 118.7H45.4506C44.8506 118.7 44.3506 118.2 44.3506 117.5C44.3506 116.9 44.9506 116.3 45.5506 116.3H59.7506C60.3506 116.3 60.8506 116.8 60.8506 117.5C60.8506 118.2 60.2506 118.7 59.6506 118.7Z" fill="#1D6BF3"/>
<path d="M96.1502 132.7H51.5502C50.9502 132.7 50.4502 132.2 50.4502 131.5C50.4502 130.9 51.0502 130.3 51.6502 130.3H96.1502C96.7502 130.3 97.2502 130.8 97.2502 131.5C97.2502 132.2 96.7502 132.7 96.1502 132.7Z" fill="#1D6BF3"/>
<path d="M74.4498 139.7H51.1498C50.5498 139.7 50.0498 139.2 50.0498 138.5C50.0498 137.9 50.6498 137.3 51.2498 137.3H74.5498C75.1498 137.3 75.6498 137.8 75.6498 138.5C75.6498 139.2 75.0498 139.7 74.4498 139.7Z" fill="#1D6BF3"/>
<path d="M117.75 123.3H52.1502C51.5502 123.3 50.9502 123.8 50.9502 124.5C50.9502 125.1 51.4502 125.7 52.0502 125.7H117.65C118.25 125.7 118.85 125.2 118.85 124.5C118.95 123.9 118.45 123.3 117.75 123.3Z" fill="#1D6BF3"/>
<path d="M106.751 139.7H83.4506C82.8506 139.7 82.3506 139.2 82.3506 138.5C82.3506 137.9 82.9506 137.3 83.5506 137.3H106.851C107.451 137.3 107.951 137.8 107.951 138.5C107.951 139.2 107.351 139.7 106.751 139.7Z" fill="#1D6BF3"/>
<path d="M68.8504 83.7001H47.7504C47.1504 83.7001 46.6504 83.2 46.6504 82.5C46.6504 81.9 47.2504 81.3 47.8504 81.3H69.0504C69.6504 81.3 70.1504 81.8 70.1504 82.5C70.0504 83.1 69.5504 83.7001 68.8504 83.7001Z" fill="#1D6BF3"/>
<path d="M98.0506 102.3H53.5506C52.9506 102.3 52.3506 102.8 52.3506 103.5C52.3506 104.1 52.8506 104.7 53.4506 104.7H97.9506C98.5506 104.7 99.1506 104.2 99.1506 103.5C99.1506 102.9 98.6506 102.3 98.0506 102.3Z" fill="#1D6BF3"/>
<path d="M70.25 95.3H53.95C53.35 95.3 52.75 95.8001 52.75 96.5001C52.75 97.1001 53.25 97.7001 53.85 97.7001H70.15C70.75 97.7001 71.35 97.2001 71.35 96.5001C71.35 95.9001 70.95 95.3 70.25 95.3Z" fill="#1D6BF3"/>
<path d="M85.05 88.3H54.45C53.85 88.3 53.25 88.8 53.25 89.5C53.25 90.1 53.75 90.7001 54.35 90.7001H84.95C85.55 90.7001 86.15 90.2 86.15 89.5C86.15 88.9 85.65 88.3 85.05 88.3Z" fill="#1D6BF3"/>
<path d="M124.25 88.3H93.6502C93.0502 88.3 92.4502 88.8 92.4502 89.5C92.4502 90.1 92.9502 90.7001 93.5502 90.7001H124.15C124.75 90.7001 125.35 90.2 125.35 89.5C125.35 88.9 124.85 88.3 124.25 88.3Z" fill="#1D6BF3"/>
<path d="M109.55 95.3H79.2498C78.6498 95.3 78.0498 95.8001 78.0498 96.5001C78.0498 97.1001 78.5498 97.7001 79.1498 97.7001H109.45C110.05 97.7001 110.65 97.2001 110.65 96.5001C110.75 95.9001 110.25 95.3 109.55 95.3Z" fill="#1D6BF3"/>
<path d="M123.35 41.4L139.25 41.3L152.75 41.2L165.75 41.4C168.15 41.4 169.95 43.3 169.95 45.7L170.05 51.2L169.95 57.9C169.95 60.3 168.15 62.2 165.75 62.2H164.55C164.35 62.2 164.25 62.4 164.25 62.5V69.2999C164.25 69.5999 163.85 69.7 163.65 69.5L158.95 62.7C158.75 62.4 158.35 62.2 157.95 62.2C156.05 62.2 153.15 62.4 150.05 62.4C145.95 62.4 141.05 62.4 136.75 62.4C129.35 62.4 123.35 62.2 123.35 62.2C120.95 62.2 118.85 60.3 118.85 57.9L118.65 51.5L118.95 45.7C118.95 43.3 120.95 41.4 123.35 41.4Z" fill="#1D6BF3"/>
<path d="M139.15 54.5H139.05L133.25 51.9C133.15 51.9 133.15 51.8 133.15 51.7C133.15 51.6 133.25 51.5 133.25 51.5L139.05 48.8C139.15 48.7 139.35 48.8 139.35 48.9C139.45 49 139.35 49.2 139.25 49.2L133.95 51.6L139.25 54C139.35 54.1 139.45 54.2 139.35 54.3C139.35 54.5 139.25 54.5 139.15 54.5Z" fill="white"/>
<path d="M147.55 54.5001C147.45 54.5001 147.35 54.4001 147.35 54.4001C147.25 54.3001 147.35 54.1001 147.45 54.1001L152.75 51.7001L147.45 49.3001C147.35 49.2001 147.25 49.1001 147.35 49.0001C147.45 48.9001 147.55 48.8001 147.65 48.9001L153.45 51.5001C153.55 51.5001 153.55 51.6001 153.55 51.7001C153.55 51.8001 153.45 51.9001 153.45 51.9001L147.65 54.5001C147.65 54.5001 147.65 54.5001 147.55 54.5001Z" fill="white"/>
<path d="M141.25 57.6999C141.05 57.5999 140.95 57.4999 140.95 57.3999L145.65 45.7999C145.65 45.6999 145.85 45.5999 145.95 45.6999C146.05 45.6999 146.15 45.8999 146.15 45.9999L141.45 57.5999C141.45 57.5999 141.45 57.6999 141.25 57.6999Z" fill="white"/>
</g>
<defs>
<clipPath id="clip0_451_33060">
<rect width="140.1" height="124.6" fill="white" transform="translate(29.9502 27.7)"/>
</clipPath>
</defs>
</svg>
