<svg width="1085" height="115" viewBox="0 0 1085 115" fill="none" xmlns="http://www.w3.org/2000/svg">
<path d="M2 48.286C70.0543 38.3657 137.33 34.8273 205.318 48.425C233.368 54.0349 249.636 59.3381 276.35 69.207C305.716 80.0555 334.093 93.7727 364.478 101.11C413.376 112.917 469.92 119.138 518.844 104.307C544.109 96.6482 567.105 82.2734 591.958 73.3078C623.939 61.7708 656.66 56.3723 690.116 53.5684C737.157 49.6258 785.497 48.0045 830.035 67.6084C869.465 84.964 903.798 110.369 947.496 112.648C981.082 114.399 1004.27 98.8488 1028.5 74.6979C1048.95 54.3088 1066.25 30.9987 1083 7" stroke="black" stroke-width="3" stroke-linecap="round" stroke-dasharray="6 6"/>
<path d="M85.6191 14.606V38.9532" stroke="#1A1B22" stroke-width="3" stroke-linecap="round"/>
<circle cx="86" cy="10" r="10" fill="#1D6BF3"/>
<path d="M615.619 39.606V63.9532" stroke="#1A1B22" stroke-width="3" stroke-linecap="round"/>
<circle cx="616" cy="35" r="10" fill="#1D6BF3"/>
<path d="M1053 26L1053 48" stroke="#1A1B22" stroke-width="3" stroke-linecap="round"/>
<circle cx="1053" cy="21" r="10" fill="#1D6BF3"/>
</svg>
