<svg width="280" height="186" viewBox="0 0 280 186" fill="none" xmlns="http://www.w3.org/2000/svg">
<g clip-path="url(#clip0_125_11012)">
<path fill-rule="evenodd" clip-rule="evenodd" d="M49.6279 93.004C50.1152 101.044 61.5661 111.398 68.6315 102.384C71.9206 98.1203 68.2661 93.2476 67.2915 88.4967" fill="white"/>
<path d="M49.6279 93.004C50.1152 101.044 61.5661 111.398 68.6315 102.384C71.9206 98.1203 68.2661 93.2476 67.2915 88.4967" stroke="#1A1B22" stroke-miterlimit="62.12" stroke-linecap="round" stroke-linejoin="round"/>
<path fill-rule="evenodd" clip-rule="evenodd" d="M58.1562 90.5676C59.8617 95.684 69.6071 105.429 76.6726 98.973C80.0835 95.8058 73.7489 88.4967 73.7489 88.4967" fill="white"/>
<path d="M58.1562 90.5676C59.8617 95.684 69.6071 105.429 76.6726 98.973C80.0835 95.8058 73.7489 88.4967 73.7489 88.4967" stroke="#1A1B22" stroke-miterlimit="62.12" stroke-linecap="round" stroke-linejoin="round"/>
<path fill-rule="evenodd" clip-rule="evenodd" d="M-30.5291 106.891C-11.6474 95.9276 14.7871 67.9095 14.7871 67.9095C14.7871 67.9095 22.3398 59.8696 25.5071 56.9459C37.567 45.6169 62.5397 36.6024 73.9906 52.8041C88.9742 73.8786 67.1688 87.4004 55.5961 95.8058C50.1143 99.8258 46.4597 105.917 40.8561 110.059C31.7198 116.758 20.878 118.464 10.0362 120.169L-31.8691 158.055" fill="white"/>
<path d="M-30.5291 106.891C-11.6474 95.9276 14.7871 67.9095 14.7871 67.9095C14.7871 67.9095 22.3398 59.8696 25.5071 56.9459C37.567 45.6169 62.5397 36.6024 73.9906 52.8041C88.9742 73.8786 67.1688 87.4004 55.5961 95.8058C50.1143 99.8258 46.4597 105.917 40.8561 110.059C31.7198 116.758 20.878 118.464 10.0362 120.169L-31.8691 158.055" stroke="#1A1B22" stroke-miterlimit="62.12" stroke-linecap="round" stroke-linejoin="round"/>
<path fill-rule="evenodd" clip-rule="evenodd" d="M274.624 184.246L254.524 113.835C253.063 102.384 239.419 85.4516 226.628 94.1006C222.486 96.9025 219.563 102.019 216.395 105.673C211.888 110.912 206.285 116.881 203.848 123.337C196.783 142.219 206.528 165.608 218.345 180.226C222.608 185.464 228.334 192.651 234.546 195.575" fill="white"/>
<path d="M274.624 184.246L254.524 113.835C253.063 102.384 239.419 85.4516 226.628 94.1006C222.486 96.9025 219.563 102.019 216.395 105.673C211.888 110.912 206.285 116.881 203.848 123.337C196.783 142.219 206.528 165.608 218.345 180.226C222.608 185.464 228.334 192.651 234.546 195.575" stroke="#1A1B22" stroke-miterlimit="62.12" stroke-linecap="round" stroke-linejoin="round"/>
<path fill-rule="evenodd" clip-rule="evenodd" d="M180.459 145.63C180.337 149.284 178.266 154.4 182.164 157.689C189.473 163.902 194.833 153.913 196.051 149.162" fill="white"/>
<path d="M180.459 145.63C180.337 149.284 178.266 154.4 182.164 157.689C189.473 163.902 194.833 153.913 196.051 149.162" stroke="#1A1B22" stroke-miterlimit="62.12" stroke-linecap="round" stroke-linejoin="round"/>
<path fill-rule="evenodd" clip-rule="evenodd" d="M162.186 141.732C162.552 141.976 156.826 148.797 159.872 153.67C164.744 161.71 176.682 151.721 179.85 145.63" fill="white"/>
<path d="M162.186 141.732C162.552 141.976 156.826 148.797 159.872 153.67C164.744 161.71 176.682 151.721 179.85 145.63" stroke="#1A1B22" stroke-miterlimit="62.12" stroke-linecap="round" stroke-linejoin="round"/>
<path d="M162.45 17.1201L162.308 17.5996L162.446 17.1188C157.063 15.5809 151.557 18.6587 149.894 23.9048L149.894 23.9048L149.891 23.9143L135.395 73.0046C135.395 73.005 135.395 73.0054 135.395 73.0058C135.013 74.2763 134.886 75.6096 135.021 76.9293C135.156 78.2494 135.55 79.5298 136.182 80.697C136.813 81.8642 137.669 82.8952 138.699 83.7308C139.73 84.5664 140.916 85.1901 142.189 85.5662L142.189 85.5662L190.061 99.6964C190.061 99.6965 190.061 99.6966 190.062 99.6967C191.332 100.078 192.666 100.205 193.985 100.07C195.305 99.9354 196.586 99.541 197.753 98.9097C198.92 98.2785 199.951 97.4229 200.787 96.392C201.622 95.3612 202.246 94.1755 202.622 92.9029L202.622 92.9028L217.119 43.8102L217.12 43.806C218.653 38.4392 215.717 32.793 210.322 31.2504C210.322 31.2501 210.321 31.2499 210.32 31.2497L162.45 17.1201Z" fill="#1D6BF3" stroke="#1A1B22"/>
<path d="M162.45 17.1201L162.308 17.5996L162.446 17.1188C157.063 15.5809 151.557 18.6587 149.894 23.9048L149.894 23.9048L149.891 23.9143L135.395 73.0046C135.395 73.005 135.395 73.0054 135.395 73.0058C135.013 74.2763 134.886 75.6096 135.021 76.9293C135.156 78.2494 135.55 79.5298 136.182 80.697C136.813 81.8642 137.669 82.8952 138.699 83.7308C139.73 84.5664 140.916 85.1901 142.189 85.5662L142.189 85.5662L190.061 99.6964C190.061 99.6965 190.061 99.6966 190.062 99.6967C191.332 100.078 192.666 100.205 193.985 100.07C195.305 99.9354 196.586 99.541 197.753 98.9097C198.92 98.2785 199.951 97.4229 200.787 96.392C201.622 95.3612 202.246 94.1755 202.622 92.9029L202.622 92.9028L217.119 43.8102L217.12 43.806C218.653 38.4392 215.717 32.793 210.322 31.2504C210.322 31.2501 210.321 31.2499 210.32 31.2497L162.45 17.1201Z" fill="#1D6BF3" stroke="#1D6BF3"/>
<path fill-rule="evenodd" clip-rule="evenodd" d="M159.628 13.7011L207.502 27.8319C212.618 29.2937 215.42 34.6537 213.958 39.7701L199.462 88.8627C199.105 90.0721 198.512 91.199 197.718 92.1787C196.924 93.1583 195.944 93.9715 194.835 94.5714C193.725 95.1713 192.508 95.5462 191.254 95.6745C189.999 95.8028 188.732 95.682 187.524 95.319L139.65 81.1881C138.44 80.8308 137.313 80.238 136.334 79.4439C135.354 78.6497 134.541 77.6699 133.941 76.5606C133.341 75.4513 132.966 74.2344 132.838 72.9799C132.709 71.7253 132.83 70.4577 133.193 69.25L147.69 20.1574C149.273 15.0411 154.511 12.1174 159.628 13.7011V13.7011Z" fill="white" stroke="#1A1B22" stroke-miterlimit="62.12" stroke-linecap="round" stroke-linejoin="round"/>
<path d="M66.4181 26.479L66.4388 26.9786L66.4161 26.4791C60.7819 26.7352 56.5474 31.3527 56.803 36.9891C56.803 36.9895 56.803 36.9899 56.803 36.9904L58.8738 88.1514L58.874 88.1544C59.1303 93.6659 63.8692 98.0235 69.3857 97.767L119.328 95.6962L119.331 95.696C124.842 95.4397 129.199 90.7023 128.944 85.1869C128.944 85.186 128.944 85.1852 128.944 85.1843L126.873 34.0238L126.873 34.0208C126.616 28.5097 121.878 24.1523 116.362 24.4082C116.362 24.4082 116.361 24.4082 116.361 24.4082L66.4181 26.479Z" fill="#1D6BF3" stroke="#1D6BF3"/>
<path fill-rule="evenodd" clip-rule="evenodd" d="M63.5157 24.2996L113.461 22.2287C118.699 21.9851 123.206 26.1269 123.45 31.3651L125.521 82.5286C125.765 87.7667 121.623 92.274 116.385 92.5176L66.4393 94.5885C61.2012 94.8322 56.6939 90.6903 56.4503 85.4522L54.3794 34.2887C54.1357 29.0505 58.2775 24.5433 63.5157 24.2996V24.2996Z" fill="white" stroke="#1A1B22" stroke-miterlimit="62.12" stroke-linecap="round" stroke-linejoin="round"/>
<path d="M144.013 54.1443L138.653 73.7691L193.544 88.7527L198.904 69.1279L144.013 54.1443V54.1443Z" fill="#1A1B22"/>
<path d="M224.917 86.9145L224.913 86.9137L176.309 75.7067C176.309 75.7066 176.309 75.7066 176.308 75.7065C170.801 74.4261 165.414 77.8835 164.257 83.2725C164.257 83.2737 164.256 83.2749 164.256 83.2762L152.808 133.089C152.807 133.089 152.807 133.09 152.807 133.091C151.524 138.486 154.992 143.862 160.365 145.142L160.369 145.143L208.971 156.349C208.971 156.349 208.972 156.349 208.972 156.349C214.368 157.633 219.744 154.164 221.024 148.791L221.025 148.787L232.475 98.9676C232.475 98.967 232.475 98.9663 232.475 98.9657C233.759 93.5702 230.29 88.1938 224.917 86.9145Z" fill="#1D6BF3" stroke="#1D6BF3"/>
<path d="M146.838 59.87L192.032 72.1736M145.376 65.4736L190.57 77.6554M143.914 70.9554L189.108 83.259" stroke="white" stroke-miterlimit="10" stroke-linecap="round" stroke-linejoin="round"/>
<path fill-rule="evenodd" clip-rule="evenodd" d="M173.76 71.8077L222.366 83.015C227.482 84.2331 230.771 89.3495 229.553 94.4658L218.102 144.289C216.884 149.406 211.767 152.695 206.651 151.477L158.046 140.269C152.929 139.051 149.64 133.935 150.858 128.818L162.309 78.995C163.406 73.7568 168.644 70.5895 173.76 71.8077V71.8077Z" fill="white" stroke="#1A1B22" stroke-miterlimit="62.12" stroke-linecap="round" stroke-linejoin="round"/>
<path d="M82.1671 109.327C82.1664 109.327 82.1658 109.327 82.1651 109.327C80.8737 109.615 79.652 110.155 78.571 110.918C77.4894 111.681 76.5701 112.652 75.8664 113.773C75.1626 114.894 74.6885 116.144 74.4714 117.45C74.2543 118.755 74.2985 120.091 74.6015 121.38C74.6015 121.38 74.6016 121.38 74.6016 121.38L86.174 171.202L86.1746 171.205C87.454 176.578 92.8308 180.047 98.2266 178.763C98.2269 178.763 98.2273 178.763 98.2277 178.763L146.83 167.556L146.833 167.556C152.206 166.276 155.675 160.9 154.391 155.504C154.391 155.504 154.391 155.503 154.391 155.503L142.819 105.682L142.818 105.679C141.539 100.306 136.162 96.8372 130.767 98.1208C130.766 98.1209 130.766 98.1211 130.765 98.1212L82.1671 109.327Z" fill="#1D6BF3" stroke="#1D6BF3"/>
<path fill-rule="evenodd" clip-rule="evenodd" d="M78.6209 107.135L127.226 95.9282C132.343 94.71 137.459 97.9991 138.677 103.115L150.25 152.939C151.468 158.055 148.179 163.172 143.063 164.39L94.4572 175.597C89.3409 176.815 84.2245 173.526 83.0064 168.41L71.4337 118.586C70.2155 113.47 73.5046 108.354 78.6209 107.135V107.135Z" fill="white" stroke="#1A1B22" stroke-miterlimit="62.12" stroke-linecap="round" stroke-linejoin="round"/>
<path d="M150.98 30.1475L153.173 30.7566C154.026 31.0002 154.513 31.3656 154.878 31.7311C155.244 32.0965 155.366 32.7056 155.122 33.4365C155 33.802 154.878 34.1674 154.635 34.4111C154.391 34.6547 154.147 34.7765 153.904 34.8984C153.66 35.0202 153.295 35.0202 152.929 35.0202C152.564 35.0202 152.198 34.8984 151.833 34.8984L150.858 34.6547L150.127 37.0911L148.909 36.7256L150.98 30.1475V30.1475ZM151.955 31.2438L151.224 33.802L152.198 34.0456C152.564 34.1674 153.051 34.1674 153.295 34.0456C153.66 33.9238 153.782 33.5584 154.026 33.0711C154.147 32.5838 154.147 32.3402 153.904 32.0965C153.782 31.8529 153.416 31.6093 153.051 31.4875L151.955 31.2438V31.2438ZM156.584 39.5274C156.34 39.7711 156.218 39.8929 155.975 40.0147C155.731 40.1365 155.609 40.2583 155.366 40.2583C155.122 40.2583 154.878 40.2583 154.635 40.1365C154.513 40.1365 154.391 40.0147 154.269 40.0147C154.147 40.0147 154.147 39.8929 154.026 39.8929C153.904 39.8929 153.904 39.7711 153.904 39.7711L154.147 39.0402C154.147 39.0402 154.269 39.162 154.391 39.162C154.513 39.2838 154.635 39.2838 154.756 39.2838C155 39.4056 155.122 39.4056 155.366 39.2838C155.487 39.2838 155.731 39.0402 155.975 38.9183L155.487 33.3147L156.584 33.6802L156.827 37.9438L159.264 34.5329L160.238 34.7765L157.193 38.9183C156.949 39.162 156.827 39.4056 156.584 39.5274V39.5274ZM161.7 40.2583C161.578 40.2583 161.335 40.2583 161.091 40.1365C160.604 40.0147 160.238 39.7711 159.995 39.4056C159.873 39.0402 159.751 38.6747 159.873 38.3093L160.725 35.5074L160.116 35.3856L160.36 34.6547L160.969 34.7765L161.213 33.802L162.309 34.1674L162.065 35.142L163.405 35.5074L163.162 36.2384L161.822 35.8729L161.091 38.5529C160.969 38.7965 160.969 38.9183 161.091 39.0402C161.213 39.162 161.335 39.2838 161.578 39.2838H162.309L162.065 40.0147C161.944 40.2583 161.822 40.3802 161.7 40.2583V40.2583ZM164.015 40.9892L162.918 40.6238L164.867 33.802L165.964 34.1674L165.111 36.9693C165.355 36.7256 165.598 36.6038 165.842 36.6038C166.207 36.482 166.451 36.482 166.938 36.6038C167.425 36.7256 167.791 36.9693 167.913 37.3347C168.156 37.7002 168.156 38.0656 168.035 38.5529L167.06 41.842L165.964 41.4765L166.938 38.3093C167.06 38.0656 167.06 37.822 166.938 37.5783C166.816 37.4565 166.695 37.3347 166.329 37.2129C165.964 37.0911 165.72 37.0911 165.476 37.2129C165.233 37.3347 164.989 37.4565 164.867 37.5783L164.015 40.9892V40.9892ZM170.227 42.8165C169.862 42.6947 169.618 42.5729 169.375 42.3292C169.131 42.0856 168.887 41.9638 168.765 41.5983C168.644 41.3547 168.522 40.9892 168.522 40.6238C168.522 40.2583 168.522 39.8929 168.644 39.5274C168.765 39.162 168.887 38.7965 169.131 38.5529C169.375 38.3093 169.618 38.0656 169.862 37.9438C170.105 37.822 170.471 37.7002 170.715 37.7002C170.958 37.7002 171.324 37.7002 171.689 37.822C172.055 37.9438 172.298 38.0656 172.542 38.3093C172.785 38.5529 173.029 38.6747 173.151 39.0402C173.273 39.2838 173.395 39.6493 173.395 40.0147C173.395 40.3802 173.395 40.7456 173.273 41.1111C173.151 41.4765 173.029 41.842 172.785 42.0856C172.542 42.3292 172.298 42.5729 172.055 42.6947C171.811 42.8165 171.445 42.9383 171.202 42.9383C170.836 42.9383 170.593 42.9383 170.227 42.8165ZM170.471 42.0856C170.715 42.0856 170.836 42.2074 170.958 42.0856C171.08 42.0856 171.324 41.9638 171.445 41.9638L171.933 41.4765L172.298 40.7456C172.42 40.3802 172.42 40.1365 172.42 39.8929C172.42 39.6493 172.42 39.4056 172.298 39.2838C172.176 39.162 172.055 38.9183 171.933 38.9183C171.811 38.7965 171.567 38.6747 171.445 38.6747C171.324 38.6747 171.08 38.5529 170.958 38.6747C170.836 38.6747 170.593 38.7965 170.471 38.7965C170.349 38.9183 170.227 39.0402 170.105 39.2838L169.74 40.0147C169.618 40.3802 169.618 40.6238 169.618 40.8674C169.618 41.1111 169.618 41.3547 169.74 41.4765C169.862 41.5983 169.862 41.842 170.105 41.842C170.105 41.9638 170.227 42.0856 170.471 42.0856ZM176.927 40.3802C176.562 40.2583 176.318 40.2583 176.075 40.3802C175.831 40.502 175.587 40.6238 175.465 40.7456L174.491 44.0347L173.395 43.6692L174.735 38.9183L175.709 39.162L175.587 39.8929C175.831 39.6493 176.075 39.5274 176.318 39.4056C176.684 39.2838 177.049 39.2838 177.415 39.4056C177.902 39.5274 178.267 39.7711 178.511 40.1365C178.755 40.502 178.755 40.8674 178.633 41.3547L177.658 44.6438H176.562L177.536 41.4765C177.658 41.2329 177.658 40.9892 177.536 40.7456C177.415 40.502 177.171 40.3802 176.927 40.3802ZM179.485 41.9638L181.8 42.5729L181.435 43.4256L179.12 42.8165L179.485 41.9638ZM148.3 48.6638C147.935 48.542 147.691 48.4201 147.447 48.1765C147.204 47.9329 147.082 47.6892 146.96 47.3238L146.229 49.882L145.133 49.5165L146.96 43.0602L147.935 43.3038L147.813 44.1565C148.056 43.9129 148.3 43.7911 148.666 43.6692C149.031 43.5474 149.275 43.5474 149.762 43.6692L150.493 44.0347C150.736 44.1565 150.858 44.4001 150.98 44.6438C151.102 44.8874 151.224 45.2529 151.224 45.4965C151.224 45.862 151.224 46.2274 151.102 46.5929C150.98 46.9583 150.858 47.3238 150.615 47.5674C150.371 47.811 150.127 48.0547 149.884 48.1765C149.64 48.2983 149.396 48.4201 149.031 48.4201C148.909 48.7856 148.544 48.7856 148.3 48.6638V48.6638ZM148.3 47.811C148.666 47.9329 149.031 47.811 149.275 47.6892C149.64 47.4456 149.884 47.0801 150.006 46.471C150.127 45.862 150.127 45.3747 150.006 45.0092C149.884 44.6438 149.64 44.4001 149.275 44.4001C149.153 44.4001 148.909 44.2783 148.787 44.4001C148.666 44.4001 148.422 44.522 148.3 44.6438L147.813 45.1311L147.447 45.862C147.326 46.1056 147.326 46.471 147.326 46.7147C147.326 46.9583 147.326 47.202 147.447 47.3238C147.569 47.4456 147.569 47.6892 147.813 47.811C147.935 47.6892 148.056 47.811 148.3 47.811ZM154.026 50.2474C154.026 50.0038 154.026 49.7601 154.147 49.5165L153.904 49.7601C153.782 49.8819 153.66 49.882 153.538 49.882C153.416 49.882 153.173 50.0038 153.051 50.0038C152.929 50.0038 152.686 50.0038 152.442 49.882C152.198 49.7601 152.076 49.7601 151.833 49.6383L151.467 49.2729C151.346 49.151 151.346 48.9074 151.224 48.7856V48.1765C151.346 47.6892 151.711 47.3238 152.198 47.202C152.686 47.0801 153.416 47.0801 154.269 47.3238L154.635 47.4456L154.756 47.0801C154.878 46.7147 154.878 46.4711 154.756 46.3492C154.635 46.1056 154.391 45.9838 154.026 45.862C153.66 45.7401 153.416 45.7401 153.051 45.7401C152.686 45.7401 152.442 45.862 152.198 45.862L152.442 45.1311C152.686 45.0092 152.929 45.0092 153.173 45.0092C153.538 45.0092 153.904 45.0092 154.269 45.1311C154.878 45.3747 155.365 45.6183 155.609 45.9838C155.853 46.3492 155.975 46.8365 155.731 47.3238L155 49.7601C155 49.8819 154.878 50.0038 154.878 50.1256C154.878 50.2474 154.878 50.3692 154.756 50.491L154.026 50.2474V50.2474ZM152.929 49.2729C153.051 49.2729 153.295 49.3947 153.416 49.2729C153.538 49.151 153.66 49.151 153.904 49.151C154.026 49.0292 154.147 49.0292 154.269 48.9074C154.391 48.7856 154.391 48.6638 154.391 48.542L154.513 48.0547L154.147 47.9329C153.904 47.811 153.66 47.811 153.416 47.811H152.929C152.807 47.811 152.686 47.9329 152.564 48.0547C152.442 48.1765 152.442 48.2983 152.442 48.4201C152.32 48.6638 152.32 48.9074 152.442 49.0292C152.564 49.0292 152.686 49.151 152.929 49.2729ZM159.873 50.491C159.751 50.7347 159.629 50.9783 159.507 51.1001C159.386 51.2219 159.142 51.3438 158.898 51.4656C158.655 51.4656 158.411 51.5874 158.167 51.5874C157.924 51.5874 157.558 51.4656 157.315 51.4656C156.949 51.3438 156.584 51.2219 156.34 51.1001C156.096 50.9783 155.853 50.7347 155.853 50.6129L156.096 49.882C156.218 50.0038 156.462 50.2474 156.706 50.3692C156.949 50.491 157.193 50.6129 157.558 50.7347C157.924 50.8565 158.167 50.8565 158.411 50.7347C158.655 50.7347 158.776 50.491 158.898 50.2474C159.02 50.0038 158.898 49.882 158.776 49.6383C158.655 49.5165 158.411 49.3947 158.045 49.2729L157.436 49.0292L157.68 48.2983L158.289 48.542C158.655 48.6638 158.898 48.6638 159.02 48.542C159.142 48.4201 159.385 48.2983 159.385 48.1765C159.507 47.9329 159.385 47.6892 159.264 47.5674C159.142 47.4456 158.898 47.3238 158.655 47.202C158.411 47.0801 158.045 47.0801 157.802 47.0801C157.558 47.0801 157.315 47.0801 157.071 47.202L157.315 46.471C157.558 46.471 157.68 46.3492 158.045 46.3492C158.289 46.3492 158.655 46.3492 159.02 46.471C159.629 46.5929 159.995 46.8365 160.36 47.202C160.604 47.5674 160.725 47.811 160.604 48.2983C160.482 48.6638 160.36 48.7856 160.116 48.9074C159.873 49.0292 159.629 49.0292 159.264 49.0292C159.629 49.151 159.995 49.3947 160.116 49.6383C159.873 49.882 159.995 50.1256 159.873 50.491V50.491ZM162.918 52.9274C162.553 52.8056 162.309 52.6838 162.065 52.4401C161.822 52.1965 161.7 51.9529 161.578 51.5874L160.847 54.1456L159.751 53.7801L161.578 47.3238L162.553 47.5674L162.431 48.4201C162.675 48.1765 162.918 48.0547 163.284 47.9329C163.649 47.811 163.893 47.811 164.38 47.9329L165.111 48.2983C165.355 48.4201 165.476 48.6638 165.598 48.9074C165.72 49.151 165.842 49.5165 165.842 49.7601C165.842 50.1256 165.842 50.491 165.72 50.8565C165.598 51.2219 165.476 51.5874 165.233 51.831C164.989 52.0747 164.745 52.3183 164.502 52.4401C164.258 52.5619 164.015 52.6838 163.649 52.6838C163.527 53.0492 163.162 53.0492 162.918 52.9274V52.9274ZM162.918 52.0747C163.284 52.1965 163.649 52.0747 163.893 51.9529C164.258 51.7092 164.502 51.3438 164.624 50.7347C164.745 50.1256 164.745 49.6383 164.624 49.2729C164.502 48.9074 164.258 48.6638 163.893 48.6638C163.771 48.6638 163.527 48.542 163.405 48.6638C163.284 48.7856 163.04 48.7856 162.918 48.9074L162.431 49.3947L162.065 50.1256C161.944 50.491 161.944 50.7347 161.944 50.9783C161.944 51.2219 161.944 51.4656 162.065 51.5874C162.187 51.7092 162.187 51.9529 162.431 52.0747C162.553 51.9529 162.675 52.0747 162.918 52.0747ZM168.644 54.511C168.644 54.2674 168.644 54.0238 168.765 53.7801L168.522 54.0238C168.4 54.1456 168.278 54.1456 168.156 54.1456C168.035 54.1456 167.791 54.2674 167.669 54.2674C167.547 54.2674 167.304 54.2674 167.06 54.1456C166.816 54.0238 166.695 54.0238 166.451 53.9019C166.207 53.7801 166.207 53.6583 166.085 53.5365C165.964 53.4147 165.964 53.171 165.842 53.0492V52.4401C165.964 51.9529 166.329 51.5874 166.816 51.4656C167.304 51.3438 168.035 51.3438 168.887 51.5874L169.253 51.7092L169.375 51.3438C169.496 50.9783 169.496 50.7347 169.375 50.6129C169.253 50.3692 169.009 50.2474 168.644 50.1256C168.278 50.0038 168.035 50.0038 167.669 50.0038C167.304 50.0038 167.06 50.1256 166.816 50.1256L167.06 49.3947C167.304 49.2729 167.547 49.2729 167.791 49.2729C168.156 49.2729 168.522 49.2729 168.887 49.3947C169.496 49.6383 169.984 49.882 170.227 50.2474C170.471 50.6129 170.593 51.1001 170.349 51.5874L169.618 54.0238C169.618 54.1456 169.496 54.2674 169.496 54.3892C169.496 54.511 169.496 54.6328 169.375 54.7547L168.644 54.511ZM167.547 53.5365C167.669 53.5365 167.913 53.6583 168.035 53.5365C168.156 53.4147 168.278 53.4147 168.522 53.4147C168.644 53.2928 168.765 53.2928 168.887 53.171C169.009 53.0492 169.009 52.9274 169.009 52.8056L169.131 52.3183L168.765 52.1965C168.522 52.0747 168.278 52.0747 168.035 52.0747H167.547C167.425 52.0747 167.304 52.1965 167.182 52.3183C167.06 52.4401 167.06 52.5619 167.06 52.6838C166.938 52.9274 166.938 53.171 167.06 53.2929C167.182 53.2929 167.304 53.4147 167.547 53.5365ZM175.831 54.0238C175.709 54.3892 175.587 54.7547 175.344 54.9983C175.1 55.2419 174.856 55.4856 174.613 55.6074C174.369 55.7292 174.004 55.851 173.76 55.851C173.395 55.851 173.151 55.851 172.785 55.7292C172.42 55.6074 172.176 55.4856 171.933 55.2419C171.689 54.9983 171.445 54.7547 171.324 54.511C171.158 54.1695 171.075 53.7941 171.08 53.4147C171.08 53.0492 171.08 52.5619 171.324 52.0747L171.689 50.9783C171.811 50.6129 171.933 50.3692 172.176 50.1256C172.298 49.8819 172.542 49.6383 172.785 49.3947C173.029 49.151 173.273 49.0292 173.638 48.9074C174.004 48.7856 174.369 48.7856 174.735 48.7856C175.1 48.7856 175.465 48.9074 175.831 49.0292C176.196 49.151 176.44 49.151 176.562 49.151H177.049L176.805 50.0038H176.318C176.075 50.0038 175.953 50.0038 175.709 49.882C175.344 49.7601 174.978 49.7601 174.735 49.7601H173.882C173.516 49.8819 173.273 50.0038 173.029 50.3692C172.785 50.7347 172.664 51.1001 172.42 51.5874C172.664 51.2219 173.029 50.9783 173.395 50.8565C173.76 50.7347 174.125 50.7347 174.613 50.8565C174.978 50.9783 175.222 51.1001 175.465 51.2219C175.709 51.4656 175.831 51.5874 175.953 51.9529C176.075 52.1965 176.196 52.5619 176.196 52.8056C175.953 53.2928 175.953 53.6583 175.831 54.0238V54.0238ZM172.907 54.9983C173.273 55.1201 173.638 54.9983 173.882 54.8765C174.247 54.6328 174.491 54.2674 174.613 53.6583C174.735 53.0492 174.735 52.6838 174.613 52.3183C174.491 51.9529 174.247 51.7092 173.882 51.7092C173.516 51.7092 173.151 51.7092 172.907 51.831C172.542 52.0747 172.298 52.4401 172.176 52.9274C172.055 53.5365 172.055 54.0238 172.176 54.2674C172.298 54.7547 172.542 54.8765 172.907 54.9983ZM178.024 57.3128C177.658 57.191 177.415 57.0692 177.171 56.8256C176.927 56.5819 176.684 56.4601 176.562 56.0947C176.44 55.851 176.318 55.4856 176.318 55.1201C176.318 54.7547 176.318 54.3892 176.44 54.0238C176.562 53.6583 176.684 53.2928 176.927 53.0492C177.171 52.8056 177.415 52.5619 177.658 52.4401C177.902 52.3183 178.267 52.1965 178.511 52.1965C178.876 52.1965 179.12 52.1965 179.485 52.3183C179.851 52.4401 180.095 52.5619 180.338 52.8056C180.582 53.0492 180.825 53.171 180.947 53.5365C181.069 53.7801 181.191 54.1456 181.191 54.511C181.191 54.8765 181.191 55.2419 181.069 55.6074C180.947 55.9728 180.825 56.3383 180.582 56.5819C180.338 56.8256 180.095 57.0692 179.851 57.191C179.607 57.3128 179.242 57.4347 178.998 57.4347C178.755 57.4347 178.389 57.4347 178.024 57.3128ZM178.267 56.5819C178.511 56.5819 178.633 56.7038 178.755 56.5819C178.876 56.5819 179.12 56.4601 179.242 56.4601L179.729 55.9728L180.095 55.2419C180.216 54.9983 180.216 54.6328 180.216 54.3892C180.216 54.1456 180.216 53.9019 180.095 53.7801C179.973 53.6583 179.851 53.4147 179.729 53.4147C179.607 53.2928 179.485 53.171 179.242 53.171C179.12 53.171 178.876 53.0492 178.755 53.171C178.633 53.171 178.389 53.2929 178.267 53.2929C178.145 53.4147 178.024 53.5365 177.902 53.7801L177.536 54.511C177.415 54.7547 177.415 55.1201 177.415 55.3638C177.415 55.6074 177.415 55.851 177.536 55.9728C177.658 56.0947 177.658 56.3383 177.902 56.3383C177.902 56.4601 178.024 56.4601 178.267 56.5819ZM184.48 54.7547L183.384 58.6528L182.287 58.2874L183.384 54.3892L181.922 54.0238L182.165 53.2929L186.185 54.511L185.942 55.2419L184.48 54.7547V54.7547ZM189.474 60.4801L188.378 60.1146L188.987 58.1656C188.744 58.2874 188.622 58.2874 188.378 58.2874C188.135 58.2874 187.891 58.2874 187.525 58.1656C187.038 58.0437 186.673 57.8001 186.429 57.4347C186.185 57.0692 186.185 56.5819 186.429 55.9728L186.795 54.6328L187.891 54.9983L187.525 56.3383C187.404 56.7037 187.404 56.9474 187.525 57.0692C187.647 57.3128 187.891 57.4347 188.135 57.4347C188.256 57.4347 188.5 57.5565 188.622 57.5565C188.744 57.5565 188.987 57.5565 189.109 57.4347L189.718 55.3638L190.815 55.7292L189.474 60.4801V60.4801ZM191.911 59.7492L195.2 57.0692L196.174 57.3128L194.834 62.0637L193.738 61.6983L194.713 58.2874L191.424 60.9674L190.449 60.7237L191.789 55.9728L192.885 56.3383L191.911 59.7492ZM198.367 58.0437L197.027 62.7946L195.931 62.4292L197.271 57.6783L198.367 58.0437ZM198.976 60.6019L200.194 63.6474L198.854 63.2819L197.758 60.4801L200.438 58.6528L201.534 58.8965L198.976 60.6019V60.6019Z" fill="#1A1B22"/>
<path d="M64.3662 75.9499L117.844 74.488" stroke="#1A1B22" stroke-miterlimit="10" stroke-linecap="round" stroke-linejoin="round"/>
<path d="M110.487 70.5158L107.076 70.6742L107.429 78.2147L110.84 78.0564L110.487 70.5037V70.5158Z" fill="#1D6BF3"/>
<path d="M64.7314 85.6958L118.209 84.234" stroke="#1A1B22" stroke-miterlimit="10" stroke-linecap="round" stroke-linejoin="round"/>
<path d="M93.7996 81.115L90.3887 81.2733L90.7419 88.8139L94.1528 88.6555L93.7996 81.1028V81.115Z" fill="#1D6BF3"/>
<path d="M158.896 116.15L195.685 135.275M156.46 126.626L197.756 125.774M158.811 116.028L156.46 126.614L195.588 135.288L197.939 124.702L158.811 116.028Z" stroke="#1A1B22" stroke-miterlimit="10"/>
<path fill-rule="evenodd" clip-rule="evenodd" d="M40.2471 73.5132C60.2252 69.8587 61.5652 73.1477 76.3051 69.0059C91.0451 64.8641 90.8015 77.4114 84.1015 81.675C77.78 85.7456 70.9367 88.9419 63.7579 91.1768C58.8852 92.6386 50.2361 100.557 47.0689 104.455" fill="white"/>
<path d="M40.2471 73.5132C60.2252 69.8587 61.5652 73.1477 76.3051 69.0059C91.0451 64.8641 90.8015 77.4114 84.1015 81.675C77.78 85.7456 70.9367 88.9419 63.7579 91.1768C58.8852 92.6386 50.2361 100.557 47.0689 104.455" stroke="#1A1B22" stroke-miterlimit="62.12" stroke-linecap="round" stroke-linejoin="round"/>
<path d="M40.2911 137.186L41.258 131.063L42.2259 137.193L42.2258 137.193L42.2276 137.203C42.869 140.795 45.4419 143.644 48.9393 144.424C48.9415 144.424 48.9436 144.425 48.9458 144.425L51.3782 145.034L48.933 145.645L48.9288 145.646C45.462 146.545 42.7453 149.374 42.2255 152.876C42.2254 152.877 42.2253 152.878 42.2252 152.878L41.258 159.004L40.2901 152.874L40.2884 152.864C39.6469 149.272 37.074 146.423 33.5766 145.643C33.5745 145.643 33.5723 145.642 33.5701 145.642L31.1377 145.034L33.5701 144.425C33.5723 144.425 33.5745 144.424 33.5766 144.424C37.0603 143.647 39.7723 140.807 40.2906 137.19C40.2908 137.188 40.2909 137.187 40.2911 137.186ZM240.07 16.2371L240.07 16.2341L240.552 13.4045L241.034 16.2341L241.034 16.2371C241.43 18.4825 243.023 20.3597 245.304 20.8992C245.306 20.8996 245.308 20.9001 245.31 20.9006L246.246 21.1448L245.31 21.389C245.308 21.3894 245.306 21.3899 245.304 21.3904C243.023 21.9299 241.43 23.8071 241.034 26.0524L241.034 26.0554L240.552 28.885L240.07 26.0554L240.07 26.0524C239.674 23.8071 238.081 21.9299 235.8 21.3904C235.798 21.3899 235.796 21.3894 235.794 21.389L234.858 21.1448L235.805 20.8977L235.817 20.8947L235.828 20.8911C237.932 20.2339 239.668 18.5159 240.07 16.2371ZM227.523 62.8887L227.525 62.8792L227.647 62.051L227.754 62.7596L227.755 62.7669C228.031 64.4212 229.27 65.8005 230.929 66.2152L230.938 66.2174L230.929 66.2196C229.27 66.6342 228.031 68.0135 227.755 69.6679L227.754 69.6752L227.639 70.4324L227.525 69.6752L227.523 69.6679C227.248 68.0135 226.008 66.6342 224.35 66.2196L224.343 66.2178C226.023 65.9228 227.251 64.5258 227.523 62.8887Z" fill="#1D6BF3" stroke="#1D6BF3"/>
<path d="M61.2002 45.7389L63.5147 45.6171C64.3675 45.6171 64.9765 45.7389 65.4638 45.9825C65.9511 46.348 66.1947 46.8353 66.1947 47.4444C66.1947 47.8098 66.1947 48.1753 66.0729 48.4189C65.9511 48.6625 65.8293 48.9062 65.5856 49.1498C65.342 49.3934 65.0984 49.5153 64.7329 49.6371C64.3675 49.7589 64.002 49.7589 63.6366 49.7589H62.662L62.7838 52.1952H61.5656L61.2002 45.7389V45.7389ZM62.5402 46.5916L62.662 49.2716H63.6366C64.1238 49.2716 64.3675 49.1498 64.7329 48.9062C64.9765 48.6625 65.0984 48.2971 65.0984 47.8098C65.0984 47.3225 64.9765 47.0789 64.7329 46.8353C64.3914 46.6698 64.016 46.5864 63.6366 46.5916H62.5402V46.5916ZM70.0929 52.1952C69.9711 51.9516 69.9711 51.708 69.9711 51.4643C69.9711 51.5862 69.8493 51.708 69.7274 51.8298C69.6056 51.9516 69.4838 52.0734 69.362 52.0734C69.2402 52.1953 69.1183 52.1953 68.8747 52.3171C68.7529 52.3171 68.5093 52.4389 68.2656 52.4389H67.6565C67.4129 52.4389 67.2911 52.3171 67.1693 52.1952L66.8038 51.8298C66.682 51.708 66.682 51.4643 66.682 51.2207C66.682 50.7334 66.8038 50.2462 67.2911 50.0025C67.6565 49.7589 68.3874 49.5153 69.2402 49.5153H69.7274V49.1498C69.7274 48.7843 69.6056 48.5407 69.4838 48.4189C69.362 48.2971 68.9965 48.1753 68.6311 48.1753C68.2656 48.1753 68.022 48.2971 67.6565 48.4189L66.9256 48.7843V48.0534C67.0474 47.9316 67.2911 47.8098 67.6565 47.688C68.022 47.5662 68.3874 47.4444 68.7529 47.4444C69.362 47.4444 69.9711 47.5662 70.3365 47.8098C70.702 48.0534 70.9456 48.4189 70.9456 49.028L71.0674 51.5862V52.3171L70.0929 52.1952ZM68.7529 51.5862C68.9965 51.5862 69.1184 51.5862 69.2402 51.4643C69.362 51.3425 69.4838 51.3425 69.6056 51.2207C69.7274 51.0989 69.7274 50.9771 69.8493 50.8553C69.8493 50.7334 69.9711 50.6116 69.9711 50.4898V49.8807H69.6056C69.362 49.8807 69.1183 49.8807 68.8747 50.0025C68.6311 50.0025 68.5093 50.1243 68.3874 50.1243C68.2656 50.2462 68.1438 50.2462 68.1438 50.368C68.1438 50.4898 68.022 50.6116 68.1438 50.7334C68.1438 50.9771 68.2656 51.2207 68.3874 51.3425C68.5093 51.4643 68.5093 51.5862 68.7529 51.5862V51.5862ZM75.6965 50.4898C75.6965 50.7334 75.6965 50.9771 75.5747 51.2207C75.4529 51.4643 75.3311 51.5862 75.0874 51.708C74.8438 51.8298 74.722 51.9516 74.3565 51.9516C74.1129 52.0734 73.8692 52.0734 73.5038 52.0734C73.1383 52.0734 72.7729 52.0734 72.5292 51.9516C72.1638 51.9516 72.042 51.9516 71.7983 51.8298V50.9771C72.042 51.0989 72.2856 51.2207 72.5292 51.2207C72.7729 51.3425 73.1383 51.3425 73.382 51.3425C73.7474 51.3425 73.9911 51.2207 74.2347 51.0989C74.4783 50.9771 74.4783 50.7334 74.4783 50.4898C74.4783 50.2462 74.3565 50.1243 74.2347 50.0025C74.1129 49.8807 73.7474 49.8807 73.382 49.8807H72.6511V49.1498H73.382C73.7474 49.1498 73.9911 49.028 74.1129 48.9062C74.2347 48.7843 74.3565 48.6625 74.3565 48.4189C74.3565 48.1753 74.2347 47.9316 73.9911 47.9316C73.7474 47.8098 73.5038 47.8098 73.2602 47.8098C72.8947 47.8098 72.6511 47.9316 72.4074 47.9316C72.1638 48.0534 71.9202 48.1753 71.7983 48.2971V47.4444C71.9202 47.3225 72.1638 47.2007 72.4074 47.0789H73.382C73.9911 47.0789 74.4783 47.2007 74.8438 47.3225C75.2092 47.5662 75.3311 47.8098 75.3311 48.2971C75.3311 48.6625 75.2092 48.9062 75.0874 49.028C74.8438 49.2716 74.6002 49.3934 74.2347 49.3934C74.722 49.3934 74.9656 49.5153 75.2092 49.7589C75.5747 49.8807 75.6965 50.2462 75.6965 50.4898V50.4898ZM79.3511 51.8298C78.9856 51.8298 78.6201 51.8298 78.3765 51.5862C78.1329 51.4643 77.8892 51.2207 77.6456 50.9771L77.7674 53.5352H76.6711L76.4274 46.8353H77.402L77.5238 47.688C77.6456 47.3225 77.8892 47.0789 78.1329 46.9571C78.3765 46.7134 78.742 46.7134 79.1074 46.5916C79.351 46.5916 79.7165 46.5916 79.9601 46.7134C80.2038 46.8353 80.4474 46.9571 80.691 47.2007C80.9347 47.4444 81.0565 47.688 81.1783 47.9316C81.3001 48.2971 81.422 48.6625 81.422 49.028C81.422 49.5153 81.422 49.8807 81.3001 50.1243C81.1783 50.4898 81.0565 50.7334 80.8129 50.9771C80.5692 51.2207 80.4474 51.3425 80.2038 51.4643C79.9601 51.8298 79.5947 51.8298 79.3511 51.8298V51.8298ZM79.1074 51.0989C79.4729 51.0989 79.8383 50.9771 79.9601 50.6116C80.2038 50.368 80.3256 49.8807 80.2038 49.2716C80.2038 48.6625 80.082 48.1753 79.8383 47.9316C79.5947 47.688 79.2292 47.5662 78.8638 47.5662C78.6201 47.5662 78.4983 47.5662 78.3765 47.688L78.011 48.0534C77.8892 48.1753 77.7674 48.4189 77.7674 48.6625C77.7674 48.9062 77.6456 49.1498 77.6456 49.5153C77.6456 49.8807 77.6456 50.1243 77.7674 50.368C77.8892 50.6116 77.8892 50.7334 78.1329 50.8553C78.2547 50.9771 78.3765 51.0989 78.6201 51.0989H79.1074V51.0989ZM85.3201 51.5862C85.1983 51.3425 85.1983 51.0989 85.1983 50.7334C85.1983 50.8553 85.0765 50.9771 84.9547 51.0989C84.8329 51.2207 84.711 51.3425 84.5892 51.3425C84.4674 51.4643 84.3456 51.4643 84.1019 51.5862C83.9801 51.5862 83.7365 51.708 83.4929 51.708H82.8838C82.6401 51.708 82.5183 51.5862 82.3965 51.4643L82.031 51.0989C81.9092 50.9771 81.9092 50.7334 81.9092 50.4898C81.9092 50.0025 82.031 49.5153 82.5183 49.2716C82.8838 49.028 83.6147 48.7843 84.4674 48.7843H84.9547V48.4189C84.9547 48.0534 84.8328 47.8098 84.711 47.688C84.5892 47.5662 84.2238 47.4444 83.8583 47.4444C83.4929 47.4444 83.2492 47.5662 82.8838 47.688L82.1529 48.0534V47.3225C82.2747 47.2007 82.5183 47.0789 82.8838 46.9571C83.2492 46.8353 83.6147 46.7134 83.9801 46.7134C84.5892 46.7134 85.1983 46.8353 85.5638 47.0789C85.9292 47.3225 86.1728 47.688 86.1728 48.2971L86.2947 50.8553V51.5862H85.3201ZM83.9801 50.9771C84.2238 50.9771 84.3456 50.9771 84.4674 50.8553C84.5892 50.7334 84.711 50.7334 84.8329 50.6116C84.9547 50.4898 84.9547 50.368 85.0765 50.2462C85.1983 50.1243 85.1983 50.0025 85.1983 49.8807V49.2716H84.8329C84.5892 49.2716 84.2238 49.2716 84.1019 49.3934C83.8583 49.3934 83.7365 49.5153 83.6147 49.5153C83.4929 49.6371 83.371 49.6371 83.371 49.7589C83.371 49.8807 83.2492 50.0025 83.371 50.1243C83.371 50.368 83.4929 50.6116 83.6147 50.7334C83.4929 50.8553 83.7365 50.9771 83.9801 50.9771V50.9771ZM91.8983 48.7843C91.8983 49.1498 91.8983 49.5153 91.7765 49.8807C91.6547 50.2462 91.5328 50.4898 91.2892 50.7334C91.0456 50.9771 90.8019 51.0989 90.5583 51.2207C90.3147 51.3425 89.9492 51.4643 89.5837 51.4643C89.2183 51.4643 88.8528 51.4643 88.6092 51.3425C88.2438 51.2207 88.0001 51.0989 87.7565 50.8553C87.5128 50.6116 87.391 50.368 87.1474 49.8807C86.9038 49.3934 86.9038 49.028 86.9038 48.5407V47.4444C86.9038 47.0789 86.9038 46.7134 87.0256 46.4698C87.1474 46.1044 87.2692 45.8607 87.391 45.6171C87.5128 45.3735 87.7565 45.1298 88.0001 45.008C88.3656 44.7644 88.6092 44.6425 88.9747 44.5207C89.3401 44.3989 89.7056 44.3989 90.071 44.3989C90.4365 44.3989 90.6801 44.2771 90.8019 44.2771C90.9237 44.2771 91.1674 44.1553 91.2892 44.1553V45.1298C91.1674 45.2516 91.0456 45.2516 90.8019 45.3735C90.5583 45.3735 90.4365 45.4953 90.1928 45.4953C89.8274 45.4953 89.4619 45.6171 89.2183 45.6171C88.9747 45.6171 88.731 45.7389 88.4874 45.8607C88.2438 45.9825 88.0001 46.348 87.8783 46.7134C87.7565 47.0789 87.7565 47.5662 87.7565 48.0534C87.8783 47.5662 88.1219 47.3225 88.3656 47.0789C88.6092 46.8353 89.0965 46.7134 89.4619 46.7134C89.8274 46.7134 90.071 46.7134 90.4365 46.8353C90.6801 46.9571 90.9237 47.0789 91.1674 47.3225C91.411 47.5662 91.5328 47.8098 91.6547 48.0534C91.8983 48.0534 91.8983 48.4189 91.8983 48.7843V48.7843ZM89.4619 50.7334C89.8274 50.7334 90.1928 50.6116 90.4365 50.2462C90.6801 50.0025 90.8019 49.5153 90.8019 48.9062C90.8019 48.2971 90.6801 47.9316 90.4365 47.5662C90.1928 47.3225 89.8274 47.2007 89.4619 47.2007C89.0965 47.2007 88.731 47.3225 88.4874 47.688C88.2438 47.9316 88.1219 48.4189 88.1219 49.028C88.1219 49.6371 88.2438 50.1243 88.4874 50.368C88.8528 50.6116 89.0965 50.7334 89.4619 50.7334ZM95.0655 51.2207C94.7001 51.2207 94.3346 51.2207 94.091 51.0989C93.7256 50.9771 93.4819 50.8553 93.2383 50.6116C92.9946 50.368 92.8728 50.1243 92.6292 49.8807C92.6292 49.5153 92.5074 49.1498 92.5074 48.7843C92.5074 48.4189 92.5074 48.0534 92.6292 47.688C92.751 47.3225 92.8728 47.0789 93.1165 46.8353C93.3601 46.5916 93.6037 46.4698 93.8474 46.348C94.091 46.2262 94.4565 46.1044 94.8219 46.1044C95.1874 46.1044 95.5528 46.1044 95.7965 46.2262C96.1619 46.348 96.4055 46.4698 96.6492 46.7134C96.8928 46.9571 97.0146 47.2007 97.2583 47.4444C97.3801 47.8098 97.5019 48.1753 97.5019 48.5407C97.5019 48.9062 97.5019 49.2716 97.3801 49.6371C97.2583 50.0025 97.1364 50.2462 96.8928 50.4898C96.6492 50.7334 96.4055 50.8553 96.1619 50.9771C95.9183 51.0989 95.431 51.2207 95.0655 51.2207ZM95.0655 50.4898C95.3092 50.4898 95.431 50.4898 95.5528 50.368C95.6746 50.2462 95.7965 50.2462 95.9183 50.0025C96.0401 49.8807 96.1619 49.6371 96.1619 49.3934C96.1619 49.1498 96.2837 48.9062 96.2837 48.5407C96.2837 48.1753 96.2837 47.9316 96.1619 47.688C96.0401 47.4444 96.0401 47.3225 95.7965 47.2007C95.5528 47.0789 95.5528 46.9571 95.3092 46.9571C95.1874 46.9571 94.9437 46.8353 94.8219 46.8353C94.5783 46.8353 94.4565 46.8353 94.3346 46.9571C94.2128 47.0789 94.091 47.0789 93.9692 47.3225C93.8474 47.4444 93.7256 47.688 93.7256 47.9316C93.7256 48.1753 93.6037 48.4189 93.6037 48.7843C93.6037 49.1498 93.6037 49.3934 93.7256 49.6371C93.8474 49.8807 93.8474 50.0025 93.9692 50.1243C94.091 50.2462 94.2128 50.368 94.4565 50.368C94.7001 50.368 94.8219 50.4898 95.0655 50.4898ZM100.304 46.7134L100.426 50.8553H99.3292L99.2074 46.7134L97.7455 46.8353V45.9825L101.887 45.8607V46.7134H100.304ZM106.882 50.6116H105.786L105.664 48.5407C105.542 48.6625 105.298 48.7843 105.055 48.9062C104.811 49.028 104.567 49.028 104.202 49.028C103.715 49.028 103.227 48.9062 102.984 48.6625C102.618 48.4189 102.496 47.9316 102.496 47.3225V45.8607H103.593L103.715 47.3225C103.715 47.688 103.836 47.9316 103.958 48.0534C104.08 48.1753 104.324 48.2971 104.689 48.2971C104.933 48.2971 105.055 48.2971 105.176 48.1753C105.298 48.1753 105.542 48.0534 105.664 47.9316L105.542 45.7389H106.638L106.882 50.6116V50.6116ZM109.075 49.1498L111.389 45.4953H112.364L112.607 50.368H111.511L111.389 46.8353L109.075 50.4898H108.1L107.856 45.6171H108.953L109.075 49.1498ZM114.556 45.3735L114.8 50.2462H113.704L113.46 45.3735H114.556ZM115.896 47.5662L118.089 50.1243H116.749L114.8 47.8098L116.749 45.2516H117.845L115.896 47.5662V47.5662ZM65.2202 64.2552C64.7329 64.2552 64.2456 64.2552 63.7584 64.1334C63.2711 64.0116 62.9056 63.7679 62.662 63.5243C62.2966 63.2807 62.0529 62.9152 61.9311 62.4279C61.6875 62.0625 61.6875 61.5752 61.5656 60.9661C61.4438 60.357 61.5657 59.8698 61.6875 59.5043C61.8093 59.1389 62.0529 58.6516 62.2966 58.408C62.5402 58.0425 62.9056 57.7989 63.3929 57.6771C63.7584 57.5552 64.2456 57.4334 64.8547 57.4334C65.342 57.4334 65.7075 57.4334 66.0729 57.5552C66.4384 57.6771 66.682 57.6771 66.9256 57.9207V58.7734C66.682 58.6516 66.4384 58.5298 66.0729 58.408C65.7075 58.2861 65.4638 58.2861 65.0984 58.2861C64.3675 58.2861 63.7584 58.5298 63.3929 59.017C63.0275 59.5043 62.9056 60.1134 62.9056 60.9661C62.9056 61.8189 63.1493 62.4279 63.5147 62.9152C63.8802 63.2807 64.4893 63.5243 65.342 63.5243C65.7075 63.5243 66.0729 63.4025 66.3165 63.4025C66.682 63.2807 66.9256 63.1589 67.1693 62.9152V63.7679C67.0475 63.8898 66.8038 64.0116 66.4384 64.1334C66.0729 64.1334 65.7074 64.1334 65.2202 64.2552ZM70.702 61.0879L70.8238 63.037H69.8493L69.7274 61.0879L67.9002 61.2098V60.357L69.7274 60.2352L69.6056 58.2861H70.5802L70.702 60.2352L72.5292 60.1134V60.9661L70.702 61.0879ZM76.1838 60.8443L76.3056 62.7934H75.3311L75.2092 60.8443L73.382 60.9661V60.1134L75.2092 59.9916L74.9656 58.0425H75.9402L76.062 59.9916L77.8892 59.8698V60.7225L76.1838 60.8443V60.8443ZM165.964 91.9079L168.278 92.517C169.009 92.7606 169.618 93.0042 169.984 93.2479C170.349 93.6133 170.471 94.1006 170.349 94.7097C170.227 95.1969 169.984 95.4406 169.74 95.6842C169.398 95.8497 169.023 95.9331 168.644 95.9278C169.131 96.1715 169.496 96.4151 169.74 96.6588C169.984 96.9024 169.984 97.3897 169.862 97.8769C169.74 98.2424 169.618 98.486 169.496 98.7297C169.374 98.9733 169.131 99.0951 168.765 99.2169C168.522 99.3388 168.156 99.3387 167.791 99.3387C167.425 99.3387 167.06 99.2169 166.694 99.2169L164.38 98.7297L165.964 91.9079ZM166.329 95.806L165.842 97.9988L166.938 98.2424C167.182 98.2424 167.304 98.3642 167.547 98.3642C167.791 98.3642 167.913 98.3642 168.034 98.2424C168.156 98.1206 168.278 98.1206 168.4 97.9988C168.522 97.8769 168.522 97.7551 168.644 97.5115C168.765 97.146 168.644 96.7806 168.522 96.5369C168.278 96.2933 167.913 96.1715 167.425 96.0497L166.329 95.806V95.806ZM166.938 93.0042L166.451 95.0751L167.547 95.3188C167.913 95.4406 168.278 95.4406 168.522 95.3188C168.765 95.1969 169.009 94.9533 169.009 94.5879C169.131 94.2224 169.009 93.9788 168.887 93.7351C168.765 93.6133 168.4 93.3697 168.034 93.3697L166.938 93.0042V93.0042ZM174.369 100.435C174.247 100.557 174.003 100.557 173.638 100.557C173.273 100.557 172.907 100.557 172.542 100.435C171.689 100.191 171.08 99.826 170.714 99.3387C170.349 98.7297 170.349 98.1206 170.471 97.3897C170.593 97.0242 170.714 96.6588 170.836 96.4151C171.08 96.1715 171.202 95.9278 171.567 95.806C171.933 95.6842 172.054 95.5624 172.42 95.4406C172.785 95.3188 173.029 95.4406 173.394 95.4406C173.76 95.5624 174.004 95.6842 174.369 95.806C174.613 96.0497 174.856 96.1715 174.978 96.5369C175.1 96.7806 175.222 97.146 175.1 97.5115C175.1 97.8769 174.978 98.2424 174.856 98.7297L171.567 97.9988C171.445 98.486 171.567 98.8515 171.811 99.2169C172.054 99.4606 172.42 99.7042 172.907 99.826C173.273 99.9478 173.638 99.9478 173.882 99.9478C174.125 99.9478 174.369 99.826 174.613 99.826L174.369 100.435V100.435ZM173.394 96.1715C173.029 96.0497 172.785 96.1715 172.42 96.2933C172.054 96.4151 171.933 96.7806 171.811 97.2678L174.125 97.7551C174.247 97.2678 174.247 96.9024 174.125 96.6588C174.004 96.4151 173.638 96.2933 173.394 96.1715V96.1715ZM180.46 99.826C180.338 100.191 180.216 100.557 179.973 100.801C179.729 101.044 179.485 101.288 179.242 101.41C178.998 101.531 178.633 101.653 178.389 101.653H177.414C177.049 101.531 176.805 101.41 176.44 101.288C176.196 101.044 175.953 100.801 175.831 100.557C175.709 100.313 175.587 99.9478 175.587 99.5824C175.587 99.2169 175.587 98.7297 175.709 98.2424C175.831 97.8769 175.953 97.5115 175.953 97.146C176.074 96.7806 176.196 96.5369 176.318 96.1715C176.44 95.9279 176.683 95.6842 176.927 95.4406C177.171 95.1969 177.414 95.0751 177.658 94.9533C178.023 94.8315 178.389 94.7097 178.754 94.8315C179.12 94.9533 179.485 94.9533 179.851 94.9533C180.216 94.9533 180.46 95.0751 180.582 95.0751H181.069L180.825 95.9278C180.703 95.9278 180.46 96.0497 180.338 96.0497C180.216 96.0497 179.973 96.0497 179.729 95.9278C179.363 95.9278 178.998 95.806 178.754 95.806C178.511 95.806 178.145 95.806 177.902 95.9278C177.536 96.0497 177.293 96.2933 177.171 96.5369C176.936 96.9103 176.771 97.323 176.683 97.7551C176.927 97.3897 177.171 97.146 177.536 97.0242C177.902 96.9024 178.267 96.9024 178.754 97.0242C179.12 97.146 179.363 97.2678 179.607 97.3897C179.851 97.5115 180.094 97.7551 180.216 97.9988C180.338 98.2424 180.46 98.486 180.46 98.8515C180.582 99.0951 180.46 99.4606 180.46 99.826V99.826ZM177.536 100.922C177.902 101.044 178.267 100.922 178.511 100.679C178.754 100.435 178.998 100.07 179.12 99.4606C179.242 98.8515 179.242 98.486 179.12 98.1206C178.998 97.7551 178.633 97.6333 178.267 97.5115C177.902 97.3897 177.536 97.5115 177.293 97.7551C176.927 97.9987 176.805 98.3642 176.562 98.9733C176.44 99.5824 176.44 100.07 176.562 100.313C176.684 100.557 177.171 100.801 177.536 100.922V100.922ZM181.434 99.0951L183.749 99.5824L183.505 100.435L181.191 99.9478L181.434 99.0951ZM164.258 110.546C163.893 110.424 163.649 110.302 163.405 110.059C163.162 109.815 163.04 109.571 162.918 109.206L162.309 111.764L161.213 111.521L162.796 104.942L163.771 105.186L163.649 106.039C163.893 105.795 164.136 105.551 164.502 105.551C164.745 105.43 165.111 105.43 165.598 105.551C165.842 105.673 166.085 105.673 166.329 105.917C166.573 106.039 166.694 106.282 166.938 106.526C167.06 106.77 167.182 107.013 167.182 107.379C167.182 107.744 167.182 108.11 167.06 108.475C166.938 108.841 166.816 109.206 166.573 109.571C166.329 109.815 166.207 110.059 165.964 110.302L165.233 110.668C164.867 110.668 164.502 110.668 164.258 110.546V110.546ZM164.136 109.815C164.502 109.937 164.867 109.815 165.111 109.571C165.354 109.328 165.598 108.962 165.72 108.353C165.842 107.744 165.842 107.257 165.72 106.891C165.598 106.526 165.233 106.404 164.867 106.282H164.38C164.258 106.282 164.014 106.404 163.893 106.526C163.771 106.648 163.649 106.77 163.527 107.013C163.405 107.257 163.284 107.501 163.284 107.744C163.162 108.11 163.162 108.353 163.162 108.597C163.162 108.841 163.284 109.084 163.284 109.206C163.405 109.328 163.527 109.571 163.649 109.571C163.893 109.693 164.014 109.693 164.136 109.815V109.815ZM170.105 111.886V111.155L169.862 111.399C169.74 111.521 169.618 111.521 169.496 111.642C169.374 111.642 169.253 111.764 169.009 111.764C168.765 111.764 168.644 111.764 168.4 111.642C168.156 111.642 168.034 111.521 167.791 111.399L167.425 111.033C167.304 110.911 167.304 110.668 167.182 110.546V109.937C167.304 109.45 167.547 109.084 168.034 108.962C168.522 108.841 169.131 108.841 170.105 109.084L170.593 109.206L170.714 108.841C170.836 108.475 170.714 108.231 170.593 108.11C170.471 107.866 170.227 107.744 169.862 107.744C169.496 107.622 169.253 107.622 168.887 107.622C168.644 107.622 168.278 107.744 168.034 107.866L168.278 107.135C168.4 107.013 168.765 107.013 169.009 106.891C169.374 106.891 169.74 106.891 170.105 107.013C170.714 107.135 171.202 107.379 171.567 107.744C171.811 108.11 171.933 108.597 171.811 109.084L171.202 111.521C171.202 111.642 171.202 111.764 171.08 111.886V112.251L170.105 111.886V111.886ZM168.887 110.911H169.374C169.496 110.911 169.618 110.79 169.74 110.79C169.862 110.668 169.984 110.668 169.984 110.546C169.984 110.424 170.105 110.302 170.105 110.181L170.227 109.693L169.862 109.571C169.618 109.45 169.374 109.45 169.131 109.45H168.644C168.522 109.45 168.4 109.571 168.278 109.693C168.156 109.815 168.156 109.937 168.156 110.059C168.156 110.302 168.156 110.546 168.278 110.668C168.522 110.79 168.765 110.911 168.887 110.911V110.911ZM175.831 111.764C175.831 112.008 175.709 112.251 175.465 112.373C175.343 112.495 175.1 112.617 174.856 112.739C174.613 112.861 174.369 112.861 174.125 112.861C173.882 112.861 173.516 112.861 173.273 112.739C172.907 112.617 172.542 112.495 172.298 112.373C172.054 112.251 171.811 112.13 171.689 111.886L171.933 111.155C172.054 111.277 172.298 111.521 172.542 111.642C172.785 111.764 173.029 111.886 173.394 112.008C173.76 112.13 174.003 112.13 174.247 112.008C174.491 111.886 174.613 111.764 174.734 111.521C174.734 111.277 174.734 111.155 174.613 110.911C174.491 110.79 174.247 110.668 173.76 110.546L173.151 110.424L173.273 109.693L173.882 109.815C174.247 109.937 174.491 109.937 174.613 109.815C174.856 109.693 174.856 109.571 174.978 109.45C174.978 109.206 174.978 108.962 174.856 108.841C174.734 108.719 174.491 108.597 174.247 108.475C174.003 108.353 173.638 108.353 173.394 108.353C173.151 108.353 172.907 108.475 172.663 108.475L172.907 107.744C173.151 107.622 173.273 107.622 173.638 107.622C173.882 107.622 174.247 107.622 174.613 107.744C175.222 107.866 175.709 108.11 175.953 108.353C176.196 108.597 176.318 108.962 176.196 109.45C176.074 109.815 175.953 110.059 175.709 110.181C175.465 110.302 175.222 110.424 174.856 110.302C175.222 110.424 175.587 110.668 175.709 110.911C175.953 111.155 175.953 111.399 175.831 111.764V111.764ZM179.12 114.079C178.754 113.957 178.511 113.835 178.267 113.591C178.023 113.348 177.902 113.104 177.78 112.739L177.171 115.297L176.074 115.053L177.658 108.475L178.633 108.719L178.511 109.571C178.754 109.328 178.998 109.084 179.363 109.084C179.607 108.962 179.973 108.962 180.46 109.084C180.703 109.206 180.947 109.206 181.191 109.45C181.434 109.571 181.556 109.815 181.8 110.059C181.922 110.302 182.043 110.546 182.043 110.911C182.043 111.277 182.043 111.642 181.922 112.008C181.8 112.373 181.678 112.739 181.434 113.104C181.191 113.348 181.069 113.591 180.825 113.835L180.094 114.201C179.607 114.201 179.363 114.201 179.12 114.079V114.079ZM178.998 113.226C179.363 113.348 179.729 113.226 179.973 112.982C180.216 112.739 180.46 112.373 180.582 111.764C180.703 111.155 180.703 110.668 180.582 110.302C180.46 109.937 180.094 109.815 179.729 109.693H179.242C179.12 109.693 178.876 109.815 178.754 109.937C178.633 110.059 178.511 110.181 178.389 110.424C178.267 110.668 178.145 110.911 178.145 111.155C178.023 111.521 178.023 111.764 178.023 112.008C178.023 112.251 178.145 112.495 178.145 112.617C178.267 112.739 178.389 112.982 178.511 112.982C178.633 113.104 178.754 113.226 178.998 113.226V113.226ZM184.845 115.419V114.688L184.602 114.931C184.48 115.053 184.358 115.053 184.236 115.175C184.114 115.175 183.993 115.297 183.749 115.297C183.627 115.297 183.383 115.297 183.14 115.175C182.896 115.175 182.774 115.053 182.531 114.931L182.165 114.566C182.043 114.444 182.043 114.201 181.922 114.079V113.47C182.043 112.982 182.287 112.617 182.774 112.495C183.262 112.373 183.871 112.373 184.845 112.617L185.333 112.739L185.454 112.373C185.576 112.008 185.454 111.764 185.333 111.642C185.211 111.399 184.967 111.277 184.602 111.277C184.236 111.155 183.993 111.155 183.627 111.155C183.383 111.155 183.018 111.277 182.774 111.399L183.018 110.668C183.14 110.546 183.505 110.546 183.749 110.424C184.114 110.424 184.48 110.424 184.845 110.546C185.454 110.668 185.942 110.911 186.307 111.277C186.551 111.642 186.673 112.13 186.551 112.617L185.942 115.053C185.942 115.175 185.942 115.297 185.82 115.419V115.784L184.845 115.419V115.419ZM183.749 114.444H184.236C184.358 114.444 184.48 114.322 184.602 114.322C184.723 114.201 184.845 114.201 184.845 114.079C184.967 113.957 184.967 113.835 184.967 113.713L185.089 113.226L184.723 113.104C184.48 112.982 184.236 112.982 183.993 112.982H183.505C183.383 112.982 183.262 113.104 183.14 113.226C183.018 113.348 183.018 113.47 183.018 113.591C183.018 113.835 183.018 114.079 183.14 114.201C183.383 114.322 183.505 114.322 183.749 114.444V114.444ZM192.033 114.566C191.911 114.931 191.789 115.297 191.545 115.541C191.302 115.784 191.058 116.028 190.814 116.15C190.571 116.271 190.205 116.393 189.962 116.393H188.987C188.622 116.271 188.378 116.15 188.013 116.028C187.769 115.784 187.525 115.541 187.403 115.297C187.282 115.053 187.16 114.688 187.16 114.322C187.16 113.957 187.16 113.47 187.282 112.982C187.403 112.617 187.525 112.251 187.525 111.886C187.647 111.521 187.769 111.277 187.891 110.911C188.013 110.546 188.256 110.424 188.5 110.181C188.743 109.937 188.987 109.815 189.231 109.693C189.596 109.571 189.962 109.45 190.327 109.571C190.693 109.693 191.058 109.693 191.423 109.693C191.789 109.693 192.033 109.815 192.154 109.815H192.642L192.398 110.668C192.276 110.668 192.033 110.79 191.911 110.79C191.667 110.79 191.545 110.79 191.302 110.668C190.936 110.668 190.571 110.546 190.327 110.546C190.083 110.546 189.718 110.546 189.474 110.668C189.109 110.79 188.865 111.033 188.743 111.277C188.622 111.521 188.378 112.008 188.256 112.495C188.5 112.13 188.743 111.886 189.109 111.764C189.474 111.642 189.84 111.642 190.327 111.764C190.693 111.886 190.936 112.008 191.18 112.13C191.423 112.251 191.667 112.495 191.789 112.739C191.911 112.982 192.033 113.226 192.033 113.591C192.154 113.835 192.154 114.201 192.033 114.566V114.566ZM189.231 115.662C189.596 115.784 189.962 115.662 190.205 115.419C190.449 115.175 190.693 114.81 190.814 114.201C190.936 113.591 190.936 113.226 190.814 112.861C190.693 112.495 190.327 112.373 189.962 112.251C189.596 112.13 189.231 112.251 188.987 112.495C188.622 112.739 188.5 113.104 188.256 113.713C188.134 114.322 188.134 114.81 188.256 115.053C188.5 115.419 188.865 115.541 189.231 115.662V115.662ZM194.347 117.733C193.982 117.611 193.738 117.49 193.373 117.368C193.129 117.246 192.885 117.002 192.763 116.759C192.642 116.515 192.52 116.15 192.398 115.906C192.398 115.541 192.398 115.175 192.52 114.81C192.642 114.444 192.763 114.079 193.007 113.835C193.251 113.591 193.494 113.348 193.738 113.226C193.982 113.104 194.347 112.982 194.591 112.982C194.956 112.982 195.2 112.982 195.565 113.104C195.931 113.226 196.174 113.348 196.54 113.47C196.783 113.591 197.027 113.835 197.149 114.079C197.271 114.322 197.393 114.688 197.514 114.931C197.514 115.297 197.514 115.662 197.393 116.028C197.271 116.393 197.149 116.759 196.905 117.002C196.662 117.246 196.418 117.49 196.174 117.611C195.931 117.733 195.565 117.855 195.322 117.855C195.078 117.855 194.713 117.855 194.347 117.733ZM194.591 117.002H195.2C195.322 117.002 195.565 116.881 195.687 116.759C195.809 116.637 195.931 116.515 196.053 116.271C196.174 116.028 196.296 115.784 196.296 115.541C196.418 115.175 196.418 114.931 196.418 114.688C196.418 114.444 196.296 114.201 196.296 114.079L195.931 113.713C195.809 113.591 195.565 113.591 195.443 113.47H194.956C194.834 113.47 194.591 113.591 194.469 113.713C194.347 113.835 194.225 113.957 194.103 114.201C193.982 114.444 193.86 114.688 193.86 114.931C193.738 115.297 193.738 115.541 193.738 115.784C193.738 116.028 193.86 116.271 193.86 116.393L194.225 116.759C194.225 116.881 194.347 116.881 194.591 117.002ZM200.682 114.931L199.707 118.951L198.611 118.708L199.585 114.688L198.123 114.322L198.367 113.591L202.387 114.566L202.143 115.297L200.682 114.931V114.931ZM205.92 120.413L204.823 120.17L205.311 118.099C205.067 118.221 204.945 118.221 204.702 118.221C204.458 118.221 204.214 118.221 203.849 118.099C203.362 117.977 202.996 117.733 202.753 117.368C202.509 117.002 202.509 116.515 202.631 115.906L202.996 114.566L204.093 114.81L203.727 116.271C203.605 116.637 203.605 116.881 203.727 117.002C203.849 117.124 204.092 117.368 204.336 117.368C204.58 117.368 204.702 117.49 204.823 117.49C204.945 117.49 205.189 117.49 205.311 117.368L205.798 115.297L206.894 115.541L205.92 120.413V120.413ZM208.356 119.561L211.523 116.637L212.498 116.881L211.402 121.631L210.305 121.388L211.158 117.977L207.991 120.9L207.016 120.657L208.112 115.906L209.209 116.15L208.356 119.561ZM214.691 117.368L213.594 122.119L212.498 121.875L213.594 117.124L214.691 117.368ZM215.422 119.926L216.762 122.971L215.543 122.606L214.325 119.804L216.883 117.855L217.98 118.099L215.422 119.926V119.926ZM79.1074 133.813L81.3001 127.844L82.3965 127.6L83.9801 134.179L82.7619 134.422L81.5438 129.306L79.3511 135.275L78.2547 135.519L76.6711 128.94L77.8892 128.697L79.1074 133.813ZM87.7565 131.011L85.6856 131.499L86.1728 133.57L85.0765 133.813L83.8583 129.062L84.9547 128.819L85.4419 130.768L87.5128 130.28L87.0256 128.331L88.1219 128.088L89.3401 132.839L88.2437 133.082L87.7565 131.011ZM91.2892 132.351L90.071 132.717L91.2892 129.793L89.0965 127.966L90.1928 127.722L92.5074 129.671L91.2892 132.351V132.351ZM92.8728 126.87L94.091 131.62L92.9946 131.864L91.7765 127.113L92.8728 126.87ZM94.5783 128.819L97.0146 130.89L95.7965 131.255L93.6037 129.306L94.7001 126.504L95.7965 126.26L94.5783 128.819V128.819ZM101.4 129.428L100.913 129.915C100.669 130.159 100.304 130.28 99.9383 130.402C99.0855 130.646 98.3546 130.524 97.8674 130.28C97.3801 129.915 96.8928 129.428 96.771 128.575C96.6492 128.21 96.6492 127.844 96.6492 127.479C96.6492 127.113 96.771 126.87 96.8928 126.626C97.0146 126.382 97.2583 126.139 97.5019 125.895C97.7455 125.651 98.111 125.53 98.3546 125.53C98.7201 125.408 99.0855 125.408 99.3292 125.408C99.6946 125.408 99.9383 125.53 100.182 125.773C100.426 126.017 100.669 126.26 100.791 126.504C100.913 126.87 101.035 127.235 101.035 127.722L97.7455 128.575C97.8674 129.062 98.111 129.428 98.4764 129.55C98.8419 129.671 99.2074 129.793 99.6946 129.671C100.06 129.55 100.304 129.428 100.547 129.306C100.791 129.184 100.913 128.94 101.156 128.819L101.4 129.428ZM98.4764 126.139C98.111 126.26 97.8674 126.382 97.7455 126.748C97.6237 126.991 97.5019 127.357 97.6237 127.844L99.9383 127.235C99.8164 126.748 99.6946 126.382 99.451 126.26C99.0855 126.017 98.8419 126.017 98.4764 126.139V126.139ZM105.055 126.626L102.984 127.113L103.471 129.184L102.375 129.428L101.156 124.677L102.253 124.433L102.74 126.382L104.811 125.895L104.324 123.946L105.42 123.702L106.638 128.453L105.542 128.697L105.055 126.626ZM111.633 126.87L111.146 127.357C110.902 127.6 110.536 127.722 110.171 127.844C109.318 128.088 108.587 127.966 108.1 127.6C107.613 127.235 107.126 126.748 107.004 125.895C106.882 125.53 106.882 125.164 106.882 124.799C106.882 124.433 107.004 124.19 107.126 123.946C107.247 123.702 107.491 123.459 107.735 123.215C107.978 122.971 108.344 122.85 108.587 122.85C108.953 122.728 109.318 122.728 109.562 122.728C109.927 122.728 110.171 122.85 110.415 123.093C110.658 123.337 110.902 123.58 111.024 123.824C111.146 124.19 111.267 124.555 111.267 125.042L107.978 125.895C108.1 126.382 108.344 126.748 108.709 126.87C109.075 126.991 109.44 127.113 109.927 126.991C110.293 126.87 110.536 126.748 110.78 126.626C111.024 126.504 111.146 126.26 111.389 126.139L111.633 126.87V126.87ZM108.709 123.58C108.344 123.702 108.1 123.824 107.978 124.19C107.856 124.433 107.735 124.799 107.856 125.286L110.171 124.677C110.049 124.19 109.927 123.824 109.684 123.702C109.318 123.459 109.075 123.459 108.709 123.58V123.58ZM115.287 126.382C114.922 126.504 114.556 126.504 114.313 126.382C114.069 126.26 113.704 126.139 113.582 125.895L114.191 128.453L113.095 128.697L111.511 122.241L112.485 121.997L112.851 122.85C112.973 122.484 113.095 122.24 113.338 121.997C113.582 121.753 113.825 121.631 114.191 121.51C114.435 121.388 114.8 121.388 115.044 121.51C115.287 121.51 115.531 121.631 115.775 121.753C116.018 121.875 116.262 122.119 116.384 122.362C116.627 122.606 116.749 122.971 116.871 123.459C116.993 123.824 116.993 124.311 116.993 124.555C116.984 124.851 116.902 125.139 116.753 125.395C116.604 125.65 116.393 125.864 116.14 126.017C115.896 126.26 115.653 126.382 115.287 126.382ZM114.922 125.773C115.287 125.651 115.531 125.53 115.775 125.164C116.018 124.799 115.896 124.311 115.775 123.702C115.653 123.093 115.409 122.728 115.044 122.484C114.8 122.241 114.435 122.241 114.069 122.241C113.825 122.241 113.704 122.362 113.582 122.484L113.216 122.85C113.095 122.971 113.095 123.215 113.095 123.459C113.095 123.702 113.095 123.946 113.216 124.311C113.338 124.677 113.338 124.92 113.46 125.042C113.582 125.164 113.704 125.408 113.825 125.53C113.947 125.651 114.191 125.651 114.313 125.773H114.922V125.773ZM118.82 120.413L122.962 119.439L124.18 124.19L123.084 124.433L122.109 120.413L120.16 120.9L121.135 124.92L120.038 125.164L118.82 120.413V120.413ZM127.469 123.459C127.104 123.581 126.86 123.58 126.495 123.58C126.129 123.58 125.885 123.459 125.642 123.337C125.398 123.215 125.155 122.971 124.911 122.728C124.667 122.484 124.545 122.119 124.424 121.753C124.302 121.388 124.302 121.022 124.302 120.657C124.302 120.291 124.424 120.048 124.667 119.804C124.789 119.561 125.033 119.317 125.276 119.195C125.52 119.073 125.885 118.83 126.129 118.83C126.495 118.708 126.86 118.708 127.104 118.708C127.469 118.708 127.713 118.83 127.956 118.951C128.2 119.073 128.444 119.317 128.687 119.561C128.931 119.804 129.053 120.17 129.175 120.535C129.296 120.901 129.296 121.266 129.296 121.631C129.296 121.997 129.175 122.241 128.931 122.484C128.687 122.728 128.565 122.971 128.322 123.215C128.078 123.215 127.713 123.337 127.469 123.459ZM127.225 122.728C127.469 122.728 127.591 122.606 127.713 122.484L128.078 122.119C128.2 121.997 128.2 121.753 128.2 121.51C128.2 121.266 128.2 121.022 128.078 120.657C127.956 120.291 127.956 120.048 127.835 119.926C127.713 119.682 127.591 119.561 127.469 119.439C127.347 119.317 127.104 119.317 126.982 119.195H126.373C126.251 119.195 126.007 119.317 125.885 119.439L125.52 119.804C125.52 120.048 125.398 120.17 125.398 120.413C125.398 120.657 125.398 120.901 125.52 121.266C125.642 121.631 125.642 121.875 125.764 121.997C125.885 122.24 126.007 122.362 126.129 122.484C126.251 122.606 126.495 122.606 126.616 122.728H127.225ZM82.3965 142.34L83.371 146.36L82.2747 146.604L81.3001 142.584L79.8383 142.95L79.5947 142.219L83.6147 141.244L83.8583 141.975L82.3965 142.34V142.34ZM89.3401 144.411L88.8528 144.899C88.6092 145.02 88.2438 145.264 87.8783 145.386C87.0256 145.63 86.2947 145.508 85.8074 145.142C85.3201 144.777 84.8328 144.29 84.711 143.437C84.5892 143.071 84.5892 142.706 84.5892 142.34C84.5892 141.975 84.711 141.731 84.8329 141.488C84.9547 141.244 85.1983 141 85.4419 140.757C85.6856 140.513 86.051 140.391 86.2947 140.391C86.6601 140.27 87.0256 140.27 87.2692 140.27C87.6347 140.27 87.8783 140.391 88.1219 140.635C88.3656 140.879 88.6092 141.122 88.731 141.366C88.8528 141.731 88.9747 142.097 88.9747 142.584L85.6856 143.437C85.8074 143.924 86.051 144.29 86.4165 144.411C86.7819 144.533 87.1474 144.655 87.6347 144.533C88.0001 144.411 88.2438 144.29 88.4874 144.168C88.731 144.046 88.8528 143.802 89.0965 143.68L89.3401 144.411V144.411ZM86.4165 141.122C86.051 141.244 85.8074 141.366 85.6856 141.731C85.5638 141.975 85.4419 142.34 85.5638 142.828L87.8783 142.219C87.7565 141.731 87.6347 141.366 87.391 141.244C87.0256 141.122 86.7819 141.122 86.4165 141.122V141.122ZM92.6292 144.168C92.2637 144.29 91.8983 144.29 91.5328 144.29C91.1674 144.29 90.9237 144.168 90.6801 144.046C90.4365 143.924 90.1928 143.68 89.9492 143.437C89.7056 143.193 89.5837 142.828 89.4619 142.462C89.3401 142.097 89.3401 141.731 89.3401 141.366C89.3401 141 89.4619 140.757 89.7056 140.513C89.8274 140.27 90.071 140.026 90.4365 139.782C90.6801 139.539 91.0456 139.417 91.411 139.417C91.7765 139.295 92.0201 139.295 92.2637 139.295C92.5074 139.295 92.751 139.295 92.9946 139.417L93.2383 140.148C92.751 140.026 92.2637 140.026 91.7765 140.148C90.8019 140.391 90.4365 141.122 90.6801 142.219C90.9237 143.315 91.5328 143.802 92.5074 143.559C92.751 143.437 92.9946 143.437 93.2383 143.315C93.4819 143.193 93.6037 143.071 93.8474 142.828L94.091 143.559C93.9692 143.68 93.8474 143.924 93.6037 144.046C93.2383 143.924 92.9946 144.046 92.6292 144.168V144.168ZM96.0401 138.93L97.0146 142.95L95.9183 143.193L94.9437 139.173L93.4819 139.539L93.2383 138.808L97.2583 137.833L97.5019 138.564L96.0401 138.93V138.93ZM99.9383 140.757L101.4 136.737L102.375 136.493L103.593 141.244L102.496 141.488L101.644 138.077L100.182 142.097L99.2074 142.34L97.9892 137.59L99.0855 137.346L99.9383 140.757ZM107.369 140.513C107.004 140.635 106.638 140.635 106.395 140.513C106.151 140.391 105.786 140.27 105.664 140.026L106.273 142.584L105.176 142.828L103.593 136.371L104.567 136.128L104.933 136.98C105.055 136.615 105.176 136.371 105.42 136.128C105.664 135.884 105.907 135.762 106.273 135.64C106.516 135.519 106.882 135.519 107.126 135.64C107.369 135.762 107.613 135.762 107.856 135.884C108.1 136.006 108.344 136.25 108.466 136.493C108.709 136.737 108.831 137.102 108.953 137.59C109.075 137.955 109.075 138.442 109.075 138.686C109.066 138.981 108.984 139.27 108.835 139.526C108.686 139.781 108.475 139.995 108.222 140.148C107.856 140.27 107.613 140.391 107.369 140.513ZM106.882 139.782C107.247 139.66 107.491 139.539 107.735 139.173C107.856 138.808 107.856 138.32 107.735 137.711C107.613 137.102 107.369 136.737 107.004 136.493C106.76 136.25 106.395 136.25 106.029 136.25C105.786 136.25 105.664 136.371 105.542 136.493L105.176 136.859C105.055 136.98 105.055 137.224 105.055 137.468C105.055 137.711 105.055 137.955 105.176 138.32C105.298 138.686 105.298 138.93 105.42 139.051C105.542 139.295 105.664 139.417 105.786 139.539C105.907 139.66 106.151 139.782 106.273 139.782C106.516 139.904 106.76 139.782 106.882 139.782V139.782ZM112.364 139.173C111.998 139.295 111.633 139.295 111.389 139.295C111.024 139.295 110.78 139.173 110.536 139.051C110.293 138.93 110.049 138.686 109.806 138.442C109.562 138.199 109.44 137.833 109.318 137.468C109.196 137.102 109.196 136.737 109.196 136.371C109.196 136.006 109.318 135.762 109.562 135.519C109.684 135.275 109.927 135.031 110.171 134.91C110.415 134.788 110.78 134.544 111.024 134.544C111.389 134.422 111.755 134.422 111.998 134.422C112.242 134.422 112.607 134.544 112.851 134.666C113.095 134.788 113.338 135.031 113.582 135.275C113.825 135.519 113.947 135.884 114.069 136.25C114.191 136.615 114.191 136.98 114.191 137.346C114.191 137.711 114.069 137.955 113.825 138.199C113.704 138.442 113.46 138.686 113.216 138.93C113.095 139.051 112.729 139.173 112.364 139.173ZM112.242 138.442C112.486 138.442 112.607 138.32 112.729 138.199L113.095 137.833C113.216 137.711 113.216 137.468 113.216 137.224C113.216 136.98 113.216 136.737 113.095 136.371C112.973 136.006 112.973 135.762 112.851 135.64C112.729 135.397 112.607 135.275 112.485 135.153C112.364 135.031 112.12 135.031 111.998 134.91H111.389C111.267 134.91 111.024 135.031 110.902 135.153L110.536 135.519C110.415 135.64 110.415 135.884 110.415 136.128C110.415 136.371 110.415 136.615 110.536 136.98C110.658 137.346 110.658 137.59 110.78 137.711C110.902 137.833 111.024 138.077 111.146 138.199C111.267 138.32 111.511 138.32 111.633 138.442C111.876 138.564 111.998 138.564 112.242 138.442ZM114.435 133.57L116.505 133.082C117.115 132.96 117.602 132.96 117.967 133.082C118.333 133.204 118.576 133.448 118.698 133.935C118.82 134.179 118.698 134.422 118.698 134.666C118.576 134.91 118.455 135.031 118.211 135.153C118.942 135.031 119.429 135.397 119.551 136.006C119.551 136.25 119.673 136.493 119.551 136.615C119.551 136.859 119.429 136.98 119.307 137.102C119.185 137.224 118.942 137.346 118.698 137.468C118.455 137.59 118.211 137.711 117.845 137.711L115.896 138.199L114.435 133.57V133.57ZM115.653 133.935L116.018 135.275L116.749 135.031C116.993 134.91 117.236 134.91 117.358 134.666C117.48 134.544 117.48 134.3 117.48 134.179C117.358 133.935 117.236 133.691 117.115 133.691C116.993 133.57 116.749 133.57 116.505 133.691L115.653 133.935V133.935ZM116.14 135.884L116.505 137.346L117.358 137.102L118.089 136.737C118.211 136.615 118.333 136.371 118.211 136.128C118.089 135.884 117.967 135.762 117.845 135.64C117.602 135.519 117.358 135.519 117.115 135.64L116.14 135.884ZM123.327 136.371C123.205 136.25 123.084 136.006 122.962 135.64C122.962 135.762 122.84 135.884 122.84 136.006C122.84 136.128 122.718 136.25 122.596 136.371L122.231 136.737C122.109 136.859 121.865 136.859 121.622 136.98C121.378 136.98 121.256 137.102 121.013 137.102C120.769 137.102 120.647 137.102 120.525 136.98L120.16 136.615C120.038 136.493 119.916 136.25 119.916 136.006C119.795 135.519 119.916 135.031 120.282 134.666C120.647 134.3 121.256 134.057 122.109 133.813L122.596 133.691L122.475 133.326C122.353 132.96 122.231 132.839 122.109 132.717C121.987 132.595 121.622 132.595 121.256 132.717C120.891 132.839 120.647 132.96 120.404 133.082C120.16 133.204 119.916 133.448 119.795 133.57L119.551 132.839C119.673 132.717 119.916 132.473 120.16 132.351C120.404 132.23 120.769 131.986 121.256 131.986C121.865 131.864 122.475 131.864 122.84 131.986C123.205 132.108 123.571 132.473 123.693 133.082L124.302 135.519C124.302 135.64 124.424 135.762 124.424 135.884C124.424 136.006 124.545 136.128 124.545 136.25L123.327 136.371V136.371ZM121.744 136.128C121.987 136.128 122.109 136.006 122.231 135.884C122.353 135.762 122.475 135.64 122.475 135.519C122.596 135.397 122.596 135.275 122.596 135.153V134.788L122.475 134.3L122.109 134.422C121.865 134.544 121.622 134.544 121.378 134.666C121.135 134.788 121.013 134.788 120.891 134.91C120.769 135.031 120.769 135.153 120.769 135.275V135.64C120.891 135.884 120.891 136.128 121.135 136.128H121.744V136.128ZM127.835 133.082L125.764 133.57L126.251 135.64L125.155 135.884L123.936 131.133L125.033 130.89L125.52 132.839L127.591 132.351L127.104 130.402L128.2 130.159L129.418 134.91L128.322 135.153L127.835 133.082ZM131.245 132.96L132.829 128.94L133.804 128.697L135.022 133.448L133.925 133.691L133.073 130.28L131.611 134.3L130.636 134.544L129.418 129.793L130.515 129.55L131.245 132.96ZM141.722 129.306C141.844 129.671 141.844 130.037 141.844 130.402C141.835 130.698 141.753 130.987 141.604 131.242C141.455 131.497 141.244 131.711 140.991 131.864C140.747 131.986 140.382 132.23 140.138 132.23C139.895 132.351 139.529 132.351 139.285 132.351C139.042 132.351 138.676 132.23 138.433 132.108C138.189 131.986 137.945 131.742 137.824 131.499C137.702 131.255 137.458 131.011 137.336 130.646L136.605 130.768L137.093 132.839L135.996 133.082L134.778 128.331L135.875 128.088L136.362 130.037L137.093 129.915V128.94C137.215 128.697 137.215 128.453 137.458 128.21L138.067 127.6C138.311 127.479 138.555 127.357 138.92 127.235C139.285 127.113 139.529 127.113 139.895 127.113C140.26 127.113 140.504 127.235 140.747 127.357C140.991 127.479 141.235 127.722 141.478 127.966C141.478 128.575 141.722 128.94 141.722 129.306V129.306ZM139.895 131.62C140.26 131.499 140.504 131.377 140.625 131.011C140.747 130.646 140.747 130.159 140.625 129.671C140.504 129.062 140.26 128.697 140.016 128.453C139.773 128.21 139.407 128.21 139.042 128.21C138.676 128.331 138.433 128.453 138.311 128.819C138.189 129.184 138.189 129.55 138.311 130.159C138.433 130.768 138.676 131.133 138.92 131.377C139.164 131.62 139.529 131.62 139.895 131.62Z" fill="#1A1B22"/>
<path fill-rule="evenodd" clip-rule="evenodd" d="M223.217 185.83C206.406 170.602 203.726 150.868 201.534 147.092C198.975 142.828 196.052 138.808 192.032 135.884C186.428 131.864 174.368 125.408 174.734 117.003C174.977 112.374 179.728 109.45 184.601 110.546C190.205 111.886 196.295 117.612 201.534 119.683C211.523 123.703 229.674 126.504 239.419 137.59" fill="white"/>
<path d="M223.217 185.83C206.406 170.602 203.726 150.868 201.534 147.092C198.975 142.828 196.052 138.808 192.032 135.884C186.428 131.864 174.368 125.408 174.734 117.003C174.977 112.374 179.728 109.45 184.601 110.546C190.205 111.886 196.295 117.612 201.534 119.683C211.523 123.703 229.674 126.504 239.419 137.59" stroke="#1A1B22" stroke-miterlimit="62.12" stroke-linecap="round" stroke-linejoin="round"/>
<path d="M54.6221 37.9434L123.693 35.0197M146.595 23.9343L212.447 42.9956" stroke="#1A1B22" stroke-miterlimit="10"/>
<path d="M61.6859 34.1655C62.3966 34.1655 63.0783 33.8831 63.5809 33.3805C64.0835 32.8779 64.3658 32.1963 64.3658 31.4855C64.3658 30.7747 64.0835 30.0931 63.5809 29.5905C63.0783 29.0879 62.3966 28.8055 61.6859 28.8055C60.9751 28.8055 60.2934 29.0879 59.7908 29.5905C59.2882 30.0931 59.0059 30.7747 59.0059 31.4855C59.0059 32.1963 59.2882 32.8779 59.7908 33.3805C60.2934 33.8831 60.9751 34.1655 61.6859 34.1655V34.1655ZM68.7513 33.8C69.4621 33.8 70.1437 33.5177 70.6463 33.0151C71.1489 32.5125 71.4313 31.8308 71.4313 31.12C71.4313 30.4093 71.1489 29.7276 70.6463 29.225C70.1437 28.7224 69.4621 28.4401 68.7513 28.4401C68.0405 28.4401 67.3588 28.7224 66.8562 29.225C66.3537 29.7276 66.0713 30.4093 66.0713 31.12C66.0713 31.8308 66.3537 32.5125 66.8562 33.0151C67.3588 33.5177 68.0405 33.8 68.7513 33.8V33.8ZM75.6949 33.8C76.4057 33.8 77.0874 33.5177 77.5899 33.0151C78.0925 32.5125 78.3749 31.8308 78.3749 31.12C78.3749 30.4093 78.0925 29.7276 77.5899 29.225C77.0874 28.7224 76.4057 28.4401 75.6949 28.4401C74.9841 28.4401 74.3025 28.7224 73.7999 29.225C73.2973 29.7276 73.0149 30.4093 73.0149 31.12C73.0149 31.8308 73.2973 32.5125 73.7999 33.0151C74.3025 33.5177 74.9841 33.8 75.6949 33.8V33.8ZM155.851 22.9583C156.562 22.9583 157.243 22.6759 157.746 22.1733C158.249 21.6707 158.531 20.989 158.531 20.2783C158.531 19.5675 158.249 18.8858 157.746 18.3832C157.243 17.8806 156.562 17.5983 155.851 17.5983C155.14 17.5983 154.459 17.8806 153.956 18.3832C153.453 18.8858 153.171 19.5675 153.171 20.2783C153.171 20.989 153.453 21.6707 153.956 22.1733C154.459 22.6759 155.14 22.9583 155.851 22.9583ZM162.551 24.7855C163.262 24.7855 163.943 24.5032 164.446 24.0006C164.949 23.498 165.231 22.8163 165.231 22.1055C165.231 21.3947 164.949 20.7131 164.446 20.2105C163.943 19.7079 163.262 19.4255 162.551 19.4255C161.84 19.4255 161.159 19.7079 160.656 20.2105C160.153 20.7131 159.871 21.3947 159.871 22.1055C159.871 22.8163 160.153 23.498 160.656 24.0006C161.159 24.5032 161.84 24.7855 162.551 24.7855V24.7855ZM169.251 26.9782C169.962 26.9782 170.643 26.6959 171.146 26.1933C171.649 25.6907 171.931 25.009 171.931 24.2982C171.931 23.5875 171.649 22.9058 171.146 22.4032C170.643 21.9006 169.962 21.6183 169.251 21.6183C168.54 21.6183 167.859 21.9006 167.356 22.4032C166.853 22.9058 166.571 23.5875 166.571 24.2982C166.571 25.009 166.853 25.6907 167.356 26.1933C167.859 26.6959 168.54 26.9782 169.251 26.9782Z" fill="#215EC6"/>
<path d="M161.457 83.8683L228.457 99.5828" stroke="#1A1B22" stroke-miterlimit="10"/>
<path d="M170.47 82.4067C171.181 82.4067 171.862 82.1244 172.365 81.6218C172.868 81.1192 173.15 80.4375 173.15 79.7267C173.15 79.016 172.868 78.3343 172.365 77.8317C171.862 77.3291 171.181 77.0468 170.47 77.0468C169.759 77.0468 169.077 77.3291 168.575 77.8317C168.072 78.3343 167.79 79.016 167.79 79.7267C167.79 80.4375 168.072 81.1192 168.575 81.6218C169.077 82.1244 169.759 82.4067 170.47 82.4067V82.4067ZM177.292 83.8685C178.002 83.8685 178.684 83.5862 179.187 83.0836C179.689 82.581 179.972 81.8993 179.972 81.1886C179.972 80.4778 179.689 79.7961 179.187 79.2935C178.684 78.7909 178.002 78.5086 177.292 78.5086C176.581 78.5086 175.899 78.7909 175.397 79.2935C174.894 79.7961 174.612 80.4778 174.612 81.1886C174.612 81.8993 174.894 82.581 175.397 83.0836C175.899 83.5862 176.581 83.8685 177.292 83.8685ZM183.992 85.574C184.702 85.574 185.384 85.2916 185.887 84.789C186.389 84.2864 186.672 83.6048 186.672 82.894C186.672 82.1832 186.389 81.5016 185.887 80.999C185.384 80.4964 184.702 80.214 183.992 80.214C183.281 80.214 182.599 80.4964 182.097 80.999C181.594 81.5016 181.312 82.1832 181.312 82.894C181.312 83.6048 181.594 84.2864 182.097 84.789C182.599 85.2916 183.281 85.574 183.992 85.574ZM78.9847 118.099C79.6955 118.099 80.3771 117.817 80.8797 117.314C81.3823 116.812 81.6647 116.13 81.6647 115.419C81.6647 114.709 81.3823 114.027 80.8797 113.524C80.3771 113.022 79.6955 112.739 78.9847 112.739C78.2739 112.739 77.5922 113.022 77.0896 113.524C76.587 114.027 76.3047 114.709 76.3047 115.419C76.3047 116.13 76.587 116.812 77.0896 117.314C77.5922 117.817 78.2739 118.099 78.9847 118.099V118.099ZM85.8065 116.638C86.5173 116.638 87.1989 116.355 87.7015 115.853C88.2041 115.35 88.4865 114.668 88.4865 113.958C88.4865 113.247 88.2041 112.565 87.7015 112.063C87.1989 111.56 86.5173 111.278 85.8065 111.278C85.0957 111.278 84.414 111.56 83.9114 112.063C83.4088 112.565 83.1265 113.247 83.1265 113.958C83.1265 114.668 83.4088 115.35 83.9114 115.853C84.414 116.355 85.0957 116.638 85.8065 116.638V116.638ZM92.6283 115.541C93.339 115.541 94.0207 115.259 94.5233 114.756C95.0259 114.254 95.3083 113.572 95.3083 112.861C95.3083 112.15 95.0259 111.469 94.5233 110.966C94.0207 110.464 93.339 110.181 92.6283 110.181C91.9175 110.181 91.2358 110.464 90.7332 110.966C90.2306 111.469 89.9483 112.15 89.9483 112.861C89.9483 113.572 90.2306 114.254 90.7332 114.756C91.2358 115.259 91.9175 115.541 92.6283 115.541V115.541Z" fill="#215EC6"/>
<path d="M73.3818 123.703L140.747 107.379" stroke="#1A1B22" stroke-miterlimit="10"/>
<path d="M101.666 169.921C102.482 165.413 101.044 161.393 98.4619 160.93C95.8794 160.468 93.1263 163.732 92.3101 168.24C91.5061 172.747 92.9314 176.767 95.514 177.23C98.0965 177.693 100.85 174.428 101.666 169.921Z" fill="#1A1B22"/>
<path d="M90.9238 165.608C92.6292 164.999 94.7001 165.365 96.1619 166.461M89.9492 170.481C90.9238 169.263 92.8728 168.897 94.2128 169.75M90.3147 174.379C90.4365 173.405 91.411 172.796 92.2638 172.674C93.2383 172.552 94.091 172.796 95.0656 173.039M104.08 166.583C102.496 165.608 100.547 165.486 98.8419 166.217M103.836 171.456C103.106 170.116 101.4 169.263 99.8165 169.75M102.618 175.232C102.618 174.257 101.887 173.526 101.035 173.161C100.182 172.796 99.2074 172.796 98.2328 172.917M99.5728 162.685C101.156 160.37 104.446 159.396 107.126 160.248M96.8928 161.954C95.7965 159.396 92.751 157.69 89.9492 158.177" stroke="#1A1B22" stroke-miterlimit="10" stroke-linecap="round" stroke-linejoin="round"/>
<path d="M129.783 156.959C130.471 156.959 131.152 156.824 131.788 156.56C132.423 156.297 133.001 155.911 133.487 155.425C133.973 154.938 134.359 154.361 134.623 153.725C134.886 153.09 135.021 152.409 135.021 151.721C135.021 151.033 134.886 150.352 134.623 149.716C134.359 149.081 133.973 148.503 133.487 148.017C133.001 147.53 132.423 147.145 131.788 146.881C131.152 146.618 130.471 146.483 129.783 146.483C128.394 146.483 127.061 147.035 126.079 148.017C125.097 148.999 124.545 150.332 124.545 151.721C124.545 153.11 125.097 154.442 126.079 155.425C127.061 156.407 128.394 156.959 129.783 156.959V156.959Z" fill="#1A1B22"/>
<path d="M122.634 154.779C122.39 153.561 122.999 152.221 123.974 151.49C124.948 150.759 126.167 150.394 127.385 150.272M126.897 141.866C126.045 142.841 125.923 144.181 126.41 145.399C126.897 146.617 127.75 147.47 128.847 148.201" stroke="#1A1B22" stroke-miterlimit="10" stroke-linecap="round" stroke-linejoin="round"/>
<path d="M158.41 137.102C159.347 137.102 160.245 136.73 160.908 136.068C161.57 135.405 161.942 134.507 161.942 133.57C161.942 132.633 161.57 131.734 160.908 131.072C160.245 130.409 159.347 130.037 158.41 130.037C157.473 130.037 156.574 130.409 155.912 131.072C155.249 131.734 154.877 132.633 154.877 133.57C154.877 134.507 155.249 135.405 155.912 136.068C156.574 136.73 157.473 137.102 158.41 137.102V137.102ZM167.79 139.295C168.727 139.295 169.625 138.923 170.288 138.26C170.95 137.598 171.322 136.699 171.322 135.762C171.322 134.825 170.95 133.927 170.288 133.264C169.625 132.602 168.727 132.23 167.79 132.23C166.853 132.23 165.954 132.602 165.292 133.264C164.629 133.927 164.257 134.825 164.257 135.762C164.257 136.699 164.629 137.598 165.292 138.26C165.954 138.923 166.853 139.295 167.79 139.295V139.295ZM177.17 141.732C178.107 141.732 179.005 141.359 179.668 140.697C180.33 140.034 180.702 139.136 180.702 138.199C180.702 137.262 180.33 136.363 179.668 135.701C179.005 135.038 178.107 134.666 177.17 134.666C176.233 134.666 175.334 135.038 174.672 135.701C174.009 136.363 173.637 137.262 173.637 138.199C173.637 139.136 174.009 140.034 174.672 140.697C175.334 141.359 176.233 141.732 177.17 141.732V141.732Z" fill="#1A1B22"/>
</g>
<defs>
<clipPath id="clip0_125_11012">
<rect width="280" height="186" fill="white"/>
</clipPath>
</defs>
</svg>
