<svg width="280" height="186" viewBox="0 0 280 186" fill="none" xmlns="http://www.w3.org/2000/svg">
<path d="M162.13 140.665L171.764 162.472C161.46 169.029 148.065 173 133.447 173C118.609 173 104.995 168.898 94.6016 162.126L104.995 140.904C114.028 145.744 124.298 148.255 134.735 148.176C151.62 147.89 162.13 140.665 162.13 140.665Z" fill="#1D6BF3"/>
<path d="M173.143 42.6012C172.519 43.506 171.707 44.2871 170.754 44.8991C169.801 45.511 168.726 45.9417 167.592 46.1661C166.478 46.3651 165.333 46.3458 164.228 46.1097C163.123 45.8735 162.084 45.4257 161.178 44.795C159.238 43.441 157.907 41.4705 157.443 39.2628C156.94 37.0056 157.305 34.6569 158.473 32.6218C161.258 33.7702 163.873 35.2447 166.252 37.0094C168.654 38.7594 170.954 40.626 173.143 42.6012V42.6012Z" fill="#1D6BF3"/>
<path d="M104.995 140.904L94.6141 162.126C104.995 168.899 118.583 173 133.446 173C148.065 173 161.447 169.03 171.763 162.472L162.129 140.653M76.1318 72.6342C78.1435 64.3528 81.9273 56.5285 87.2598 49.6233C92.3834 42.9796 99.0063 37.4468 106.669 33.4083C114.049 29.5036 122.32 27.2684 130.81 26.8851C139.3 26.5018 147.767 27.9812 155.522 31.2026C163.484 34.5321 170.552 39.4504 176.22 45.6053C182.128 52.0201 186.567 59.4798 189.267 67.5312C192.05 75.7706 193.087 84.4304 192.319 93.034C191.58 101.579 189.038 109.908 184.836 117.547" stroke="#1A1B22" stroke-linecap="round" stroke-linejoin="round"/>
<path d="M168.61 136.314L168.545 136.362C160.576 142.472 150.933 146.418 140.687 147.76C130.562 149.032 120.256 147.61 110.973 143.658C101.372 139.531 93.1176 133.132 87.0429 125.107C80.662 116.719 76.5457 107.037 75.0391 96.8735M151.055 29.6649L120.659 78.584V74.8402M120.659 78.5721L123.737 76.8313M87.0429 86.6199C87.7161 86.6324 88.3792 86.7733 88.9909 87.0338C89.6025 87.2944 90.1495 87.6689 90.5977 88.1341C91.3234 88.9116 91.8064 89.8574 91.9947 90.87C92.1831 91.8826 92.0697 92.9235 91.6667 93.8809C91.406 94.5395 91.0126 95.1464 90.5075 95.6693C90.0052 96.1701 89.4256 96.5754 88.7816 96.8496C88.1396 97.1241 87.4409 97.2664 86.7338 97.2669C86.5867 97.2656 86.4416 97.2351 86.3083 97.1775C86.175 97.1199 86.0566 97.0366 85.961 96.9331C85.7586 96.714 85.6488 96.4345 85.6519 96.1462V88.0506C85.6519 87.6691 85.7936 87.3114 86.0512 87.0372C86.1751 86.9066 86.3277 86.8019 86.4986 86.73C86.6696 86.658 86.8551 86.6205 87.0429 86.6199V86.6199Z" stroke="#1A1B22" stroke-linecap="round" stroke-linejoin="round"/>
<path d="M112.738 47.7038L109.518 48.3L123.569 52.4372L137.389 36.6753L141.343 45.3074L167.605 59.4954H164.527M109.505 48.2881L111.772 50.7918M167.605 59.4954L166.085 56.9201M141.794 69.7252L147.976 63.3703M147.976 69.7252L141.794 63.3703M142.013 66.5418H147.745M144.885 69.4867V63.585M147.294 112.623L153.476 106.28M153.476 112.635L147.294 106.28M147.526 109.464H153.244M150.385 112.397V106.519M124.329 135.384C125.321 135.384 126.12 134.549 126.12 133.536C126.12 132.522 125.321 131.7 124.329 131.7C123.351 131.7 122.539 132.522 122.539 133.536C122.539 134.549 123.338 135.372 124.342 135.372L124.329 135.384Z" stroke="#1A1B22" stroke-linecap="round" stroke-linejoin="round"/>
<path d="M84.7236 107.461C84.7236 107.461 98.0927 103.049 109.105 80.8608L137.595 102.751C126.57 124.951 113.213 129.375 113.213 129.375L84.7236 107.461Z" fill="#1D6BF3" stroke="#1D6BF3" stroke-linecap="round" stroke-linejoin="round"/>
<path d="M91.1631 107.818C91.1631 107.818 97.5128 109.953 105.292 103.884C113.084 97.8034 117.914 92.3905 121.739 95.0969C125.577 97.8034 118.455 108.152 114.939 115.008C111.41 121.887 112.955 126.609 112.955 126.609" stroke="white" stroke-linecap="round" stroke-linejoin="round"/>
<path d="M141.304 147.652L132.211 144.433L133.447 140.713L146.379 145.292L149.856 138.019C148.001 138.806 145.722 138.734 143.352 137.899C138.548 136.195 135.379 131.259 137.517 124.916C139.655 118.573 145.554 116.796 150.835 118.68C157.249 120.945 158.91 126.311 157.79 131.175L153.81 129.768C154.519 126.156 153.424 123.282 149.689 121.959C146.494 120.814 143.068 122.245 141.69 126.358C140.183 130.794 142.528 133.882 145.425 134.907C148.13 135.873 150.526 135.002 151.608 133.691L155.433 135.324L150.539 145.578M167.926 112.266L146.005 83.1263L152.419 78.0353L168.763 99.7347M182.377 97.4694L186.409 102.835L182.802 105.696M168.841 93.1057L160.984 82.6852L167.411 77.5823L170.747 82.0175M190.839 101.893L181.398 89.35M173.555 78.9415L166.677 69.7967L173.091 64.7057L183.446 78.4765M40.2245 112.731C40.2245 112.731 47.4629 105.398 57.3029 103.741C67.143 102.072 70.6978 102.191 79.7908 91.973C88.871 81.7552 105.911 67.5314 107.25 61.3315C108.577 55.1317 103.567 51.9006 96.4313 56.5386C89.296 61.2004 81.3106 71.3109 66.3831 78.1903M72.1145 66.5537C72.1145 66.5537 77.0603 47.0123 88.008 36.9137C98.9557 26.8152 116.755 24.0372 115.455 16.2635C114.167 8.48988 95.5684 15.7032 80.1128 26.3621C64.6572 37.0091 57.5863 46.0108 51.0048 56.014C44.4104 66.0053 33.54 78.6553 21.8066 81.4214" stroke="#1A1B22" stroke-linecap="round" stroke-linejoin="round"/>
<path d="M115.055 19.2677C115.3 19.2677 122.165 18.6954 122.074 23.0114C121.997 27.3156 106.889 33.4796 94.8726 37.4857C82.8559 41.4917 79.417 48.4188 79.417 48.4188" stroke="#1A1B22" stroke-linecap="round" stroke-linejoin="round"/>
<path d="M110.458 31.5123C110.458 31.5123 117.027 33.9326 115.224 37.5214C112.609 42.7436 95.0286 37.3426 88.0092 40.5021M83.7718 43.447C87.1264 42.8811 90.5846 43.1823 93.7664 44.3174C98.7122 46.225 101.069 46.9285 100.464 49.6945C99.8327 52.4725 97.45 51.9837 90.7526 50.9703C84.0551 49.9568 75.9667 55.4175 75.4258 56.8363M177.175 161.411C177.175 161.411 178.18 158.764 170.967 142.74C163.754 126.716 168.984 114.662 168.855 96.2887C168.726 77.9038 174.058 77.7726 177.304 79.418C180.562 81.0633 182.868 92.6522 182.649 109.559C182.649 114.697 186.255 118.668 186.255 124.987M188.973 111.729C188.973 111.729 202.29 90.1246 200.114 75.8531C197.924 61.5815 190.132 51.018 196.701 48.2161C203.269 45.4262 210.443 61.6292 213.882 83.0544C217.321 104.492 214.887 113.779 207.726 128.17C200.564 142.549 207.867 159.336 207.867 159.336" stroke="#1A1B22" stroke-linecap="round" stroke-linejoin="round"/>
<path d="M195.695 48.5621C195.695 48.5621 192.089 43.7572 188.006 46.6544C183.923 49.5278 188.702 59.2329 191.973 65.5759C195.232 71.9307 198.568 84.8788 198.207 91.5913" stroke="#1A1B22" stroke-linecap="round" stroke-linejoin="round"/>
<path d="M190.826 63.3706C190.826 63.3706 185.584 57.29 181.772 60.39C177.959 63.4899 185.185 70.3097 188.405 73.195C191.625 76.0803 196.107 80.301 197.408 83.222M197.459 83.7586C197.459 83.7586 193.222 78.7748 187.477 77.8329C181.72 76.903 181.166 81.8867 184.747 84.8912C188.327 87.9077 191.869 91.1149 192.333 92.8079" stroke="#1A1B22" stroke-linecap="round" stroke-linejoin="round"/>
<path d="M88.2892 48.1449C88.6756 47.668 89.0878 47.2149 89.5257 46.7738L91.8698 44.3535C92.0174 44.142 92.2485 43.9922 92.5137 43.9362C92.6462 43.9084 92.7834 43.9068 92.9166 43.9314C93.0498 43.9561 93.1758 44.0065 93.2865 44.0792L96.8671 45.355C97.8974 45.6292 98.8634 46.1538 99.6619 46.8692C100.3 47.5778 100.614 48.4889 100.538 49.4087C100.492 49.8651 100.333 50.3057 100.074 50.6964C99.8165 51.0779 99.4687 51.3998 99.0695 51.6025C98.445 51.8669 97.7574 51.9778 97.0731 51.9244C95.2237 51.8156 93.3829 51.6045 91.5606 51.2925C90.6219 51.1624 89.6758 51.0828 88.7271 51.0541C88.2763 51.0541 87.8255 51.0541 87.3619 51.1017C86.8982 51.1375 86.4088 51.3283 86.5891 50.7679C86.8192 50.308 87.0952 49.8689 87.4134 49.4564C87.6816 49.0061 87.9739 48.5684 88.2892 48.1449V48.1449ZM110.61 31.4054L114.152 33.6349C114.525 33.8376 114.847 34.1118 115.092 34.4695C115.246 34.7676 115.349 35.1014 115.375 35.4352C115.478 35.9598 115.504 36.4844 115.427 37.009C115.275 37.7039 114.853 38.3233 114.242 38.7498C113.664 39.1439 113.007 39.4276 112.31 39.5844C109.837 40.2282 107.287 40.1328 104.762 40.0255L99.9453 39.8109C99.4301 39.8109 98.1679 39.9897 97.8588 39.4055C97.6141 38.9525 98.9149 38.2132 99.2112 37.939C101.246 36.0314 103.294 35.1014 105.741 33.8376C107.33 32.9665 108.954 32.1512 110.61 31.3934V31.4054ZM190.463 71.6566C190.077 70.2259 189.588 69.0336 189.214 67.6028C188.57 65.1706 187.153 63.0364 186.381 60.6161C186.335 60.4437 186.261 60.2788 186.162 60.1273C186.017 59.9814 185.836 59.8708 185.634 59.8054C185.434 59.744 185.221 59.7317 185.015 59.7696C184.036 59.8173 183.161 59.71 182.272 60.1511C181.801 60.4684 181.442 60.9084 181.242 61.4149C180.997 61.8442 180.842 62.2972 180.752 62.7741C180.881 63.9306 181.435 64.7175 181.898 65.7906C182.375 66.7805 182.999 67.7036 183.753 68.5328C185.02 70.1443 186.505 71.5988 188.171 72.8608L189.807 74.1961C190.051 74.3988 191.095 75.4719 191.352 75.3288L190.451 71.6566H190.463ZM186.548 77.9279C185.505 77.8087 184.346 77.8445 183.586 78.5599C183.239 78.9576 182.993 79.4219 182.864 79.9191C182.736 80.428 182.727 80.9566 182.839 81.469C182.929 82.2678 183.225 83.0428 183.663 83.7105C184.474 84.8551 185.801 85.4989 186.883 86.3931C188.171 87.4423 189.163 88.8492 190.36 90.0057C191.11 90.5778 191.716 91.2938 192.138 92.1041C192.354 91.6755 192.4 91.1898 192.267 90.733C192.202 89.6719 192.254 88.6107 192.395 87.5615C192.507 85.6253 192.403 83.6837 192.086 81.7671L191.867 80.3244C191.865 80.0392 191.809 79.7567 191.7 79.4898C191.52 79.2156 191.056 79.1321 190.773 79.0129C190.348 78.8501 189.919 78.699 189.485 78.5599C188.532 78.2553 187.548 78.0435 186.548 77.9279V77.9279Z" fill="#1A1B22"/>
</svg>
