<svg width="280" height="186" viewBox="0 0 280 186" fill="none" xmlns="http://www.w3.org/2000/svg">
<path d="M138.775 149.189C174.898 149.189 204.182 119.906 204.182 83.7824C204.182 47.6591 174.898 18.3754 138.775 18.3754C102.652 18.3754 73.3682 47.6591 73.3682 83.7824C73.3682 119.906 102.652 149.189 138.775 149.189Z" stroke="#1A1B22"/>
<path d="M139.966 149.489V106.077M133.726 139.097H146.206M134.914 126.018H145.617M135.514 112.339H144.429M139.966 18.098V61.5102M133.726 28.4903H146.206M134.914 41.5695H145.617M135.514 55.2482H144.429M204.485 83.7826H161.073M194.07 90.0335V77.5428M180.991 88.8344V78.1313M167.324 88.2349V79.3193M73.0713 83.7826H116.484M83.4858 90.0335V77.5428M96.565 88.8344V78.1313M110.233 88.2349V79.3193" stroke="#1A1B22"/>
<path d="M159.584 104H120.946C121.146 95.8287 129.651 89.1337 140.265 89.1337C150.88 89.1337 159.384 95.8287 159.584 104.012V104Z" fill="#1D6BF3" stroke="#1D6BF3"/>
<path d="M154.233 80.2182C154.233 87.7681 147.982 93.8969 140.266 93.8969C132.538 93.8969 126.287 87.7681 126.287 80.2182C126.287 72.6682 132.538 66.5394 140.266 66.5394C147.982 66.5394 154.233 72.6682 154.233 80.2182Z" fill="white" stroke="#1A1B22"/>
<path d="M140.264 66.2395C132.381 66.2395 136.7 74.2669 142.64 77.5422C148.591 80.8176 154.531 80.218 154.531 80.218C154.531 72.5015 148.147 66.2395 140.264 66.2395Z" fill="white"/>
<path d="M140.265 66.2395C132.381 66.2395 136.7 74.2669 142.641 77.5422C148.592 80.8176 154.532 80.218 154.532 80.218C154.532 72.5015 148.148 66.2395 140.265 66.2395Z" fill="#1A1B22"/>
<path d="M142.641 77.5424L142.929 77.0206L142.641 77.5424ZM154.532 80.2182L154.587 80.8067L155.131 80.7623V80.2182H154.532V80.2182ZM142.929 77.0206C140.043 75.444 137.6 72.7127 136.823 70.4699C136.445 69.3596 136.512 68.4936 136.945 67.9162C137.389 67.3278 138.366 66.8393 140.265 66.8393V65.6512C138.222 65.6512 136.778 66.1731 136.001 67.1945C135.224 68.216 135.257 69.5595 135.701 70.8585C136.601 73.4455 139.288 76.3766 142.363 78.0643L142.918 77.0206H142.929ZM140.265 66.8393C147.826 66.8393 153.943 72.8348 153.943 80.2182H155.131C155.131 72.1575 148.47 65.6512 140.253 65.6512V66.8393H140.265ZM142.352 78.0643C145.776 79.9207 149.615 80.8794 153.51 80.8511C153.87 80.8485 154.229 80.8337 154.587 80.8067L154.532 80.2182L154.476 79.6298H154.421C154.118 79.6502 153.814 79.6613 153.51 79.6631C149.817 79.6898 146.177 78.7807 142.929 77.0206L142.352 78.0643V78.0643Z" fill="#1A1B22"/>
<path d="M132.836 73.9782C135.501 70.1144 136.523 67.3275 137.289 67.1388C136.001 67.2387 132.714 68.2047 129.85 71.3024C127.007 74.389 126.297 77.5422 126.297 78.7413C127.185 78.2417 129.117 79.3409 132.825 73.9671L132.836 73.9782Z" fill="#1A1B22"/>
<path d="M137.288 67.1391L137.365 67.4278L137.266 66.8394L137.288 67.1391ZM132.835 73.9785L133.08 74.145L132.835 73.9785ZM126.285 78.7305H125.996V79.2413L126.44 78.997L126.285 78.7305ZM129.86 71.2916L130.082 71.5026L129.86 71.3027V71.2916ZM137.221 66.8505C137.052 66.8987 136.899 66.9906 136.777 67.1169C136.655 67.228 136.533 67.3945 136.399 67.5721C136.144 67.9385 135.855 68.4382 135.511 69.0377C134.834 70.2368 133.912 71.8912 132.58 73.812L133.08 74.145C134.412 72.202 135.345 70.5255 136.033 69.3264C136.366 68.7268 136.655 68.2494 136.888 67.9163C136.999 67.7498 137.11 67.6277 137.188 67.5388C137.277 67.4611 137.332 67.4278 137.365 67.4278L137.221 66.8505V66.8505ZM132.58 73.812C130.748 76.4655 129.371 77.4759 128.383 77.9089C127.983 78.079 127.56 78.1912 127.129 78.242L126.618 78.3086C126.462 78.3419 126.296 78.3863 126.14 78.4752L126.429 78.997C126.523 78.9478 126.624 78.9141 126.729 78.8971L127.206 78.8305C127.584 78.7749 128.05 78.6972 128.616 78.453C129.749 77.9644 131.203 76.8541 133.069 74.145L132.58 73.812V73.812ZM137.266 66.8394C135.911 66.9504 132.547 67.9496 129.638 71.1029L130.082 71.5026C132.88 68.4715 136.1 67.5277 137.31 67.4389L137.266 66.8394V66.8394ZM129.638 71.1029C126.74 74.245 125.996 77.4648 125.996 78.7305H126.585C126.585 77.6202 127.273 74.5447 130.071 71.5026L129.638 71.1029Z" fill="#1A1B22"/>
<path d="M137.587 85.2812C138.078 85.2812 138.476 84.4809 138.476 83.4936C138.476 82.5064 138.078 81.7061 137.587 81.7061C137.097 81.7061 136.699 82.5064 136.699 83.4936C136.699 84.4809 137.097 85.2812 137.587 85.2812Z" fill="#1A1B22"/>
<path d="M143.528 85.2812C144.018 85.2812 144.416 84.4809 144.416 83.4936C144.416 82.5064 144.018 81.7061 143.528 81.7061C143.037 81.7061 142.64 82.5064 142.64 83.4936C142.64 84.4809 143.037 85.2812 143.528 85.2812Z" fill="#1A1B22"/>
<path d="M92.4101 150.222C84.6492 151.743 84.2051 166.254 84.9489 173.316H45.4227L41.9475 159.459C40.9483 154.03 38.8609 142.672 38.4612 140.718C37.9727 138.275 37.4731 130.125 37.7173 127.949C37.9727 125.773 39.9601 122.509 42.1918 121.165C43.9793 120.077 46.744 119.622 47.9098 119.533C48.3317 118.445 49.7528 115.836 52.1288 114.093C54.5271 112.361 57.9357 111.928 59.3457 111.928C60.3273 110.255 61.8005 108.925 63.5648 108.12C64.3872 107.721 65.2972 107.538 66.2097 107.586C67.1223 107.635 68.0077 107.914 68.7832 108.397C68.9608 110.473 69.194 113.282 68.7832 107.842C68.3946 102.413 69.2939 92.187 69.7824 87.7458C70.2043 81.5948 72.2251 69.2817 76.9993 69.2817C82.8949 69.2817 83.6943 87.9013 84.1939 99.6037L84.2051 99.9701C84.6048 109.319 83.5389 123.963 82.9615 130.125H104.834C112.795 130.125 117.936 131.214 119.501 131.758C120.911 132.202 124.031 133.823 125.219 136.643C126.407 139.474 120.245 142.716 117.014 143.971C112.04 145.425 100.16 148.701 92.4101 150.222Z" fill="white"/>
<path d="M90.1796 151.588L90.3128 151.854L90.1796 151.588ZM83.2181 130.126L82.9183 130.104L82.8961 130.426H83.2181V130.126V130.126ZM76.7562 69.282L76.7784 69.5707L76.7562 69.2709V69.282ZM58.603 113.538L58.3254 113.438L58.603 113.549V113.538ZM47.8332 119.522L48.1108 119.634L47.8443 119.522H47.8332ZM37.4743 131.736H37.774H37.4743ZM85.4942 173.271C85.1611 170.252 85.0167 165.555 85.6496 161.269C85.9605 159.115 86.4601 157.095 87.2262 155.429C87.9923 153.764 89.0027 152.498 90.3128 151.843L90.0352 151.31C88.5697 152.054 87.4816 153.453 86.6822 155.185C85.8657 157.098 85.3201 159.116 85.0612 161.18C84.4172 165.533 84.5726 170.285 84.9057 173.338L85.4942 173.271V173.271ZM90.3128 151.843C92.0116 150.977 95.087 150.1 98.7732 149.156C102.437 148.223 106.69 147.224 110.698 146.125C114.706 145.015 118.503 143.793 121.279 142.406C122.667 141.706 123.81 140.962 124.598 140.141C125.376 139.33 125.842 138.42 125.764 137.431L125.176 137.465C125.231 138.242 124.887 138.986 124.177 139.73C123.444 140.474 122.367 141.184 121.012 141.873C118.292 143.238 114.55 144.448 110.542 145.548C106.534 146.658 102.304 147.635 98.6178 148.579C94.9538 149.511 91.8117 150.411 90.0352 151.31L90.3128 151.843V151.843ZM125.764 137.431C125.694 136.554 125.422 135.705 124.969 134.95C124.516 134.195 123.896 133.555 123.155 133.079C121.449 131.975 119.545 131.213 117.548 130.836C113.251 129.881 108.188 129.815 104.835 129.815V130.414C108.2 130.414 113.196 130.481 117.415 131.414C119.524 131.891 121.412 132.579 122.811 133.568C123.479 133.991 124.04 134.563 124.45 135.239C124.86 135.915 125.109 136.677 125.176 137.465L125.764 137.431V137.431ZM104.835 129.815H83.2181V130.414H104.835V129.815V129.815ZM83.5179 130.137C84.2951 119.811 84.9168 104.367 84.2284 91.6099C83.8732 85.2257 83.1959 79.5077 82.0412 75.4219C81.6251 73.699 80.899 72.0662 79.8983 70.6032C79.0323 69.4707 77.9775 68.849 76.7229 68.9711L76.7784 69.5596C77.7666 69.4596 78.6326 69.9371 79.4209 70.9585C80.2203 72.0022 80.8976 73.5677 81.4749 75.5773C82.6074 79.5966 83.2847 85.2701 83.6289 91.6321C84.3284 104.356 83.7066 119.778 82.9183 130.092L83.5068 130.137H83.5179ZM76.7229 68.96C75.002 69.1376 73.6585 70.5921 72.6148 72.8127C71.549 75.0444 70.7385 78.1421 70.1167 81.7838C68.8843 89.0673 68.418 98.5714 68.3624 107.831H68.962C69.0064 98.5825 69.4838 89.1117 70.7051 81.8837C71.3269 78.2642 72.1263 75.222 73.1478 73.0681C74.1803 70.8919 75.3906 69.6928 76.7784 69.5596L76.7229 68.9711V68.96ZM68.3624 107.831C68.3291 116.025 68.6178 124.019 68.9953 130.126L69.5838 130.092C69.1355 122.684 68.9281 115.264 68.962 107.842H68.3624V107.831ZM58.3254 113.438C56.5114 118.81 55.8309 124.5 56.3269 130.148L56.9043 130.081C56.4224 124.526 57.0953 118.931 58.8806 113.649L58.3254 113.438V113.438ZM68.7621 107.554C67.2889 107.025 65.6903 106.956 64.1767 107.354C63.1 107.655 62.0988 108.18 61.238 108.893C60.3773 109.606 59.6762 110.493 59.1804 111.495L59.7022 111.784C60.1579 110.852 60.8047 110.026 61.6005 109.36C62.3962 108.695 63.3231 108.204 64.321 107.92C65.7224 107.556 67.2014 107.625 68.5623 108.12L68.7732 107.565L68.7621 107.554ZM59.1804 111.495C58.8695 112.072 58.5808 112.716 58.3254 113.438L58.8806 113.638C59.1249 112.95 59.4024 112.328 59.7022 111.784L59.1804 111.495V111.495ZM59.4579 111.34C56.8864 111.306 54.3666 112.063 52.2396 113.509C50.1127 114.954 48.4815 117.019 47.5668 119.423L48.1219 119.656C48.9941 117.37 50.5465 115.406 52.5696 114.031C54.5927 112.655 56.9892 111.932 59.4357 111.961L59.4579 111.362V111.34ZM47.5668 119.423C46.4343 122.121 45.8347 125.64 46.1234 130.159L46.7229 130.115C46.4232 125.673 47.0227 122.254 48.1108 119.656L47.5557 119.434L47.5668 119.423ZM47.8554 119.245C45.3581 119.149 42.9099 119.957 40.9606 121.521C38.6845 123.397 36.9746 126.595 37.1856 131.78L37.774 131.758C37.5742 126.728 39.2285 123.719 41.3381 121.987C43.1707 120.514 45.4723 119.75 47.8221 119.833L47.8554 119.245ZM37.1745 131.78C37.4298 138.186 39.1064 148.39 40.8384 157.095C41.7267 161.436 42.6149 165.422 43.3366 168.353C43.703 169.83 44.036 171.04 44.3025 171.917C44.4458 172.391 44.6125 172.858 44.8021 173.316C44.8488 173.409 44.9129 173.492 44.9909 173.56L45.3684 173.094L45.3351 173.027C45.2899 172.941 45.2491 172.852 45.213 172.761C45.0853 172.425 44.9705 172.084 44.8688 171.739C44.6023 170.884 44.2803 169.674 43.9139 168.209C43.0031 164.482 42.1739 160.736 41.4269 156.972C39.6948 148.279 38.0183 138.109 37.7629 131.758L37.1745 131.78V131.78Z" fill="#1A1B22" stroke="#1A1B22" stroke-width="0.5"/>
<path d="M219.439 67.6833C220.96 59.9335 235.472 59.4782 242.533 60.2332V20.707L228.677 17.2318C223.237 16.2325 211.889 14.1452 209.935 13.7455C207.493 13.2459 199.343 12.7462 197.167 13.0016C194.991 13.2459 191.727 15.2333 190.372 17.4761C189.295 19.2636 188.84 22.0282 188.751 23.194C187.663 23.6049 185.054 25.0371 183.311 27.4131C181.579 29.8003 181.146 33.2199 181.146 34.63C179.472 35.6105 178.142 37.084 177.337 38.8491C176.939 39.6715 176.755 40.5815 176.804 41.494C176.852 42.4066 177.131 43.292 177.615 44.0674C179.691 44.234 182.5 44.4671 177.06 44.0674C171.63 43.6788 161.405 44.5671 156.963 45.0667C150.812 45.4775 138.488 47.5093 138.488 52.2836C138.488 58.1792 157.119 58.9675 168.821 59.4671L169.188 59.4893C178.536 59.8779 193.181 58.8232 199.343 58.2458V80.1185C199.343 88.0681 200.431 93.2088 200.975 94.7743C201.419 96.1954 203.04 99.3042 205.861 100.503C208.692 101.691 211.923 95.5293 213.188 92.2872C214.643 87.3242 217.918 75.4442 219.439 67.6833V67.6833Z" fill="white"/>
<path d="M242.533 60.2328H242.833V60.5658L242.5 60.5214L242.533 60.2328ZM219.439 67.6828L219.151 67.6273L219.439 67.6828ZM213.199 92.2979L213.477 92.3756V92.4089L213.199 92.2979ZM205.86 100.503L205.972 100.225L205.86 100.503ZM200.975 94.7849L201.253 94.6739V94.6961L200.975 94.7849ZM199.343 58.2453L199.31 57.9456L199.643 57.9123V58.2453H199.343V58.2453ZM169.188 59.4889L169.199 59.1891V59.4889H169.188ZM168.821 59.4667L168.832 59.1669V59.4667H168.821ZM156.963 45.0662L156.997 45.366H156.986L156.963 45.0662ZM177.615 44.067L177.581 44.3668H177.448L177.371 44.2557L177.604 44.0781L177.615 44.067ZM177.337 38.8486L177.071 38.7376L177.337 38.8486ZM181.145 34.6295H181.434V34.8072L181.279 34.896L181.145 34.6295ZM188.751 23.1936L189.04 23.2158L189.029 23.4045L188.851 23.4712L188.74 23.1936H188.751ZM190.372 17.4756L190.627 17.631L190.372 17.4756ZM209.935 13.745L209.991 13.4564L209.935 13.745V13.745ZM228.677 17.2313L228.732 16.9316H228.755L228.677 17.2313V17.2313ZM242.533 20.7065L242.611 20.4179L242.833 20.4734V20.7065H242.533V20.7065ZM242.5 60.5214C237.99 60.0458 233.434 60.229 228.977 61.0655C226.645 61.554 224.502 62.2979 222.87 63.3971C222.079 63.8712 221.394 64.5018 220.856 65.2502C220.317 65.9986 219.937 66.849 219.739 67.7494L219.151 67.6384C219.363 66.6593 219.773 65.7338 220.355 64.9186C220.937 64.1034 221.68 63.4157 222.537 62.8975C224.471 61.706 226.609 60.8852 228.843 60.477C233.584 59.4778 239.014 59.5555 242.567 59.933L242.5 60.5214V60.5214ZM219.739 67.7383C218.207 75.5103 214.932 87.4126 213.477 92.3867L212.911 92.209C214.354 87.246 217.63 75.366 219.151 67.6273L219.739 67.7383V67.7383ZM213.477 92.4089C212.833 94.0299 211.701 96.4059 210.357 98.2379C209.767 99.0898 209.03 99.8304 208.181 100.425C207.404 100.914 206.571 101.125 205.738 100.769L205.972 100.214C206.56 100.47 207.193 100.359 207.859 99.9255C208.643 99.3674 209.323 98.6759 209.869 97.8826C211.111 96.113 212.136 94.2008 212.922 92.1868L213.477 92.4089ZM205.749 100.769C204.359 100.137 203.163 99.1442 202.285 97.8937C201.602 96.974 201.063 95.9557 200.687 94.8737L201.253 94.685C201.475 95.3623 201.974 96.4614 202.763 97.5384C203.562 98.6265 204.628 99.648 205.983 100.225L205.749 100.78V100.769ZM200.675 94.8848C200.12 93.2638 199.032 88.0899 199.032 80.118H199.632C199.632 88.0455 200.709 93.1528 201.242 94.685L200.687 94.8737L200.675 94.8848ZM199.032 80.118V58.2453H199.632V80.118H199.032ZM199.365 58.534C193.203 59.1225 178.536 60.1773 169.165 59.7775L169.188 59.1891C178.514 59.5777 193.148 58.5229 199.299 57.9456L199.354 58.534H199.365ZM169.165 59.7775L168.799 59.7664L168.821 59.1669L169.188 59.1891L169.165 59.7775V59.7775ZM168.799 59.7664C162.948 59.5222 155.354 59.1891 149.214 58.1898C146.541 57.8329 143.928 57.1235 141.442 56.0803C139.499 55.1699 138.188 53.9374 138.188 52.272H138.777C138.777 53.571 139.798 54.648 141.697 55.5474C143.584 56.4356 146.249 57.1018 149.302 57.6014C155.409 58.6006 162.959 58.9226 168.821 59.1669L168.799 59.7664V59.7664ZM138.188 52.272C138.188 50.9397 139.054 49.8294 140.331 48.9411C141.619 48.0529 143.385 47.3312 145.328 46.7539C149.116 45.6936 153.004 45.0275 156.93 44.7665L156.975 45.366C153.91 45.5659 149.314 46.1765 145.494 47.3201C143.791 47.7773 142.167 48.4885 140.676 49.4297C139.454 50.2846 138.788 51.2283 138.788 52.272H138.188ZM156.919 44.7665C161.36 44.2779 171.608 43.3786 177.082 43.7672L177.037 44.3668C171.63 43.9671 161.427 44.8664 156.986 45.366L156.919 44.7665ZM177.082 43.7672C178.114 43.8442 179.147 43.9183 180.18 43.9893C180.183 43.9893 180.187 43.9893 180.191 43.9893H180.168C180.129 43.9967 180.091 44.0118 180.057 44.0337C180.009 44.0706 179.968 44.1157 179.935 44.1669C179.917 44.2597 179.925 44.3558 179.957 44.4445L180.046 44.5444L180.113 44.5777H180.146H180.113L177.57 44.3668L177.626 43.7783C178.492 43.8473 179.358 43.9214 180.224 44.0004H180.302L180.368 44.0448C180.401 44.0708 180.431 44.1006 180.457 44.1336C180.49 44.2223 180.498 44.3184 180.479 44.4112C180.447 44.4623 180.405 44.5074 180.357 44.5444C180.336 44.5568 180.313 44.5679 180.291 44.5777H180.246L180.191 44.5888C179.139 44.5179 178.088 44.4439 177.037 44.3668L177.082 43.7783V43.7672ZM177.359 44.2446C176.845 43.4259 176.548 42.4897 176.495 41.5244C176.443 40.559 176.637 39.5961 177.06 38.7265L177.593 38.9708C177.213 39.7462 177.037 40.605 177.08 41.4671C177.122 42.3291 177.383 43.1663 177.837 43.9004L177.359 44.2446V44.2446ZM177.06 38.7265C177.891 36.8998 179.268 35.3755 181.001 34.3631L181.268 34.896C179.658 35.8469 178.379 37.2693 177.604 38.9708L177.049 38.7265H177.06ZM180.835 34.6184C180.835 33.1862 181.279 29.6999 183.055 27.2461L183.544 27.5903C181.856 29.9108 181.434 33.2528 181.434 34.6295H180.835V34.6184ZM183.055 27.2461C184.843 24.8035 187.496 23.3379 188.629 22.916L188.851 23.4712C187.796 23.8709 185.242 25.2698 183.544 27.5903L183.066 27.2461H183.055ZM188.44 23.1714C188.484 22.5718 188.629 21.5726 188.884 20.5067C189.151 19.4297 189.55 18.2528 190.106 17.3202L190.616 17.631C190.087 18.5725 189.698 19.5861 189.462 20.6399C189.206 21.6836 189.073 22.6495 189.029 23.2158L188.44 23.1714V23.1714ZM190.106 17.3202C190.931 16.0748 192.018 15.025 193.292 14.2447C194.442 13.4595 195.749 12.933 197.123 12.7014L197.189 13.2898C196.168 13.4119 194.858 13.956 193.614 14.7332C192.417 15.4659 191.394 16.4511 190.616 17.6199L190.117 17.3202H190.106ZM197.123 12.7014C198.233 12.5792 200.842 12.6459 203.451 12.8013C206.071 12.9567 208.736 13.201 209.98 13.4564L209.869 14.0337C207.735 13.7019 205.586 13.4869 203.429 13.3897C200.798 13.2343 198.244 13.1677 197.189 13.2898L197.123 12.7014V12.7014ZM209.98 13.4564C211.934 13.8561 223.281 15.9434 228.721 16.9316L228.61 17.52C223.181 16.5208 211.823 14.4334 209.869 14.0337L209.98 13.4564V13.4564ZM228.744 16.9316L242.589 20.4179L242.444 20.9952L228.599 17.52L228.744 16.9316ZM242.822 20.7065V60.2328H242.222V20.7065H242.822V20.7065Z" fill="white"/>
<path d="M220.805 65.4515L221.06 65.5847L220.805 65.4515ZM199.343 58.49L199.321 58.1902L199.643 58.168V58.49H199.343V58.49ZM138.5 52.0281L138.788 52.0503L138.488 52.0281H138.5ZM182.767 33.886L182.667 33.5973L182.778 33.8749L182.767 33.886ZM188.751 23.1162L188.862 23.3938L188.751 23.1162ZM200.964 12.7461V13.0459V12.7461ZM242.5 60.7772C238.508 60.3523 234.479 60.4008 230.498 60.9215C228.344 61.2324 226.323 61.7431 224.658 62.4981C222.992 63.2642 221.727 64.2746 221.06 65.5847L220.539 65.3182C221.283 63.8415 222.681 62.7646 224.414 61.9652C226.326 61.1449 228.344 60.5955 230.409 60.333C234.761 59.7002 239.513 59.8445 242.567 60.1776L242.5 60.7772ZM221.072 65.5847C220.206 67.2834 219.328 70.3589 218.385 74.0451C217.452 77.709 216.453 81.9614 215.354 85.9696C214.243 89.9888 213.022 93.786 211.634 96.5506C211.065 97.7767 210.3 98.9018 209.369 99.8815C208.559 100.659 207.648 101.114 206.649 101.047L206.693 100.448C207.471 100.503 208.214 100.159 208.958 99.4485C209.836 98.5138 210.559 97.4457 211.101 96.2841C212.467 93.575 213.677 89.8223 214.776 85.8141C215.887 81.8171 216.864 77.5758 217.807 73.9007C218.74 70.2368 219.639 67.0947 220.539 65.3182L221.06 65.5847H221.072ZM206.649 101.047C205.773 100.974 204.925 100.699 204.172 100.245C203.419 99.7902 202.781 99.1682 202.308 98.427C201.206 96.7241 200.444 94.8238 200.065 92.8311C199.11 88.5343 199.043 83.4714 199.043 80.1184H199.643C199.643 83.4714 199.71 88.4788 200.642 92.6979C201.12 94.8075 201.808 96.6949 202.796 98.0828C203.219 98.7513 203.791 99.3127 204.467 99.7231C205.143 100.133 205.905 100.381 206.693 100.448L206.649 101.047V101.047ZM199.043 80.1184V58.49H199.643V80.1184H199.043V80.1184ZM199.365 58.7897C189.04 59.5669 173.596 60.1998 160.838 59.5003C154.454 59.1561 148.736 58.4789 144.651 57.3131C142.928 56.8965 141.295 56.1704 139.832 55.1702C138.699 54.3042 138.078 53.2494 138.2 51.9948L138.788 52.0503C138.688 53.0384 139.166 53.9156 140.187 54.7039C141.591 55.6573 143.156 56.3493 144.806 56.7468C148.825 57.8904 154.499 58.5566 160.861 58.9119C173.585 59.6002 189.006 58.9785 199.321 58.1902L199.365 58.7897V58.7897ZM138.189 51.9948C138.366 50.2849 139.821 48.9415 142.041 47.8867C144.273 46.8319 147.371 46.0214 151.012 45.3997C158.296 44.1562 167.8 43.6898 177.071 43.6454V44.2339C167.811 44.2894 158.34 44.7557 151.112 45.9881C147.493 46.5988 144.451 47.3982 142.297 48.4308C140.121 49.4633 138.921 50.6735 138.788 52.0503L138.2 51.9948H138.189ZM177.06 43.6454C185.254 43.601 193.248 43.8897 199.354 44.2672L199.321 44.8667C191.913 44.4148 184.493 44.2037 177.071 44.2339V43.6454H177.06ZM182.667 33.5973C188.039 31.783 193.728 31.1025 199.377 31.5988L199.31 32.1873C196.623 31.8542 189.551 31.7875 182.878 34.1636L182.667 33.6084V33.5973ZM176.782 44.0451C176.36 42.9348 176.116 41.225 176.582 39.4485C176.884 38.3722 177.409 37.3713 178.122 36.5106C178.836 35.6499 179.722 34.9486 180.724 34.4522L181.012 34.9852C180.08 35.4409 179.255 36.0877 178.589 36.8834C177.923 37.6792 177.433 38.6061 177.149 39.604C176.784 41.0016 176.853 42.4772 177.348 43.8342L176.793 44.0562L176.782 44.0451ZM180.724 34.4633C181.301 34.1414 181.945 33.8527 182.667 33.5973L182.867 34.1525C182.178 34.4078 181.556 34.6854 181.012 34.9852L180.724 34.4633V34.4633ZM180.568 34.7298C180.537 32.1631 181.292 29.6484 182.733 27.5242C184.175 25.4001 186.232 23.7687 188.629 22.8497L188.862 23.3938C186.574 24.2666 184.61 25.8207 183.234 27.846C181.858 29.8714 181.137 32.2703 181.168 34.7187L180.568 34.7298ZM188.629 22.8497C191.327 21.7061 194.847 21.1066 199.365 21.4064L199.321 21.9948C194.88 21.7061 191.46 22.3057 188.862 23.3938L188.64 22.8386L188.629 22.8497ZM188.451 23.1273C188.358 20.6337 189.166 18.19 190.727 16.2435C192.604 13.9674 195.801 12.2465 200.986 12.4574L200.964 13.0459C195.935 12.846 192.926 14.5115 191.194 16.6099C189.718 18.4455 188.953 20.7515 189.04 23.1051L188.451 23.1273ZM200.986 12.4574C207.393 12.7017 217.596 14.3893 226.301 16.1214C230.642 16.9985 234.628 17.8868 237.559 18.6195C239.036 18.9859 240.246 19.3079 241.123 19.5744C241.598 19.7202 242.065 19.8907 242.522 20.0851C242.614 20.1287 242.697 20.189 242.767 20.2628L242.3 20.6403L242.245 20.607C242.154 20.5654 242.061 20.5283 241.967 20.4959C241.631 20.3645 241.291 20.246 240.946 20.1406C240.091 19.8853 238.881 19.5522 237.415 19.1969C234.484 18.4641 230.52 17.5759 226.179 16.7098C217.485 14.9667 207.315 13.3013 200.964 13.0459L200.986 12.4574V12.4574Z" fill="#1A1B22" stroke="#1A1B22" stroke-width="0.5" stroke-linejoin="round"/>
<path d="M224.691 108.753H172.962C170.829 108.753 169.099 110.482 169.099 112.616V145.325C169.099 147.459 170.829 149.189 172.962 149.189H224.691C226.825 149.189 228.555 147.459 228.555 145.325V112.616C228.555 110.482 226.825 108.753 224.691 108.753Z" fill="white" stroke="#1A1B22"/>
<path d="M102.803 21.9509H51.0747C48.9408 21.9509 47.2109 23.6808 47.2109 25.8147V50.7851C47.2109 52.919 48.9408 54.6489 51.0747 54.6489H102.803C104.937 54.6489 106.667 52.919 106.667 50.7851V25.8147C106.667 23.6808 104.937 21.9509 102.803 21.9509Z" fill="white" stroke="#1A1B22"/>
<path d="M52.853 28.1125C53.5192 28.1125 54.0522 27.524 54.0522 26.7912C54.0522 26.0584 53.5192 25.47 52.8641 25.47C52.198 25.47 51.665 26.0584 51.665 26.8023C51.665 27.5462 52.198 28.1125 52.853 28.1125ZM57.0166 28.1125C57.6828 28.1125 58.2157 27.524 58.2157 26.7912C58.2157 26.0584 57.6717 25.47 57.0166 25.47C56.3616 25.47 55.8286 26.0584 55.8286 26.8023C55.8286 27.5462 56.3616 28.1125 57.0166 28.1125ZM61.1802 28.1125C61.8464 28.1125 62.3682 27.524 62.3682 26.7912C62.3682 26.0584 61.8353 25.47 61.1802 25.47C60.5251 25.47 59.9922 26.0584 59.9922 26.8023C59.9922 27.5462 60.5251 28.1125 61.1802 28.1125Z" fill="#1A1B22" stroke="#1A1B22" stroke-linecap="round" stroke-linejoin="round"/>
<path d="M106.968 29.9784H47.501" stroke="#1A1B22"/>
<path fill-rule="evenodd" clip-rule="evenodd" d="M54.2976 88.2455C55.1858 88.2455 67.4101 68.6156 68.5647 62.3758C70.0192 54.4705 64.701 46.0323 54.2976 46.0323C43.5944 46.0323 38.5759 54.6593 40.0193 62.3869C41.0851 68.0382 53.3982 88.2566 54.2976 88.2566V88.2455ZM54.2976 65.0516C55.5593 65.0516 56.7695 64.5503 57.6617 63.6581C58.5539 62.7659 59.0551 61.5558 59.0551 60.294C59.0551 59.0322 58.5539 57.8221 57.6617 56.9299C56.7695 56.0377 55.5593 55.5364 54.2976 55.5364C53.0358 55.5364 51.8257 56.0377 50.9334 56.9299C50.0412 57.8221 49.54 59.0322 49.54 60.294C49.54 61.5558 50.0412 62.7659 50.9334 63.6581C51.8257 64.5503 53.0358 65.0516 54.2976 65.0516V65.0516Z" fill="white"/>
<path fill-rule="evenodd" clip-rule="evenodd" d="M54.2937 88.2458C55.1819 88.2458 67.4061 68.616 68.5608 62.3761C70.0153 54.4709 64.697 46.0327 54.2937 46.0327C43.5905 46.0327 38.572 54.6596 40.0154 62.3872C41.0812 68.0386 53.3943 88.2569 54.2937 88.2569V88.2458ZM54.2937 65.0519C55.5554 65.0519 56.7656 64.5507 57.6578 63.6585C58.55 62.7663 59.0512 61.5561 59.0512 60.2944C59.0512 59.0326 58.55 57.8225 57.6578 56.9302C56.7656 56.038 55.5554 55.5368 54.2937 55.5368C53.0319 55.5368 51.8218 56.038 50.9295 56.9302C50.0373 57.8225 49.5361 59.0326 49.5361 60.2944C49.5361 61.5561 50.0373 62.7663 50.9295 63.6585C51.8218 64.5507 53.0319 65.0519 54.2937 65.0519V65.0519Z" fill="#1D6BF3"/>
<path d="M68.5512 62.3758L67.9738 62.2648L68.5623 62.3758H68.5512ZM67.9738 62.2648C67.7074 63.7415 66.7525 66.0731 65.4313 68.7933C62.6891 74.2909 59.6192 79.6187 56.2381 84.7481C55.7291 85.5233 55.1959 86.2824 54.6393 87.0242C54.4864 87.2284 54.3233 87.4248 54.1508 87.6127C54.1161 87.6485 54.079 87.6819 54.0397 87.7126L54.0841 87.6904C54.1502 87.6597 54.2223 87.6445 54.2951 87.646V88.834C54.4033 88.8321 54.5096 88.8055 54.606 88.7563C54.6608 88.7278 54.7128 88.6944 54.7614 88.6563L55.0168 88.4343C55.8044 87.4661 56.5419 86.4581 57.2263 85.4143C60.6433 80.2407 63.743 74.8645 66.5083 69.3151C67.8295 66.5949 68.8399 64.1301 69.1507 62.4869L67.9738 62.2648ZM54.2951 46.6209C64.2877 46.6209 69.3728 54.6816 67.9738 62.2759L69.1507 62.4869C70.6718 54.2374 65.0982 45.4329 54.2951 45.4329V46.6209ZM40.6053 62.2759C39.9058 58.5565 40.7718 54.6482 43.0701 51.6616C45.3573 48.6971 49.1101 46.6209 54.284 46.6209V45.4329C48.7659 45.4329 44.6578 47.6534 42.1263 50.9399C40.8946 52.569 40.019 54.4387 39.5561 56.4279C39.0932 58.4171 39.0535 60.4813 39.4395 62.4869L40.6053 62.2648V62.2759ZM54.2951 87.646C54.4061 87.646 54.4838 87.6904 54.5172 87.6904L54.5394 87.7126C54.4998 87.6783 54.4627 87.6412 54.4283 87.6016C54.2559 87.4098 54.0928 87.2097 53.9398 87.002C53.3794 86.2415 52.8425 85.4639 52.3299 84.6704C50.7309 82.195 49.1982 79.6775 47.7333 77.1205C46.0679 74.2559 44.4135 71.2137 43.1034 68.5379C41.7822 65.8399 40.8495 63.5861 40.6053 62.2648L39.4395 62.4869C39.717 63.9858 40.7274 66.3729 42.0375 69.0598C44.8328 74.6476 47.9391 80.0743 51.3417 85.3144C51.9857 86.3136 52.5631 87.1353 52.9961 87.7237C53.2457 88.0519 53.5164 88.3634 53.8066 88.6563L53.9731 88.7674C54.0754 88.8094 54.1846 88.832 54.2951 88.834V87.646ZM58.4587 60.2996C58.4587 61.4039 58.02 62.4629 57.2392 63.2437C56.4584 64.0245 55.3993 64.4632 54.2951 64.4632V65.6512C55.7144 65.6512 57.0756 65.0874 58.0792 64.0837C59.0829 63.0801 59.6467 61.7189 59.6467 60.2996H58.4476H58.4587ZM54.2951 56.136C55.3993 56.136 56.4584 56.5747 57.2392 57.3555C58.02 58.1363 58.4587 59.1954 58.4587 60.2996H59.6467C59.6467 58.8803 59.0829 57.5191 58.0792 56.5155C57.0756 55.5118 55.7144 54.948 54.2951 54.948V56.136ZM50.1315 60.2996C50.1315 59.1954 50.5702 58.1363 51.351 57.3555C52.1318 56.5747 53.1908 56.136 54.2951 56.136V54.948C52.8758 54.948 51.5146 55.5118 50.511 56.5155C49.5073 57.5191 48.9435 58.8803 48.9435 60.2996H50.1315ZM54.2951 64.4632C53.1908 64.4632 52.1318 64.0245 51.351 63.2437C50.5702 62.4629 50.1315 61.4039 50.1315 60.2996H48.9435C48.9435 61.7189 49.5073 63.0801 50.511 64.0837C51.5146 65.0874 52.8758 65.6512 54.2951 65.6512V64.4632Z" fill="#1D6BF3"/>
<path d="M175.981 139.041L185.241 118.679L196.955 135.333L207.136 124.23L212.377 130.092L223.18 116.836" stroke="#1D6BF3"/>
<path d="M175.983 140.274C176.664 140.274 177.216 139.723 177.216 139.042C177.216 138.361 176.664 137.809 175.983 137.809C175.303 137.809 174.751 138.361 174.751 139.042C174.751 139.723 175.303 140.274 175.983 140.274Z" fill="#1A1B22"/>
<path d="M185.242 119.911C185.923 119.911 186.475 119.359 186.475 118.678C186.475 117.998 185.923 117.446 185.242 117.446C184.562 117.446 184.01 117.998 184.01 118.678C184.01 119.359 184.562 119.911 185.242 119.911Z" fill="#1A1B22"/>
<path d="M196.956 136.565C197.637 136.565 198.188 136.014 198.188 135.333C198.188 134.652 197.637 134.101 196.956 134.101C196.275 134.101 195.724 134.652 195.724 135.333C195.724 136.014 196.275 136.565 196.956 136.565Z" fill="#1A1B22"/>
<path d="M206.827 125.462C207.508 125.462 208.06 124.91 208.06 124.23C208.06 123.549 207.508 122.997 206.827 122.997C206.146 122.997 205.595 123.549 205.595 124.23C205.595 124.91 206.146 125.462 206.827 125.462Z" fill="#1A1B22"/>
<path d="M212.378 131.014C213.059 131.014 213.61 130.462 213.61 129.781C213.61 129.1 213.059 128.549 212.378 128.549C211.697 128.549 211.146 129.1 211.146 129.781C211.146 130.462 211.697 131.014 212.378 131.014Z" fill="#1A1B22"/>
<path d="M222.87 118.068C223.551 118.068 224.103 117.516 224.103 116.835C224.103 116.155 223.551 115.603 222.87 115.603C222.189 115.603 221.638 116.155 221.638 116.835C221.638 117.516 222.189 118.068 222.87 118.068Z" fill="#1A1B22"/>
<path d="M52.8623 42.1689H88.5358M52.8623 37.1171H99.8275" stroke="#1A1B22"/>
</svg>
