<svg width="280" height="191" viewBox="0 0 280 191" fill="none" xmlns="http://www.w3.org/2000/svg">
<path d="M92.4319 105.946L90.9909 100.482C90.5193 101.38 89.7895 102.116 88.8957 102.594C88.0018 103.073 86.985 103.273 85.9764 103.168C84.9625 103.052 84.0083 102.629 83.2418 101.955C82.4753 101.281 81.9332 100.389 81.6882 99.3987C81.4294 98.4087 81.4686 97.3643 81.8008 96.3964C82.133 95.4285 82.7435 94.5802 83.5557 93.9577C84.3646 93.3502 85.339 93.0029 86.3498 92.9617C87.3606 92.9206 88.36 93.1875 89.2157 93.7272L87.671 87.8596C87.465 86.3932 86.7363 85.0505 85.6191 84.0786C84.2127 83.1564 82.3683 83.5714 80.7545 84.021C75.4518 85.4965 70.3451 86.3034 63.0712 88.0326C57.8147 89.2775 54.5293 89.5888 54.9097 93.8885C54.6792 95.4563 59.417 118.027 60.1432 118.719C61.296 119.814 63.1404 119.526 64.6736 119.18L87.7056 113.9C89.4808 113.485 91.452 112.944 92.3973 111.364C93.3425 109.773 92.9045 107.733 92.4319 105.946V105.946Z" fill="#1D6BF3" stroke="#1D6BF3" stroke-linecap="round" stroke-linejoin="round"/>
<path d="M109.955 114.049C109.393 114.921 108.579 115.6 107.621 115.997C106.663 116.395 105.607 116.491 104.594 116.274C103.58 116.056 102.656 115.535 101.945 114.78C101.235 114.025 100.771 113.072 100.615 112.047C100.46 111.021 100.62 109.973 101.075 109.041C101.529 108.109 102.257 107.338 103.161 106.83C104.064 106.321 105.101 106.1 106.134 106.195C107.166 106.291 108.145 106.698 108.941 107.363C109.252 109.75 109.632 111.675 109.955 114.049Z" fill="#1D6BF3" stroke="#1D6BF3" stroke-miterlimit="10"/>
<path d="M144.961 111.628L143.693 106.152C143.181 107.033 142.416 107.74 141.497 108.181C140.578 108.622 139.548 108.777 138.54 108.625C137.532 108.473 136.593 108.022 135.845 107.33C135.097 106.638 134.574 105.737 134.344 104.744C134.114 103.751 134.189 102.712 134.557 101.761C134.925 100.811 135.571 99.9932 136.409 99.4143C137.248 98.8354 138.242 98.5219 139.261 98.5147C140.28 98.5075 141.278 98.8068 142.125 99.3738L140.765 93.4947C140.601 92.0193 139.904 90.6544 138.805 89.656C137.422 88.6762 135.554 89.0336 133.906 89.4255C128.488 90.7166 123.3 91.3391 115.888 92.8146C110.551 93.8751 107.22 94.0826 107.45 98.3593C107.173 99.904 111.197 122.51 111.9 123.213C113.041 124.342 114.897 124.135 116.476 123.824L139.912 119.374C141.733 119.028 143.739 118.556 144.753 117.011C145.756 115.466 145.376 113.426 144.961 111.628Z" fill="#1D6BF3" stroke="#1D6BF3" stroke-linecap="round" stroke-linejoin="round"/>
<path d="M129.767 118.96L144.349 136.782C142.228 129.727 139.669 123.179 137.548 116.125" fill="#1A1B22"/>
<path d="M129.767 118.96L144.349 136.782C142.228 129.727 139.669 123.179 137.548 116.125" fill="#1D6BF3"/>
<path d="M129.767 118.96L144.349 136.782C142.228 129.727 139.669 123.179 137.548 116.125" stroke="#1D6BF3" stroke-linecap="round" stroke-linejoin="round"/>
<path d="M163.993 76.6995C163.128 77.979 157.733 100.043 158.091 100.976C158.667 102.452 160.442 102.994 161.999 103.351L185.1 108.654C186.887 109.069 188.904 109.449 190.437 108.446C191.97 107.455 192.454 105.449 192.789 103.662L196.247 85.5641C196.685 84.1693 196.593 82.6592 196.005 81.3105C195.129 79.8811 193.284 79.4545 191.624 79.1548C186.195 78.1635 181.215 76.6534 173.895 75.0395C168.604 73.8637 165.492 72.734 163.981 76.6879L163.993 76.6995ZM159.901 90.6247C159.133 91.1902 158.205 91.4962 157.251 91.4983C156.298 91.5003 155.368 91.1984 154.598 90.6363C154.009 90.1891 153.524 89.6195 153.176 88.9667C152.828 88.3139 152.625 87.5935 152.583 86.8551C152.54 86.1166 152.658 85.3777 152.928 84.6892C153.198 84.0006 153.615 83.3789 154.148 82.8667C154.834 82.2011 155.715 81.7743 156.662 81.6497C157.609 81.5251 158.571 81.7093 159.405 82.175C160.257 82.6579 160.941 83.39 161.365 84.2731C160.8 86.5094 160.466 88.3769 159.901 90.6247V90.6247Z" fill="#1D6BF3" stroke="#1D6BF3" stroke-miterlimit="10"/>
<path d="M97.9182 159.86C101.814 154.764 105.918 149.508 111.671 146.66C112.869 146.073 114.356 145.611 115.475 146.338C116.823 147.214 116.766 149.185 116.42 150.753C115.198 156.194 112.42 161.162 109.526 165.935C104.388 174.252 99.0295 182.432 93.457 190.465" stroke="#1A1B22" stroke-linecap="round" stroke-linejoin="round"/>
<path d="M86.9095 116.044C87.2683 114.684 87.2722 113.255 86.921 111.894C86.7359 111.216 86.3801 110.598 85.8877 110.097C85.3952 109.597 84.7826 109.231 84.1083 109.035C83.4489 108.924 82.7727 108.967 82.1328 109.161C81.4928 109.355 80.9064 109.695 80.4195 110.153C79.4613 111.079 78.6594 112.153 78.0448 113.335C72.3605 122.753 67.4934 132.642 63.4971 142.891" fill="white"/>
<path d="M86.9092 116.044C87.2679 114.684 87.2719 113.255 86.9207 111.894C86.7356 111.216 86.3798 110.598 85.8874 110.097C85.3949 109.597 84.7823 109.231 84.108 109.035C83.4486 108.924 82.7724 108.967 82.1325 109.161C81.4925 109.355 80.9061 109.695 80.4192 110.153C79.461 111.079 78.6591 112.153 78.0445 113.335C72.3602 122.753 67.4931 132.642 63.4968 142.891M63.4968 142.891C63.3438 136.863 62.8202 130.85 61.929 124.885C61.6639 122.534 59.8541 120.078 57.4909 119.905C56.6701 119.912 55.8677 120.15 55.1764 120.593C54.485 121.035 53.9327 121.664 53.5831 122.407C52.903 123.906 52.5456 125.519 52.4995 127.156C51.7156 136.378 51.7156 145.646 51.7156 154.903L51.7041 187.987" stroke="#1A1B22" stroke-linecap="round" stroke-linejoin="round"/>
<path d="M97.086 117.195C97.5701 115.581 97.6969 113.898 97.4318 112.238C97.2894 111.41 96.908 110.641 96.3346 110.027C95.7611 109.413 95.0206 108.979 94.2041 108.78C91.7026 108.388 89.7775 110.878 88.5325 113.08C83.2771 122.363 78.945 132.139 75.5986 142.268" fill="white"/>
<path d="M97.086 117.195C97.5701 115.581 97.6969 113.898 97.4318 112.238C97.2894 111.41 96.908 110.641 96.3346 110.027C95.7611 109.413 95.0206 108.979 94.2041 108.78C91.7026 108.388 89.7775 110.878 88.5325 113.08C83.2771 122.363 78.945 132.139 75.5986 142.268" stroke="#1A1B22" stroke-linecap="round" stroke-linejoin="round"/>
<path d="M97.9748 159.526L104.084 127.018C104.974 123.231 105.361 119.344 105.237 115.456C105.218 114.263 104.909 113.092 104.338 112.044C104.04 111.528 103.604 111.105 103.078 110.824C102.553 110.543 101.959 110.414 101.364 110.453C99.5887 110.684 98.6896 112.655 98.1017 114.361L86.8623 147.226" fill="white"/>
<path d="M97.9748 159.526L104.084 127.018C104.974 123.231 105.361 119.344 105.237 115.456C105.218 114.263 104.909 113.092 104.338 112.044C104.04 111.528 103.604 111.105 103.078 110.824C102.553 110.543 101.959 110.414 101.364 110.453C99.5887 110.684 98.6896 112.655 98.1017 114.361L86.8623 147.226" stroke="#1A1B22" stroke-linecap="round" stroke-linejoin="round"/>
<path d="M178.472 151.78C175.913 138.581 172.881 124.54 171.325 111.18C171.06 108.828 170.841 106.338 171.878 104.194C172.916 102.073 175.694 100.609 177.734 101.819C179.14 102.638 179.694 104.355 180.155 105.912L188.674 135.088" fill="white"/>
<path d="M178.472 151.78C175.913 138.581 172.881 124.54 171.325 111.18C171.06 108.828 170.841 106.338 171.878 104.194C172.916 102.073 175.694 100.609 177.734 101.819C179.14 102.638 179.694 104.355 180.155 105.912L188.674 135.088" stroke="#1A1B22" stroke-linecap="round" stroke-linejoin="round"/>
<path d="M188.743 134.995C190.322 131.041 191.083 123.202 190.322 120.182C189.331 116.228 183.233 110.234 182.426 107.34C181.677 104.689 181.561 101.98 183.901 100.55C184.621 100.173 185.419 99.973 186.232 99.9669C187.044 99.9609 187.845 100.149 188.57 100.516C190.011 101.26 191.307 102.255 192.397 103.455C196.086 107.005 199.365 110.956 202.173 115.237C205.665 120.378 205.147 129.611 204.732 135.813" fill="white"/>
<path d="M188.743 134.995C190.322 131.041 191.083 123.202 190.322 120.182C189.331 116.228 183.233 110.234 182.426 107.34C181.677 104.689 181.561 101.98 183.901 100.55C184.621 100.173 185.419 99.973 186.232 99.9669C187.044 99.9609 187.845 100.149 188.57 100.516C190.011 101.26 191.307 102.255 192.397 103.455C196.086 107.005 199.365 110.956 202.173 115.237C205.665 120.378 205.147 129.611 204.732 135.813" stroke="#1A1B22" stroke-linecap="round" stroke-linejoin="round"/>
<path d="M194.277 105.368C195.58 103.455 197.966 103.259 200.202 103.824C202.416 104.515 204.399 105.795 205.955 107.513C210.158 111.784 213.235 117.033 214.911 122.787C216.587 128.541 216.809 134.62 215.557 140.481" stroke="#1A1B22" stroke-linecap="round" stroke-linejoin="round"/>
<path d="M215.452 140.747C216.442 133.335 218.18 126.044 220.639 118.983C221.308 117.069 222.426 114.867 224.443 114.717C225.213 114.736 225.957 114.995 226.571 115.458C227.185 115.921 227.638 116.565 227.867 117.3C228.294 118.782 228.397 120.339 228.167 121.864L223.245 184.171M178.472 151.778C174.244 147.775 169.226 144.7 163.739 142.752C161.457 141.945 158.644 141.473 156.858 143.098C156.214 143.79 155.781 144.651 155.61 145.58C155.438 146.509 155.535 147.467 155.889 148.343C156.624 150.09 157.72 151.661 159.105 152.954C162.178 156.123 165.346 159.198 168.604 162.176L196.985 188.713" stroke="#1A1B22" stroke-linecap="round" stroke-linejoin="round"/>
<path d="M56.4643 68.5154H48.7409C48.0804 68.5169 47.4262 68.3879 46.8157 68.1359C46.2052 67.8839 45.6506 67.5137 45.1836 67.0467C44.7165 66.5797 44.3464 66.025 44.0943 65.4145C43.8423 64.8041 43.7133 64.1498 43.7149 63.4894V44.5612C43.7149 43.2302 44.2428 41.9535 45.1829 41.0113C46.1229 40.0691 47.3984 39.5382 48.7293 39.5352H153.688C154.347 39.5352 155 39.6652 155.609 39.918C156.218 40.1707 156.772 40.5411 157.237 41.0079C157.703 41.4748 158.072 42.0289 158.324 42.6387C158.575 43.2484 158.704 43.9017 158.702 44.5612V63.4894C158.702 64.8204 158.174 66.097 157.234 67.0392C156.294 67.9815 155.019 68.5123 153.688 68.5154H64.5336M56.4643 68.7459L54.1588 80.2735L64.5336 68.7459" stroke="#1A1B22" stroke-linecap="round" stroke-linejoin="round"/>
<path d="M56.8091 47.214C56.4632 47.214 56.1866 47.5022 56.1866 47.8365V52.0786H51.7831V47.8365C51.78 47.6703 51.7119 47.512 51.5933 47.3956C51.4748 47.2792 51.3152 47.214 51.149 47.214C50.9869 47.2199 50.8332 47.2877 50.7195 47.4035C50.6059 47.5193 50.5409 47.6743 50.5381 47.8365V59.4908C50.5381 59.8251 50.8147 60.1018 51.149 60.1018C51.4949 60.1018 51.7831 59.8251 51.7831 59.4908V53.3121H56.1866V59.4908C56.207 59.6399 56.2807 59.7765 56.3941 59.8754C56.5075 59.9743 56.6528 60.0288 56.8033 60.0288C56.9538 60.0288 57.0991 59.9743 57.2125 59.8754C57.3259 59.7765 57.3996 59.6399 57.42 59.4908V47.8365C57.4172 47.6743 57.3522 47.5193 57.2386 47.4035C57.1249 47.2877 56.9712 47.2199 56.8091 47.214V47.214ZM65.5815 54.4764C65.3797 53.6997 64.9737 52.9912 64.4057 52.4245C64.0888 52.1119 63.7091 51.8701 63.2918 51.7151C62.8745 51.5601 62.4291 51.4954 61.9849 51.5253C61.1895 51.5945 60.4748 52.044 60.0252 52.6781C59.6892 53.1923 59.4472 53.7622 59.3105 54.3611C59.0339 55.2718 58.9417 56.2055 59.0569 57.1507C59.1722 58.1882 59.7486 59.1219 60.6247 59.6868C61.0858 59.975 61.616 60.1248 62.1463 60.1018C63.2184 60.1018 64.2559 59.6061 64.9129 58.7531C65.357 58.145 65.6493 57.4397 65.7656 56.6958C65.8819 55.9519 65.8188 55.1909 65.5815 54.4764V54.4764ZM63.9446 58.0038C63.3106 58.8107 62.2155 59.0874 61.2702 58.6263C60.9984 58.435 60.7704 58.1881 60.6014 57.9019C60.4325 57.6156 60.3265 57.2967 60.2904 56.9663C60.2051 56.2015 60.2837 55.4274 60.5209 54.6954C60.6247 54.2343 60.7861 53.8078 61.0397 53.4043C61.2818 53.0585 61.6737 52.8164 62.1117 52.7588H62.2385C62.7457 52.7818 63.2068 52.9893 63.5527 53.3351C63.959 53.7546 64.2525 54.2702 64.4057 54.8337C64.7515 55.8942 64.5901 57.0585 63.9446 58.0038V58.0038ZM76.8093 52.0325C76.7314 52.0054 76.6489 51.994 76.5665 51.9991C76.4842 52.0042 76.4036 52.0256 76.3296 52.0621C76.2556 52.0985 76.1896 52.1493 76.1354 52.2116C76.0812 52.2738 76.0399 52.3461 76.0139 52.4245C75.6389 53.5948 75.2815 54.7708 74.9419 55.9519C74.7229 56.6666 74.5269 57.4043 74.2848 58.1421C74.135 57.8654 73.9736 57.5657 73.8007 57.3006C73.4318 56.6089 73.0514 55.9288 72.6018 55.2141C72.5441 55.1295 72.4668 55.0602 72.3764 55.012C72.2861 54.9638 72.1854 54.9383 72.0831 54.9375C71.9778 54.9306 71.8727 54.9528 71.7792 55.0016C71.6857 55.0504 71.6074 55.1239 71.5528 55.2141C71.2185 55.7098 70.8381 56.2285 70.4231 56.7588C70.1118 57.1738 69.7775 57.5888 69.4894 58.0268C69.0628 56.436 68.6017 54.8683 68.083 53.1276L67.8986 52.4475C67.848 52.2917 67.74 52.1609 67.5966 52.0817C67.4532 52.0025 67.285 51.9808 67.1262 52.021C66.9687 52.0691 66.8362 52.1767 66.7566 52.3208C66.677 52.465 66.6566 52.6344 66.6997 52.7933L66.9072 53.485C67.5873 55.802 68.1406 57.6349 68.6363 59.7099C68.6659 59.8323 68.7319 59.9428 68.8256 60.027C68.9193 60.1111 69.0363 60.1648 69.1612 60.1811C69.2861 60.1973 69.4129 60.1753 69.525 60.1179C69.6371 60.0605 69.7292 59.9705 69.7891 59.8597C70.2502 59.0528 70.815 58.2574 71.4029 57.5196C71.6335 57.243 71.8294 56.9663 72.0369 56.6896C72.2675 57.0931 72.5096 57.4966 72.7286 57.9116C73.0975 58.5917 73.4894 59.2718 73.9505 59.9865C74.0658 60.1594 74.2502 60.2632 74.4693 60.2632H74.5384C74.769 60.2286 74.988 60.0787 75.0572 59.8482C75.4606 58.6493 75.7949 57.462 76.1407 56.2977C76.4635 55.1795 76.8093 53.9922 77.2013 52.8164C77.23 52.7382 77.2428 52.6551 77.2388 52.572C77.2348 52.4888 77.2142 52.4073 77.1782 52.3322C77.1422 52.2597 77.0904 52.1961 77.0265 52.1462C76.9627 52.0964 76.8885 52.0614 76.8093 52.044V52.0325ZM84.6365 51.8365C84.2907 51.8365 84.0025 52.1132 84.0025 52.4706V59.2488C84.0025 59.5946 84.2792 59.8597 84.6365 59.8597C84.9824 59.8597 85.259 59.5831 85.259 59.2488V52.4706C85.259 52.1247 84.9824 51.8365 84.6365 51.8365V51.8365ZM84.6135 51.0873C84.7403 51.0873 84.844 51.0411 84.9593 50.972C85.0558 50.911 85.1343 50.8255 85.187 50.7242C85.2396 50.623 85.2645 50.5096 85.259 50.3956C85.2588 50.2813 85.2303 50.1688 85.176 50.0682C85.1216 49.9677 85.0432 49.8821 84.9478 49.8192C84.8525 49.7548 84.7401 49.7204 84.625 49.7204C84.51 49.7204 84.3976 49.7548 84.3022 49.8192C84.2001 49.874 84.1169 49.9584 84.0634 50.0612C84.01 50.164 83.9887 50.2805 84.0025 50.3956C83.991 50.5455 84.0256 50.6723 84.0947 50.8106C84.21 50.972 84.406 51.0873 84.6135 51.0873ZM91.7951 56.1824C91.1733 55.6157 90.4209 55.2117 89.6049 55.0066C89.1438 54.8913 88.6366 54.7184 88.4522 54.4302C88.3961 54.2836 88.3752 54.1259 88.3912 53.9697C88.4072 53.8135 88.4597 53.6633 88.5444 53.5311C88.7749 53.1507 89.1899 52.8856 89.628 52.874C90.0199 52.874 90.3888 53.1046 90.5386 53.485C90.6539 53.7962 90.9767 53.9461 91.2879 53.8539C91.6107 53.7386 91.7951 53.4273 91.7144 53.0931C91.5602 52.6668 91.2781 52.2985 90.9067 52.0386C90.5354 51.7786 90.0928 51.6396 89.6395 51.6406H89.6164C89.1863 51.6511 88.7659 51.7709 88.3949 51.9887C88.0238 52.2065 87.7143 52.5152 87.4954 52.8856C87.0688 53.5311 87.0343 54.3611 87.3801 55.0527C87.8412 55.6752 88.5328 56.0902 89.3052 56.2285C89.8816 56.3553 90.4464 56.632 90.9075 57.0355C91.2533 57.3582 91.3801 57.8424 91.2418 58.3035C91.0689 58.5686 90.7807 58.7877 90.4349 58.8683C89.7778 59.0874 89.0516 58.9606 88.4867 58.534C88.2359 58.333 88.0475 58.0647 87.9434 57.7606C87.8393 57.4565 87.8238 57.129 87.8988 56.8164C87.9419 56.6575 87.9216 56.4881 87.8419 56.3439C87.7623 56.1998 87.6298 56.0922 87.4723 56.0441C87.3164 56.0017 87.15 56.0227 87.0096 56.1026C86.8692 56.1826 86.7661 56.3149 86.723 56.4706C86.4233 57.5888 86.8152 58.7761 87.7144 59.5139C88.1489 59.8528 88.6606 60.0786 89.2038 60.1711C89.747 60.2637 90.3046 60.2201 90.8268 60.0442C91.1516 59.958 91.4552 59.8062 91.7189 59.598C91.9827 59.3898 92.2008 59.1297 92.36 58.8338C92.7519 57.9116 92.5098 56.851 91.7836 56.1824H91.7951ZM100.083 51.8365C99.7376 51.8365 99.461 52.1132 99.461 52.4706V59.2488C99.461 59.5946 99.7376 59.8597 100.083 59.8597C100.429 59.8597 100.717 59.5831 100.717 59.2488V52.4706C100.717 52.1247 100.441 51.8365 100.083 51.8365ZM100.072 51.0873C100.187 51.0873 100.302 51.0411 100.418 50.972C100.514 50.911 100.593 50.8255 100.645 50.7242C100.698 50.623 100.723 50.5096 100.717 50.3956C100.716 50.2802 100.686 50.1671 100.629 50.0664C100.573 49.9657 100.492 49.8808 100.395 49.8192C100.299 49.7548 100.187 49.7204 100.072 49.7204C99.9569 49.7204 99.8445 49.7548 99.7491 49.8192C99.6492 49.8757 99.5683 49.9607 99.517 50.0634C99.4656 50.1661 99.4461 50.2818 99.461 50.3956C99.4379 50.5455 99.4725 50.6723 99.5532 50.8106C99.6684 50.972 99.8644 51.0873 100.072 51.0873ZM105.72 59.145C105.691 59.0699 105.647 59.0015 105.591 58.9437C105.535 58.886 105.468 58.8401 105.394 58.8089C105.319 58.7777 105.24 58.7618 105.159 58.7621C105.079 58.7624 104.999 58.7789 104.925 58.8107C104.741 58.8799 104.429 58.6954 104.303 58.4418C104.118 58.0038 104.072 57.5427 104.095 57.0816L104.118 51.825H104.81C105.132 51.825 105.409 51.5253 105.409 51.191C105.409 50.8452 105.132 50.5685 104.787 50.5685L104.118 50.58L104.141 48.459C104.141 48.1132 103.864 47.8365 103.507 47.8365C103.344 47.8395 103.189 47.9064 103.074 48.0228C102.96 48.1393 102.896 48.2959 102.896 48.459L102.885 50.6031H102.251C102.087 50.6088 101.932 50.6763 101.817 50.7918C101.701 50.9073 101.634 51.0623 101.628 51.2256C101.628 51.5714 101.905 51.8596 102.251 51.8596H102.274L102.885 51.8365L102.862 57.0816C102.804 57.7386 102.919 58.4188 103.196 59.0413C103.507 59.6407 104.141 60.0442 104.81 60.0787C105.017 60.0787 105.225 60.0442 105.386 59.9635C105.538 59.8924 105.661 59.77 105.732 59.6176C105.794 59.4662 105.794 59.2964 105.732 59.145H105.72ZM119.657 52.2285V52.1478C119.642 52.0648 119.602 51.9884 119.542 51.9288C119.523 51.8865 119.496 51.8484 119.463 51.8167C119.429 51.785 119.389 51.7604 119.346 51.7443C119.323 51.7328 119.311 51.7097 119.265 51.7097C117.352 50.9028 115.611 51.2717 114.746 51.9864C113.917 52.7023 113.352 53.6769 113.144 54.753C112.856 56.0672 113.017 57.9116 114.412 58.8338C115.599 59.5139 117.063 59.4101 118.124 58.534C118.205 58.4764 118.251 58.4188 118.332 58.3727C118.297 58.949 118.274 59.5139 118.216 60.1018C118.235 60.9573 118.033 61.8032 117.628 62.5572C116.983 63.2949 115.945 63.5716 115.023 63.2142C114.945 63.1871 114.863 63.1758 114.78 63.1808C114.698 63.1859 114.617 63.2073 114.543 63.2438C114.469 63.2802 114.403 63.331 114.349 63.3933C114.295 63.4555 114.254 63.5278 114.228 63.6062C114.112 63.9174 114.285 64.2978 114.608 64.4016C115.012 64.5284 115.415 64.5975 115.819 64.586C116.925 64.6436 117.997 64.1249 118.666 63.2603C119.196 62.3151 119.473 61.2661 119.473 60.194C119.588 58.3842 119.623 56.6666 119.634 54.9144C119.726 54.0383 119.749 53.1276 119.657 52.2285V52.2285ZM118.424 53.5772C118.401 53.9922 118.401 54.4187 118.401 54.8452L118.332 55.4216C118.159 56.4821 117.986 57.0816 117.352 57.5542C117.047 57.82 116.667 57.9848 116.264 58.0261C115.862 58.0674 115.456 57.9831 115.104 57.7848C114.297 57.243 114.136 56.0095 114.366 55.0297C114.516 54.2227 114.919 53.4965 115.542 52.9547C115.991 52.6319 116.533 52.4706 117.11 52.4936C117.555 52.4989 117.998 52.5688 118.424 52.7011V53.5772ZM127.773 54.4764C127.571 53.6997 127.165 52.9912 126.597 52.4245C126.28 52.1119 125.9 51.8701 125.483 51.7151C125.066 51.5601 124.62 51.4954 124.176 51.5253C123.786 51.5677 123.41 51.6923 123.072 51.8911C122.734 52.0898 122.443 52.3581 122.216 52.6781C121.88 53.1923 121.638 53.7622 121.502 54.3611C121.225 55.2718 121.133 56.2055 121.248 57.1507C121.363 58.1882 121.94 59.1219 122.816 59.6868C123.277 59.975 123.807 60.1248 124.349 60.1018C125.421 60.1018 126.447 59.6061 127.116 58.7531C127.558 58.144 127.848 57.4382 127.962 56.6943C128.076 55.9504 128.011 55.19 127.773 54.4764V54.4764ZM126.136 58.0038C125.513 58.8107 124.407 59.0874 123.461 58.6263C123.189 58.435 122.961 58.1881 122.793 57.9019C122.624 57.6156 122.518 57.2967 122.481 56.9663C122.396 56.2015 122.475 55.4274 122.712 54.6954C122.816 54.2343 122.977 53.8078 123.242 53.4043C123.473 53.0585 123.865 52.8164 124.314 52.7588H124.43C124.937 52.7818 125.398 52.9893 125.744 53.3351C126.15 53.7546 126.444 54.2702 126.597 54.8337C126.943 55.8942 126.781 57.0585 126.136 58.0038ZM130.02 51.8365C129.675 51.8365 129.398 52.1132 129.398 52.4706V59.2488C129.398 59.5946 129.675 59.8597 130.02 59.8597C130.366 59.8597 130.643 59.5831 130.643 59.2488V52.4706C130.643 52.1247 130.378 51.8365 130.02 51.8365V51.8365ZM129.997 51.0873C130.136 51.0873 130.239 51.0411 130.343 50.972C130.44 50.911 130.518 50.8255 130.571 50.7242C130.624 50.623 130.648 50.5096 130.643 50.3956C130.643 50.2813 130.614 50.1688 130.56 50.0682C130.506 49.9677 130.427 49.8821 130.332 49.8192C130.236 49.7548 130.124 49.7204 130.009 49.7204C129.894 49.7204 129.781 49.7548 129.686 49.8192C129.586 49.8757 129.505 49.9607 129.454 50.0634C129.403 50.1661 129.383 50.2818 129.398 50.3956C129.375 50.5455 129.409 50.6723 129.49 50.8106C129.605 50.972 129.801 51.0873 129.997 51.0873ZM137.974 53.704C137.94 53.2775 137.848 52.1478 136.925 51.7097C136.497 51.574 136.042 51.545 135.6 51.6254C135.158 51.7058 134.742 51.893 134.389 52.1708C134.09 52.4014 133.813 52.6896 133.571 53.0008V52.1478C133.571 51.802 133.294 51.5253 132.937 51.5253C132.776 51.5313 132.623 51.5995 132.512 51.7156C132.4 51.8317 132.337 51.9866 132.337 52.1478V59.3294C132.337 59.6637 132.614 59.9404 132.937 59.9404C133.283 59.9404 133.571 59.6637 133.571 59.3294V56.217L133.582 56.1709C133.859 54.7184 134.343 53.7732 135.15 53.1507C135.496 52.874 135.957 52.7588 136.395 52.8394C136.649 52.9547 136.718 53.4389 136.741 53.8078C136.891 55.6406 136.925 57.485 136.891 59.3064C136.891 59.4793 136.948 59.6407 137.052 59.756C137.179 59.8712 137.329 59.9404 137.502 59.9404H137.513C137.848 59.9404 138.124 59.6753 138.124 59.3294C138.182 57.4505 138.124 55.5599 137.974 53.704ZM146.055 52.2285V52.1478C146.04 52.0648 146 51.9884 145.94 51.9288C145.921 51.8865 145.894 51.8484 145.861 51.8167C145.827 51.785 145.787 51.7604 145.744 51.7443C145.732 51.7328 145.709 51.7097 145.675 51.7097C143.761 50.9028 142.021 51.2717 141.156 51.9864C140.322 52.7006 139.753 53.6754 139.542 54.753C139.254 56.0672 139.427 57.9116 140.822 58.8338C142.009 59.5139 143.473 59.4101 144.534 58.534C144.603 58.4764 144.649 58.4188 144.73 58.3727C144.695 58.949 144.683 59.5139 144.614 60.1018C144.637 60.9548 144.441 61.7963 144.038 62.5572C143.392 63.2949 142.355 63.5716 141.433 63.2142C141.355 63.1871 141.272 63.1758 141.19 63.1808C141.108 63.1859 141.027 63.2073 140.953 63.2438C140.879 63.2802 140.813 63.331 140.759 63.3933C140.705 63.4555 140.663 63.5278 140.637 63.6062C140.522 63.9174 140.695 64.2978 141.006 64.4016C141.41 64.5284 141.813 64.5975 142.228 64.586C143.335 64.6436 144.395 64.1249 145.064 63.2603C145.594 62.3151 145.871 61.2661 145.871 60.194C145.986 58.3842 146.021 56.6666 146.044 54.9144C146.136 54.0383 146.159 53.1276 146.055 52.2285V52.2285ZM144.822 53.5772L144.81 54.8452L144.73 55.4216C144.568 56.4821 144.384 57.0816 143.761 57.5542C143.127 58.096 142.24 58.1882 141.502 57.7848C140.695 57.243 140.545 56.0095 140.764 55.0297C140.914 54.2227 141.317 53.4965 141.951 52.9547C142.389 52.6319 142.943 52.4706 143.519 52.4936C143.957 52.4936 144.395 52.5743 144.822 52.7011V53.5772V53.5772ZM150.124 58.7877C150.042 58.7891 149.96 58.8071 149.884 58.8405C149.809 58.8739 149.74 58.922 149.683 58.9822C149.627 59.0423 149.582 59.1131 149.553 59.1906C149.524 59.268 149.51 59.3505 149.514 59.4332C149.501 59.5213 149.508 59.6109 149.534 59.696C149.559 59.7812 149.603 59.8599 149.661 59.9269C149.72 59.9939 149.792 60.0476 149.873 60.0844C149.953 60.1212 150.041 60.1402 150.13 60.1402C150.219 60.1402 150.307 60.1212 150.388 60.0844C150.469 60.0476 150.541 59.9939 150.599 59.9269C150.658 59.8599 150.701 59.7812 150.727 59.696C150.752 59.6109 150.759 59.5213 150.747 59.4332V59.3871C150.742 59.2267 150.676 59.0743 150.563 58.9606C150.444 58.8488 150.287 58.7869 150.124 58.7877ZM153.514 47.8941C153.076 47.3178 152.43 46.9373 151.727 46.799C150.912 46.6138 150.058 46.737 149.329 47.1448C148.851 47.4329 148.462 47.8489 148.208 48.3458C147.953 48.8428 147.842 49.401 147.888 49.9576C147.934 50.2919 148.234 50.5455 148.58 50.5109C148.926 50.4763 149.156 50.1766 149.133 49.8423C149.108 49.5228 149.173 49.2027 149.319 48.9177C149.466 48.6327 149.689 48.3941 149.963 48.2284C150.424 47.9633 150.954 47.8826 151.462 48.0209C151.877 48.0786 152.246 48.2976 152.499 48.6088C152.73 48.9547 152.822 49.3812 152.799 49.7962C152.799 50.7875 152.522 51.7559 151.992 52.6089L151.473 53.3467C150.555 54.4647 149.905 55.7776 149.571 57.1853C149.502 57.5311 149.721 57.877 150.055 57.9231C150.378 58.0038 150.712 57.7963 150.793 57.4505C151.087 56.2161 151.659 55.065 152.465 54.0844C152.672 53.8078 152.868 53.5311 153.018 53.2775C153.686 52.24 154.032 51.0296 154.032 49.7962C154.07 49.1227 153.888 48.4552 153.514 47.8941V47.8941Z" fill="#1A1B22"/>
</svg>
