<svg width="280" height="186" viewBox="0 0 280 186" fill="none" xmlns="http://www.w3.org/2000/svg">
<path d="M135.283 141.579H118.42C116.518 141.579 114.977 143.121 114.977 145.023V161.885C114.977 163.787 116.518 165.329 118.42 165.329H135.283C137.185 165.329 138.726 163.787 138.726 161.885V145.023C138.726 143.121 137.185 141.579 135.283 141.579Z" stroke="#1A1B22"/>
<path d="M164.309 140.92H146.786C144.885 140.92 143.343 142.462 143.343 144.364V161.886C143.343 163.787 144.885 165.329 146.786 165.329H164.309C166.21 165.329 167.752 163.787 167.752 161.886V144.364C167.752 142.462 166.21 140.92 164.309 140.92Z" stroke="#1A1B22"/>
<path d="M222.18 98.0378H114.646C111.913 98.0378 109.698 100.253 109.698 102.986V166.978C109.698 169.711 111.913 171.926 114.646 171.926H222.18C224.912 171.926 227.128 169.711 227.128 166.978V102.986C227.128 100.253 224.912 98.0378 222.18 98.0378Z" stroke="#1A1B22"/>
<path d="M219.541 134.323H199.749C198.474 134.323 197.44 135.357 197.44 136.632C197.44 137.907 198.474 138.941 199.749 138.941H219.541C220.816 138.941 221.85 137.907 221.85 136.632C221.85 135.357 220.816 134.323 219.541 134.323Z" stroke="#1A1B22"/>
<path d="M220.201 160.711H174.681C173.406 160.711 172.372 161.745 172.372 163.02C172.372 164.295 173.406 165.329 174.681 165.329H220.201C221.477 165.329 222.51 164.295 222.51 163.02C222.51 161.745 221.477 160.711 220.201 160.711Z" stroke="#1A1B22"/>
<path d="M197.772 45.9209H80.3424C77.6098 45.9209 75.3945 48.1361 75.3945 50.8688V143.229C75.3945 145.962 77.6098 148.177 80.3424 148.177H197.772C200.504 148.177 202.72 145.962 202.72 143.229V50.8688C202.72 48.1361 200.504 45.9209 197.772 45.9209Z" fill="white" stroke="#1A1B22"/>
<path d="M146.641 98.3679C156.661 98.3679 164.783 90.5407 164.783 80.8854C164.783 71.2301 156.661 63.403 146.641 63.403C136.622 63.403 128.499 71.2301 128.499 80.8854C128.499 90.5407 136.622 98.3679 146.641 98.3679Z" fill="#1D6BF3"/>
<path d="M179.957 63.0729H112.666" stroke="#1A1B22"/>
<path d="M250.224 87.2059H219.111L218.848 87.2323C217.792 87.4302 213.676 87.2719 207.567 87.2059C197.474 87.0872 183.474 85.7809 181.996 76.5449C180.901 73.1936 179.832 66.3853 184.384 65.8839C186.297 64.8812 189.279 69.961 191.245 72.1512C194.372 73.088 206.339 73.4047 200.956 57.4132L191.245 52.0827C189.754 55.9486 185.888 62.8756 182.299 59.6034C178.697 56.3576 184.687 43.3085 185.598 41.4349C181.798 38.0835 176.837 32.5419 179.951 30.035C180.835 29.3357 180.413 28.1218 182.101 28.4781C186.416 29.3621 192.472 32.278 195.771 34.5342C191.377 29.5204 189.609 25.351 191.377 23.2399C192.301 22.1448 193.62 20.4955 196.655 22.3031C200.349 24.4934 200.771 25.8392 203.054 27.6336C206.762 31.8162 211.525 34.2704 212.514 36.6849C209.796 28.4649 205.284 13.8851 214.625 16.9726L218.914 23.8732L231.079 54.2861H250.21V87.2059H250.224Z" fill="white"/>
<path d="M232.075 54.1674H253.819M191.08 52.2146L201.137 57.7311" stroke="#1A1B22" stroke-linecap="round"/>
<path d="M187.927 57.5182L188.217 57.6897V57.6765L187.927 57.5182V57.5182ZM185.328 41.1572L185.064 40.9725C185.054 40.9892 185.045 41.0069 185.038 41.0253L185.328 41.1572ZM191.951 40.1413L192.097 39.851C192.084 39.8412 192.071 39.8324 192.057 39.8246L191.951 40.1413ZM187.927 57.5182L187.65 57.3466L187.611 57.3994L187.518 57.5445C187.008 58.2594 186.399 58.899 185.711 59.4445C185.143 59.8667 184.497 60.1702 183.837 60.1702C183.177 60.1702 182.465 59.9063 181.7 59.1147L181.225 59.5633C182.082 60.4869 182.979 60.8431 183.85 60.8299C184.672 60.7897 185.46 60.4946 186.106 59.9855C186.925 59.3714 187.623 58.6108 188.165 57.7425L188.204 57.7029V57.6897L187.94 57.5182H187.927ZM181.7 59.1015C181.322 58.6525 181.088 58.1012 181.027 57.5182C180.919 56.708 180.919 55.8873 181.027 55.0772C181.238 53.2432 181.818 51.1189 182.491 49.0606C183.365 46.4751 184.387 43.942 185.552 41.4739L185.605 41.3419L185.618 41.3155L185.328 41.1704L185.038 41.0253L185.011 41.0649L184.958 41.1968L184.734 41.6718C183.657 44.0137 182.702 46.4094 181.871 48.8495C181.166 50.8436 180.662 52.9034 180.367 54.998C180.254 55.8652 180.254 56.7433 180.367 57.6105C180.499 58.389 180.763 59.0619 181.225 59.5633L181.7 59.1015V59.1015ZM188.217 57.6765L192.44 50.1821L191.859 49.8655L187.637 57.3466L188.217 57.6765ZM185.592 41.3683C185.988 40.8406 186.634 40.3128 187.624 40.0621C189.041 39.798 190.503 39.9351 191.846 40.4579L192.057 39.8246C190.594 39.2653 189.003 39.1282 187.465 39.4288C186.318 39.7058 185.552 40.326 185.064 40.9725L185.592 41.3683V41.3683ZM191.793 40.4315L207.362 48.5328L207.679 47.9391L192.11 39.851L191.806 40.4315H191.793ZM195.026 72.5069L194.999 72.177H194.973L195.026 72.5069V72.5069ZM183.151 66.4507L183.138 66.1208H183.072L183.164 66.4507H183.151ZM182.188 79.1436L182.504 79.0381L182.188 79.1436ZM199.076 87.1394V86.8095H199.063L199.076 87.1394ZM194.986 72.177C193.582 72.4541 192.125 72.2593 190.843 71.6229C189.967 71.0811 189.226 70.3453 188.679 69.4722C188.099 68.641 187.518 67.7174 186.7 67.0576C186.199 66.6718 185.625 66.3911 185.013 66.2324C184.401 66.0737 183.763 66.0403 183.138 66.134L183.19 66.7806C184.642 66.6486 185.565 67.0049 186.278 67.5722C187.004 68.1528 187.518 68.9708 188.138 69.8548C188.745 70.7125 189.458 71.6097 190.513 72.2034C191.608 72.8104 193.02 73.1006 195.065 72.8368L194.973 72.177H194.986ZM195.039 72.8368C196.379 72.783 197.685 72.3951 198.837 71.7084C199.989 71.0217 200.951 70.058 201.636 68.9048C203.087 66.3583 203.351 62.5716 201.346 57.3862L200.726 57.6237C202.692 62.7035 202.388 66.266 201.069 68.575C200.438 69.634 199.552 70.5184 198.492 71.1475C197.432 71.7767 196.231 72.1306 194.999 72.177L195.039 72.8368V72.8368ZM183.072 66.134C182.227 66.3583 181.488 66.6618 180.921 67.1632C180.354 67.691 179.997 68.3771 179.865 69.3535C179.734 70.3166 179.826 71.5437 180.156 73.1534C180.472 74.7499 181.04 76.7555 181.871 79.2492L182.504 79.0381C181.816 77.0675 181.244 75.0586 180.789 73.0215C180.509 71.8516 180.42 70.6441 180.525 69.4458C180.631 68.6014 180.921 68.0472 181.37 67.6514C181.818 67.2556 182.425 66.9917 183.243 66.7674L183.072 66.134V66.134ZM181.884 79.2492C182.425 80.9117 182.861 82.3498 183.415 83.5109C183.982 84.6984 184.681 85.622 185.816 86.2949C186.938 86.9678 188.429 87.3769 190.553 87.5616C192.664 87.7331 195.435 87.6935 199.103 87.4692L199.063 86.8095C195.408 87.0338 192.677 87.0734 190.619 86.9019C189.064 86.8578 187.539 86.4608 186.159 85.7408C185.202 85.1458 184.451 84.2705 184.009 83.2339C183.481 82.1123 183.059 80.7401 182.504 79.0381L181.871 79.2492H181.884ZM199.076 87.4692H253.82V86.8095H199.076V87.4692V87.4692Z" fill="#1A1B22" stroke="#1A1B22" stroke-width="0.5" stroke-linejoin="round"/>
<path d="M191.069 28.8337L190.792 29.0052L190.818 29.0448L191.082 28.8469L191.069 28.8337ZM191.069 28.8337L191.359 28.6754L191.333 28.6358C190.948 27.9025 190.715 27.0993 190.647 26.274C190.62 25.6407 190.726 24.9546 191.095 24.3344C191.465 23.7143 192.111 23.1338 193.246 22.6983L192.995 22.0782C191.981 22.4197 191.111 23.0939 190.528 23.9914C190.066 24.7567 189.961 25.5747 190 26.3136C190.055 27.1774 190.284 28.0212 190.673 28.7941L190.752 28.9524C190.761 28.9655 190.77 28.9787 190.779 28.992V29.0052L191.069 28.8469V28.8337ZM193.246 22.6983C193.695 22.5136 194.434 22.6192 195.463 23.0678C196.452 23.49 197.653 24.2157 198.972 25.1393C201.997 27.3676 204.883 29.7778 207.615 32.3566C211.371 35.8449 215.011 39.4578 218.526 43.1891L218.698 43.3738L218.764 43.4398L219.001 43.2155L219.252 42.9912L219.226 42.978L219.186 42.9252L219.001 42.7405L218.328 42.0148C215.007 38.5371 211.584 35.1579 208.063 31.8816C205.314 29.2762 202.406 26.8437 199.355 24.5983C198.217 23.7709 197.002 23.0551 195.727 22.4608C194.671 22.0122 193.721 21.8011 193.009 22.0782L193.246 22.6983ZM190.818 29.0448L195.793 35.5628L196.32 35.167L191.333 28.649L190.805 29.0448H190.818Z" fill="#1A1B22"/>
<path d="M209.196 22.7249L208.866 22.7645V22.804L209.196 22.7249ZM209.196 22.7249L209.526 22.6721V22.6061L209.5 22.4346C209.431 21.5668 209.502 20.6936 209.711 19.8485C209.909 19.1492 210.239 18.4895 210.806 18.0013C211.533 17.4232 212.453 17.1447 213.379 17.2228L213.405 16.5631C212.311 16.4768 211.226 16.812 210.371 17.4999C209.734 18.0769 209.284 18.8302 209.078 19.6638C208.827 20.5826 208.746 21.5396 208.84 22.4874L208.866 22.6853V22.7645L209.196 22.7249ZM213.379 17.2228C213.603 17.2228 213.893 17.3548 214.237 17.6187C214.593 17.8694 214.975 18.252 215.398 18.7666C216.242 19.7694 217.192 21.2207 218.195 22.9888C220.478 27.1667 222.552 31.4558 224.409 35.84C227.024 41.861 229.479 47.9501 231.772 54.1009L231.891 54.4176L231.917 54.4968V54.5232L232.234 54.4176L232.55 54.2857L232.537 54.2725L232.511 54.1933L232.379 53.8766L231.943 52.6892C229.768 46.9317 227.458 41.2258 225.016 35.5761C223.148 31.1645 221.061 26.849 218.762 22.6457C217.934 21.1348 216.981 19.6959 215.912 18.3444C215.534 17.8763 215.104 17.4515 214.632 17.0777C214.28 16.7883 213.847 16.6134 213.392 16.5763V17.236L213.379 17.2228ZM208.88 22.804L212.376 36.6581L213.023 36.4865L209.513 22.6325L208.88 22.804Z" fill="#1A1B22"/>
<path d="M179.601 35.1668L179.351 35.378L179.39 35.4043L179.601 35.1668ZM179.601 35.1668L179.865 34.9557L179.826 34.9162L179.733 34.7842C179.286 34.1549 178.96 33.448 178.77 32.6995C178.638 32.0662 178.612 31.3801 178.876 30.7204C179.249 29.8701 179.9 29.1721 180.723 28.7412L180.393 28.1739C179.445 28.6757 178.696 29.4854 178.269 30.4697C177.986 31.2298 177.94 32.0579 178.137 32.8446C178.35 33.7577 178.76 34.6133 179.338 35.3516V35.3648H179.351L179.615 35.1668H179.601ZM180.723 28.7412C181.158 28.4773 181.871 28.4509 182.874 28.6752C183.85 28.8864 185.038 29.335 186.37 29.9683C189.009 31.2217 192.149 33.1349 195.158 35.1536C199.087 37.7791 202.916 40.5518 206.637 43.4661L206.65 43.4793L206.861 43.2154L207.059 42.9647V42.9515C207.032 42.9515 207.019 42.9251 207.006 42.9119L206.808 42.78C205.743 41.9265 204.661 41.0951 203.562 40.2862C201.425 38.7029 198.549 36.605 195.514 34.5995C192.506 32.594 189.339 30.6412 186.647 29.3745C185.485 28.7974 184.264 28.3463 183.006 28.0287C181.976 27.7912 181.053 27.778 180.393 28.1607L180.723 28.7412ZM179.39 35.4043L185.367 40.7348L185.816 40.2467L179.826 34.9162L179.39 35.4043Z" fill="#1A1B22"/>
<path d="M191.069 28.8337L190.792 29.0052L190.818 29.0448M191.069 28.8337L191.082 28.8469L190.818 29.0448M191.069 28.8337L191.359 28.6754L191.333 28.6358C190.948 27.9025 190.715 27.0993 190.647 26.274C190.62 25.6407 190.726 24.9546 191.095 24.3344C191.465 23.7143 192.111 23.1338 193.246 22.6983M191.069 28.8337V28.8469L190.779 29.0052V28.992C190.77 28.9787 190.761 28.9655 190.752 28.9524L190.673 28.7941C190.284 28.0212 190.055 27.1774 190 26.3136C189.961 25.5747 190.066 24.7567 190.528 23.9914C191.111 23.0939 191.981 22.4197 192.995 22.0782L193.246 22.6983M190.818 29.0448L195.793 35.5628L196.32 35.167L191.333 28.649L190.805 29.0448H190.818ZM193.246 22.6983C193.695 22.5136 194.434 22.6192 195.463 23.0678C196.452 23.49 197.653 24.2157 198.972 25.1393C201.997 27.3676 204.883 29.7778 207.615 32.3566C211.371 35.8449 215.011 39.4578 218.526 43.1891L218.698 43.3738L218.764 43.4398L219.001 43.2155L219.252 42.9912L219.226 42.978L219.186 42.9252L219.001 42.7405L218.328 42.0148C215.007 38.5371 211.584 35.1579 208.063 31.8816C205.314 29.2762 202.406 26.8437 199.355 24.5983C198.217 23.7709 197.002 23.0551 195.727 22.4608C194.671 22.0122 193.721 21.8011 193.009 22.0782L193.246 22.6983ZM209.196 22.7249L208.866 22.7645M209.196 22.7249L208.866 22.804V22.7645M209.196 22.7249L209.526 22.6721V22.6061L209.5 22.4346C209.431 21.5668 209.502 20.6936 209.711 19.8485C209.909 19.1492 210.239 18.4895 210.806 18.0013C211.533 17.4232 212.453 17.1447 213.379 17.2228M208.866 22.7645V22.6853L208.84 22.4874C208.746 21.5396 208.827 20.5826 209.078 19.6638C209.284 18.8302 209.734 18.0769 210.371 17.4999C211.226 16.812 212.311 16.4768 213.405 16.5631L213.379 17.2228M213.379 17.2228C213.603 17.2228 213.893 17.3548 214.237 17.6187C214.593 17.8694 214.975 18.252 215.398 18.7666C216.242 19.7694 217.192 21.2207 218.195 22.9888C220.478 27.1667 222.552 31.4558 224.409 35.84C227.024 41.861 229.479 47.9501 231.772 54.1009L231.891 54.4176L231.917 54.4968V54.5232L232.234 54.4176L232.55 54.2857L232.537 54.2725L232.511 54.1933L232.379 53.8766L231.943 52.6892C229.768 46.9317 227.458 41.2258 225.016 35.5761C223.148 31.1645 221.061 26.849 218.762 22.6457C217.934 21.1348 216.981 19.6959 215.912 18.3444C215.534 17.8763 215.104 17.4515 214.632 17.0777C214.28 16.7883 213.847 16.6134 213.392 16.5763V17.236L213.379 17.2228ZM179.601 35.1668L179.351 35.378L179.39 35.4043M179.601 35.1668L179.39 35.4043M179.601 35.1668L179.865 34.9557L179.826 34.9162M179.601 35.1668H179.615L179.351 35.3648H179.338V35.3516C178.76 34.6133 178.35 33.7577 178.137 32.8446C177.94 32.0579 177.986 31.2298 178.269 30.4697C178.696 29.4854 179.445 28.6757 180.393 28.1739L180.723 28.7412M179.39 35.4043L185.367 40.7348L185.816 40.2467L179.826 34.9162M179.39 35.4043L179.826 34.9162M179.826 34.9162L179.733 34.7842C179.286 34.1549 178.96 33.448 178.77 32.6995C178.638 32.0662 178.612 31.3801 178.876 30.7204C179.249 29.8701 179.9 29.1721 180.723 28.7412M180.723 28.7412C181.158 28.4773 181.871 28.4509 182.874 28.6752C183.85 28.8864 185.038 29.335 186.37 29.9683C189.009 31.2217 192.149 33.1349 195.158 35.1536C199.087 37.7791 202.916 40.5518 206.637 43.4661L206.65 43.4793L206.861 43.2154L207.059 42.9647V42.9515C207.032 42.9515 207.019 42.9251 207.006 42.9119L206.808 42.78C205.743 41.9265 204.661 41.0951 203.562 40.2862C201.425 38.7029 198.549 36.605 195.514 34.5995C192.506 32.594 189.339 30.6412 186.647 29.3745C185.485 28.7974 184.264 28.3463 183.006 28.0287C181.976 27.7912 181.053 27.778 180.393 28.1607L180.723 28.7412ZM208.88 22.804L212.376 36.6581L213.023 36.4865L209.513 22.6325L208.88 22.804Z" stroke="#1A1B22" stroke-width="0.5" stroke-linejoin="round"/>
<path d="M147.092 125.983L115.953 101.996L107.72 105.954H74.4043V142.819C74.4026 143.48 74.5314 144.134 74.7834 144.745C75.0354 145.356 75.4057 145.911 75.8728 146.378C76.34 146.845 76.8948 147.215 77.5055 147.467C78.1162 147.719 78.7707 147.848 79.4313 147.846H197.349C200.12 147.846 202.389 145.603 202.389 142.819V126.287L178.468 103.223L147.092 125.983Z" fill="#1D6BF3"/>
<path d="M115.966 101.996L116.164 101.732L116.006 101.6L115.821 101.693L115.953 101.996H115.966ZM147.092 125.984L146.894 126.247L147.092 126.393L147.289 126.261L147.092 125.997V125.984ZM178.468 103.223L178.692 102.986L178.494 102.801L178.27 102.959L178.468 103.223ZM202.389 126.287H202.719V126.155L202.613 126.05L202.389 126.287V126.287ZM74.4041 105.955V105.625H74.0742V105.955H74.4041ZM107.72 105.955V106.284H107.786L107.865 106.258L107.72 105.955V105.955ZM115.768 102.26L146.894 126.247L147.289 125.72L116.164 101.732L115.768 102.26ZM147.289 126.247L178.666 103.487L178.27 102.959L146.894 125.72L147.289 126.247ZM178.23 103.461L202.151 126.525L202.613 126.05L178.692 102.986L178.243 103.461H178.23ZM202.059 126.287V142.819H202.719V126.287H202.059V126.287ZM197.349 147.517H79.4311V148.176H197.349V147.517V147.517ZM74.7339 142.819V105.955H74.0742V142.819H74.7339V142.819ZM74.4041 106.284H107.72V105.625H74.4041V106.284ZM107.865 106.258L116.111 102.3L115.821 101.693L107.575 105.651L107.865 106.258ZM79.4311 147.517C78.1864 147.513 76.9937 147.017 76.1136 146.137C75.2334 145.257 74.7374 144.064 74.7339 142.819H74.0742C74.0777 144.239 74.6432 145.6 75.6471 146.604C76.6509 147.607 78.0114 148.173 79.4311 148.176V147.517ZM202.059 142.819C202.059 145.406 199.948 147.517 197.349 147.517V148.176C198.771 148.176 200.135 147.612 201.141 146.608C202.148 145.604 202.715 144.241 202.719 142.819H202.059Z" fill="#1A1B22" stroke="#1A1B22" stroke-width="0.5" stroke-linejoin="round"/>
<path d="M60.5498 185.45V137.951M107.06 60.4342H112.337V65.7119H107.06V60.4342ZM180.288 60.4342H185.566V65.7119H180.288V60.4342Z" stroke="#1A1B22"/>
<path d="M164.456 82.8645C165.549 82.8645 166.435 81.9784 166.435 80.8854C166.435 79.7923 165.549 78.9062 164.456 78.9062C163.363 78.9062 162.477 79.7923 162.477 80.8854C162.477 81.9784 163.363 82.8645 164.456 82.8645Z" fill="white" stroke="#1A1B22"/>
<path d="M128.172 82.8645C129.265 82.8645 130.151 81.9784 130.151 80.8854C130.151 79.7923 129.265 78.9062 128.172 78.9062C127.078 78.9062 126.192 79.7923 126.192 80.8854C126.192 81.9784 127.078 82.8645 128.172 82.8645Z" fill="white" stroke="#1A1B22"/>
<path d="M145.982 65.7121C147.075 65.7121 147.961 64.826 147.961 63.7329C147.961 62.6399 147.075 61.7538 145.982 61.7538C144.889 61.7538 144.003 62.6399 144.003 63.7329C144.003 64.826 144.889 65.7121 145.982 65.7121Z" fill="white" stroke="#1A1B22"/>
<path d="M145.982 100.677C147.075 100.677 147.961 99.7909 147.961 98.6979C147.961 97.6048 147.075 96.7188 145.982 96.7188C144.889 96.7188 144.003 97.6048 144.003 98.6979C144.003 99.7909 144.889 100.677 145.982 100.677Z" fill="white" stroke="#1A1B22"/>
<path d="M219.871 107.274C220.964 107.274 221.85 106.388 221.85 105.295C221.85 104.202 220.964 103.316 219.871 103.316C218.778 103.316 217.892 104.202 217.892 105.295C217.892 106.388 218.778 107.274 219.871 107.274Z" fill="white" stroke="#1A1B22"/>
<path d="M213.933 107.274C215.026 107.274 215.912 106.388 215.912 105.295C215.912 104.202 215.026 103.316 213.933 103.316C212.84 103.316 211.954 104.202 211.954 105.295C211.954 106.388 212.84 107.274 213.933 107.274Z" fill="white" stroke="#1A1B22"/>
<path d="M207.995 107.274C209.088 107.274 209.974 106.388 209.974 105.295C209.974 104.202 209.088 103.316 207.995 103.316C206.902 103.316 206.016 104.202 206.016 105.295C206.016 106.388 206.902 107.274 207.995 107.274Z" fill="white" stroke="#1A1B22"/>
<path d="M38.5428 65.2504L38.8726 65.224V65.2504H38.5428ZM26.5095 97.1146H26.1797H26.5095ZM38.5428 65.2504L38.2129 65.2899C38.2119 65.268 38.2119 65.2459 38.2129 65.224C38.1814 64.9432 38.1284 64.6654 38.0546 64.3927C37.9226 63.8649 37.7115 63.1525 37.3421 62.5059C36.9726 61.8594 36.4712 61.2789 35.7851 60.9226C34.9121 60.5271 33.921 60.4799 33.0143 60.7907L32.8428 60.1573C34.1622 59.7879 35.2442 59.9198 36.0886 60.3421C36.8691 60.763 37.5073 61.4058 37.9226 62.1893C38.4386 63.1273 38.7616 64.1591 38.8726 65.224L38.5428 65.2504ZM33.0275 60.7907C32.735 60.8907 32.4781 61.0742 32.2887 61.3184C32.0248 61.6219 31.7609 62.0441 31.5102 62.5851C31.0088 63.6406 30.547 65.1184 30.1248 66.8601C29.2234 70.9782 28.5669 75.1461 28.1588 79.3419C27.5308 85.2198 27.0908 91.1162 26.8394 97.0222V97.1278H26.5095L26.1797 97.1014V97.075C26.2002 96.5777 26.2265 96.0807 26.2589 95.5841C26.5311 90.1378 26.9491 84.6998 27.5123 79.2759C27.9225 75.049 28.5834 70.8502 29.4915 66.7017C29.9137 64.9469 30.3755 63.4295 30.9164 62.2948C31.1803 61.7407 31.4706 61.2525 31.7873 60.8962C32.0907 60.5268 32.447 60.2629 32.8428 60.1573L33.0275 60.7907V60.7907ZM38.8726 65.2504L39.3344 83.7092H38.6747L38.2129 65.2635L38.8726 65.2504ZM26.8394 97.1146V185.45H26.1797V97.1146H26.8394Z" fill="#1A1B22" stroke="#1A1B22" stroke-width="0.5" stroke-linejoin="round"/>
<path d="M59.0317 61.6751C54.6908 53.8641 47.1569 68.4174 43.3965 76.7166C44.927 89.2512 47.0381 110.098 50.8777 123.398C53.0811 131.024 56.5908 135.972 59.0317 135.972C67.4365 135.972 73.3608 133.637 76.0788 124.625C81.1454 107.789 76.1052 106.958 74.733 106.47C72.1997 105.546 68.4393 107.446 67.4893 111.734C66.4337 116.484 62.1192 117.302 61.156 116.629C53.7276 110.613 58.2929 97.9594 67.4893 90.6102C72.8198 93.856 72.2392 96.7324 78.269 96.1254C85.9217 93.3546 75.6434 83.6436 69.7587 79.0256L74.1128 70.9243L75.2607 68.325V66.016C71.7906 57.3342 60.5887 71.9798 54.9811 80.1603L59.0317 66.5702L59.6123 63.6806L59.0317 61.6619V61.6751Z" fill="white"/>
<path d="M62.3442 117.011L62.4761 117.315L62.397 117.341H62.3046L62.3442 117.011ZM74.4829 129.15L74.7996 129.282L74.7732 129.335L74.7468 129.374L74.4829 129.15V129.15ZM62.2386 116.708C65.6691 115.375 66.7247 112.618 67.9122 110.111C68.4038 108.883 69.1607 107.779 70.1288 106.878C71.1448 106.047 72.517 105.611 74.5357 105.796L74.4698 106.456C72.5962 106.284 71.4087 106.693 70.5378 107.393C69.6434 108.233 68.9451 109.26 68.4927 110.401C67.3448 112.829 66.2101 115.877 62.4761 117.328L62.2386 116.708ZM74.5357 105.796C75.5649 105.888 76.4093 106.232 77.069 106.799C77.7287 107.353 78.1774 108.118 78.494 108.989C79.101 110.744 79.1141 113.053 78.7975 115.494C78.0529 120.243 76.7142 124.88 74.8128 129.295L74.2059 129.031C76.0809 124.675 77.4018 120.1 78.1378 115.415C78.4544 113 78.428 110.823 77.8739 109.213C77.5836 108.422 77.1878 107.762 76.6336 107.3C76.0195 106.797 75.2621 106.502 74.4698 106.456L74.5357 105.796V105.796ZM74.76 129.388C72.2795 132.158 67.9518 137.581 60.5893 138.597L60.497 137.937C67.5823 136.974 71.7517 131.763 74.2586 128.952L74.76 129.388ZM62.3178 117.341C61.9352 117.291 61.5701 117.15 61.2533 116.929C60.9365 116.709 60.6772 116.416 60.497 116.074C59.9419 114.998 59.6268 113.814 59.5734 112.604C59.2831 109.438 59.6262 104.332 60.8664 96.349L61.5261 96.4546C60.2727 104.424 59.9428 109.464 60.2331 112.552C60.3782 114.082 60.6685 115.098 61.0643 115.745C61.4338 116.365 61.8824 116.629 62.397 116.695L62.3178 117.354V117.341Z" fill="#1A1B22" stroke="#1A1B22" stroke-width="0.5" stroke-linejoin="round"/>
<path d="M67.7115 90.3571L61.1416 96.5806" stroke="#1A1B22" stroke-linecap="round"/>
<path d="M73.5739 95.2279L73.4287 95.5314C73.3999 95.5177 73.3733 95.4999 73.3496 95.4786L73.5739 95.2279ZM70.051 78.9065L70.2093 78.6295L70.2621 78.6558L70.051 78.9197V78.9065ZM62.3719 80.2655L62.1344 80.028L62.1608 80.0017L62.3719 80.2655ZM73.5739 95.2279L73.7058 94.9376H73.719C73.7882 94.971 73.8586 95.0018 73.9301 95.03C74.7661 95.3605 75.6465 95.5651 76.5426 95.6369C77.3079 95.6897 78.0863 95.5973 78.7592 95.2411C79.419 94.9112 80.0127 94.3175 80.3953 93.2883L81.0155 93.5126C80.58 94.7001 79.8808 95.4258 79.0495 95.848C78.2447 96.2438 77.3343 96.3494 76.503 96.2966C75.4651 96.2261 74.4472 95.9761 73.4947 95.5578L73.4419 95.5446V95.5314H73.4287L73.5607 95.2279H73.5739ZM80.3953 93.2883C80.5669 92.8265 80.5537 92.2592 80.3953 91.5995C80.1738 90.842 79.8498 90.1184 79.4321 89.4488C78.3674 87.7507 77.1293 86.1677 75.7377 84.7252C73.8944 82.761 71.9336 80.9104 69.8663 79.1836L69.8399 79.1704L70.051 78.9065L70.2621 78.6426V78.6558L70.2885 78.6822L70.394 78.7746C70.9946 79.2717 71.5841 79.782 72.1621 80.3051C73.5678 81.5756 74.9235 82.9004 76.2259 84.2766C77.6475 85.7514 78.9122 87.3698 79.9995 89.1057C80.4745 89.8974 80.8307 90.689 81.0287 91.4279C81.2134 92.1668 81.2398 92.8793 81.0155 93.5126L80.3953 93.2883ZM73.3496 95.4786L67.4385 90.5043L67.8607 89.9898L73.785 94.9772L73.3496 95.4786ZM69.8927 79.1968C68.7052 78.4975 65.5385 78.0357 62.5962 80.5162L62.174 80.0017C65.3406 77.3364 68.7975 77.7982 70.2225 78.6295L69.8927 79.1968ZM62.6226 80.4898L49.2172 94.2119L48.7422 93.7501L62.1476 80.028L62.6226 80.4898V80.4898Z" fill="#1A1B22" stroke="#1A1B22" stroke-width="0.5" stroke-linejoin="round"/>
<path d="M74.8656 68.6933L75.1691 68.8121L75.1559 68.8517L74.8656 68.6933V68.6933ZM74.8656 68.6933L74.549 68.5746C74.579 68.5101 74.6055 68.4441 74.6281 68.3767C74.8592 67.6121 74.9486 66.8117 74.892 66.0149C74.8365 65.3144 74.5697 64.6472 74.1268 64.1017C73.6518 63.5344 72.8997 63.0462 71.6858 62.7823L71.8178 62.1358C72.9064 62.3164 73.9017 62.8606 74.6413 63.6795C75.2219 64.3788 75.4726 65.1968 75.5385 65.9621C75.6232 66.8996 75.5062 67.8444 75.1955 68.7329L75.1823 68.7989V68.8121L74.8656 68.6933V68.6933ZM71.6858 62.7823C71.1844 62.6767 70.4455 62.901 69.4824 63.508C68.5324 64.1149 67.4372 65.0385 66.2498 66.1864C63.5305 68.9291 60.9836 71.8374 58.6234 74.8947C55.3599 79.0378 52.2355 83.2888 49.2555 87.6404L49.1235 87.8647L49.0708 87.9174V87.9306L48.7937 87.7591L48.5166 87.5744V87.548L48.5694 87.4952C48.8093 87.142 49.0512 86.7902 49.2951 86.4397C52.118 82.3715 55.0572 78.3852 58.1089 74.4856C60.4844 71.4047 63.049 68.4743 65.788 65.7114C66.9886 64.5503 68.1233 63.5871 69.1261 62.9406C70.1157 62.3337 71.0525 61.9642 71.8178 62.149L71.6858 62.7823V62.7823ZM75.1559 68.8517L69.8782 78.6682L69.2976 78.3516L74.5754 68.535L75.1559 68.8517Z" fill="#1A1B22" stroke="#1A1B22" stroke-width="0.5" stroke-linejoin="round"/>
<path d="M59.0983 64.842L59.415 64.908V64.9344L59.0983 64.842ZM59.0983 64.842L58.7817 64.7628V64.7101C58.8363 64.4314 58.8716 64.1492 58.8872 63.8656C58.9268 63.3115 58.9136 62.5858 58.7553 61.8601C58.6216 61.1138 58.2678 60.4245 57.7393 59.8809C57.0225 59.2513 56.0937 58.9166 55.14 58.9441L55.1532 58.2844C56.2731 58.2582 57.36 58.6646 58.1879 59.4191C58.874 60.0789 59.2303 60.9101 59.4018 61.715C59.6209 62.7583 59.6299 63.8348 59.4282 64.8816V64.8948L59.0983 64.842V64.842ZM55.14 58.9441C54.8893 58.9441 54.5991 59.0233 54.2296 59.2344C53.8734 59.4455 53.4775 59.7622 53.0421 60.1976C52.1845 61.0552 51.2081 62.2955 50.179 63.8129C47.8376 67.4103 45.7011 71.137 43.7797 74.9752C41.046 80.3049 38.4763 85.7171 36.0743 91.2042L36.0479 91.257V91.2834L35.7312 91.1515L35.4277 91.0195L35.4409 90.9931L35.4673 90.9272L35.5993 90.6633C36.2931 89.0716 37.0057 87.4882 37.7367 85.9133C39.1485 82.839 41.0881 78.7488 43.186 74.6718C45.2971 70.5815 47.5665 66.4913 49.638 63.4434C50.5016 62.1148 51.4866 60.8692 52.5803 59.7226C53.0421 59.274 53.4775 58.9178 53.8998 58.6671C54.322 58.4164 54.7442 58.2712 55.1532 58.2712L55.14 58.931V58.9441ZM59.415 64.9344L54.9817 78.9467L54.3484 78.7488L58.7817 64.7364L59.415 64.9344V64.9344Z" fill="#1A1B22" stroke="#1A1B22" stroke-width="0.5" stroke-linejoin="round"/>
<path d="M172.702 156.753H222.181M202.389 118.49H222.181M202.389 122.448H222.181M202.389 113.212H227.459" stroke="#1A1B22"/>
<path d="M95.0527 22.1705H64.2572C62.0128 22.1705 60.1934 23.99 60.1934 26.2344V50.4327C60.1934 52.6771 62.0128 54.4966 64.2572 54.4966H95.0527C97.2971 54.4966 99.1166 52.6771 99.1166 50.4327V26.2344C99.1166 23.99 97.2971 22.1705 95.0527 22.1705Z" fill="white" stroke="#1A1B22"/>
<path d="M99.4462 50.6306C99.4462 51.7433 99.0042 52.8106 98.2173 53.5974C97.4304 54.3843 96.3632 54.8263 95.2504 54.8263H79.6547V37.6737H99.4462V50.6306ZM59.8633 26.0364C59.8633 24.9236 60.3053 23.8564 61.0922 23.0695C61.8791 22.2826 62.9463 21.8406 64.0591 21.8406H79.6547V37.6737H59.8633V26.0364Z" fill="#1A1B22"/>
<path d="M59.8633 37.3444H99.4462" stroke="#1A1B22"/>
<path d="M62.5039 28.5442L65.8025 25.2456M62.5039 25.2456L65.8025 28.5442" stroke="white"/>
<path d="M115.543 101.843L107.719 105.796C107.616 105.85 107.5 105.876 107.384 105.871C107.268 105.865 107.155 105.829 107.057 105.765C106.96 105.701 106.88 105.612 106.827 105.507C106.774 105.402 106.75 105.284 106.756 105.166L107.02 96.6988C107.025 96.5838 107.059 96.4721 107.119 96.3745C107.179 96.2769 107.263 96.1966 107.362 96.1414C107.462 96.0862 107.573 96.058 107.687 96.0594C107.8 96.0608 107.911 96.0918 108.009 96.1495L115.57 100.665C116.018 100.932 116.005 101.602 115.53 101.843H115.543Z" fill="white" stroke="#1A1B22"/>
<path d="M75.3945 96.0593H107.721V105.955H75.3945V96.0593Z" fill="white" stroke="#1A1B22" stroke-linejoin="round"/>
<path d="M73.7435 106.285C76.6583 106.285 79.0213 103.922 79.0213 101.007C79.0213 98.0922 76.6583 95.7292 73.7435 95.7292C70.8287 95.7292 68.4658 98.0922 68.4658 101.007C68.4658 103.922 70.8287 106.285 73.7435 106.285Z" fill="#1A1B22"/>
</svg>
