<svg width="280" height="186" viewBox="0 0 280 186" fill="none" xmlns="http://www.w3.org/2000/svg">
<path d="M179.767 54.3749C179.724 61.583 174.226 67.1343 167.524 66.8071C160.823 66.4905 155.388 60.4116 155.43 53.2034C155.472 46.0058 160.971 40.4546 167.672 40.7712C174.384 41.0878 179.809 47.1667 179.767 54.3854V54.3749Z" fill="white" stroke="#1A1B22"/>
<path d="M172.969 48.0106C172.977 48.6661 172.851 49.3163 172.599 49.9213C172.346 50.5263 171.973 51.0734 171.501 51.5289C171.03 51.9845 170.471 52.339 169.857 52.5706C169.244 52.8022 168.59 52.906 167.935 52.8758C166.581 52.7845 165.313 52.18 164.389 51.1857C163.465 50.1914 162.956 48.8822 162.964 47.5251C162.955 46.8687 163.08 46.2174 163.332 45.6111C163.584 45.0048 163.957 44.4565 164.428 43.9998C164.9 43.5431 165.46 43.1877 166.074 42.9554C166.688 42.7232 167.343 42.619 167.998 42.6493C169.353 42.7406 170.621 43.3451 171.544 44.3394C172.468 45.3337 172.978 46.6429 172.969 48V48.0106Z" stroke="#1A1B22"/>
<path d="M167.256 49.747C167.516 49.7594 167.729 49.4362 167.731 49.0251C167.734 48.614 167.525 48.2707 167.265 48.2583C167.005 48.2458 166.792 48.569 166.79 48.9801C166.787 49.3912 166.996 49.7345 167.256 49.747Z" fill="#1A1B22"/>
<path d="M169.514 49.8106C169.774 49.823 169.986 49.4998 169.989 49.0887C169.991 48.6776 169.783 48.3343 169.523 48.3219C169.263 48.3094 169.05 48.6326 169.047 49.0437C169.045 49.4548 169.254 49.7981 169.514 49.8106Z" fill="#1A1B22"/>
<path d="M176.177 63.2184C176.177 63.7144 172.346 67.4399 167.639 67.2077C162.943 66.9861 159.154 63.5878 159.154 62.8912C159.175 58.9653 163.027 52.7386 167.724 52.9708C172.431 53.1924 176.209 59.2924 176.177 63.2184Z" fill="white"/>
<path d="M176.178 63.2187C176.178 63.7147 172.347 67.4401 167.64 67.2079C162.944 66.9863 159.155 63.588 159.155 62.8915C159.176 58.9655 163.028 52.7389 167.725 52.971C172.432 53.1927 176.21 59.2927 176.178 63.2187Z" fill="#1A1B22"/>
<path d="M175.577 63.1867C175.577 63.0601 175.63 62.9968 175.608 63.0284C175.583 63.0691 175.555 63.1079 175.524 63.1445C175.388 63.3136 175.24 63.4723 175.081 63.6194C174.68 64.0099 174.089 64.4954 173.339 64.9598C171.647 66.0647 169.661 66.6347 167.64 66.5956V67.8198C170.152 67.9465 172.4 67.0072 174.004 66.0151C174.696 65.5888 175.343 65.0938 175.936 64.5376C176.133 64.3506 176.316 64.1496 176.484 63.9361C176.558 63.8411 176.622 63.7566 176.664 63.6617C176.741 63.534 176.785 63.3887 176.79 63.2395L175.577 63.1867V63.1867ZM167.651 66.5956C165.435 66.49 163.408 65.6246 161.941 64.6959C161.328 64.3231 160.756 63.8881 160.232 63.3978C160.077 63.2521 159.936 63.0932 159.81 62.9229C159.786 62.8895 159.764 62.8542 159.746 62.8174L159.757 62.9229L158.554 62.8701C158.558 63.0168 158.594 63.1609 158.659 63.2923C158.701 63.3978 158.765 63.5034 158.839 63.6089C158.986 63.82 159.176 64.031 159.409 64.2632C159.999 64.8215 160.647 65.3167 161.34 65.7407C162.933 66.7433 165.16 67.7037 167.64 67.8198V66.5956H167.651ZM159.757 62.9229C159.767 61.1288 160.675 58.7014 162.174 56.7596C163.672 54.8177 165.656 53.4879 167.725 53.5829V52.3481C165.108 52.232 162.817 53.8995 161.203 55.9786C159.599 58.0682 158.564 60.7277 158.554 62.8701L159.757 62.9229V62.9229ZM167.725 53.5829C169.825 53.6884 171.788 55.1026 173.255 57.0656C174.722 59.0286 175.587 61.3926 175.577 63.1867L176.78 63.2501C176.801 61.1077 175.788 58.4693 174.205 56.348C172.622 54.2161 170.342 52.4748 167.735 52.3481L167.725 53.5829Z" fill="#1A1B22"/>
<path d="M160.748 46.0055C161.234 46.9554 162.627 48.1796 164.547 46.3749M165.212 45.6362C165.005 45.898 164.779 46.1449 164.537 46.3749M164.537 46.3749C165.033 46.7021 167.703 47.1875 168.632 45.0029" stroke="#1A1B22" stroke-linecap="round" stroke-linejoin="round"/>
<path d="M171.988 44.4438C171.418 45.2143 169.814 46.5651 167.883 45.7947" stroke="#1A1B22"/>
<path d="M139.083 19.7902C139.083 18.9813 139.404 18.2056 139.976 17.6336C140.548 17.0616 141.324 16.7402 142.133 16.7402H221.159C221.968 16.7402 222.744 17.0616 223.316 17.6336C223.888 18.2056 224.209 18.9813 224.209 19.7902V36.6972C224.209 37.5061 223.888 38.2819 223.316 38.8539C222.744 39.4259 221.968 39.7472 221.159 39.7472H142.144C141.742 39.7472 141.345 39.668 140.974 39.5141C140.603 39.3601 140.267 39.1345 139.983 38.8502C139.7 38.5658 139.475 38.2284 139.323 37.8571C139.17 37.4858 139.092 37.0881 139.094 36.6867V19.7902H139.083Z" fill="#1D6BF3"/>
<path d="M149.002 21.869C149.002 21.869 145.783 28.1485 145.783 31.3779C145.783 34.7973 148.886 33.7736 152.02 32.0744C154.553 30.7024 157.487 28.349 159.018 26.481C162.215 22.5761 158.574 28.9083 160.622 30.0165C163.197 31.4201 167.165 29.9109 169.212 28.5073C174.204 25.1301 170.648 30.0165 175.049 30.0165C176.452 30.0165 178.711 28.5812 181.064 26.7554C180.241 31.2829 188.22 28.3068 190.679 27.4203C192.599 26.7343 196.145 24.8557 196.705 23.5154C197.855 20.7925 193.961 21.4785 192.103 24.0431C191.428 24.9824 190.172 26.1327 190.351 29.4782C190.584 34.0163 195.597 33.4886 197.528 32.7393C199.892 31.9374 202.111 30.7615 204.103 29.2566C204.525 28.9189 206.815 25.5945 205.855 24.1803C205.433 23.5787 204.937 23.3888 204.251 23.5154C201.549 24.0431 203.543 30.3436 206.71 31.114C209.876 31.8739 211.649 26.4704 217.432 27.4203" stroke="white" stroke-linecap="round" stroke-linejoin="round"/>
<path d="M210.731 42.0692C211.216 42.6285 212.082 42.6285 212.567 42.0692L215.343 38.9031H207.955L210.731 42.0692Z" fill="#1A1B22"/>
<path d="M69.8711 55.6409C69.8711 54.9132 70.1602 54.2153 70.6748 53.7007C71.1894 53.1861 71.8873 52.897 72.615 52.897H209.813C210.541 52.897 211.238 53.1861 211.753 53.7007C212.268 54.2153 212.557 54.9132 212.557 55.6409V143.585C212.557 144.312 212.268 145.01 211.753 145.525C211.238 146.04 210.541 146.329 209.813 146.329H72.615C71.8873 146.329 71.1894 146.04 70.6748 145.525C70.1602 145.01 69.8711 144.312 69.8711 143.585V55.6409V55.6409Z" fill="white" stroke="#1A1B22"/>
<path d="M81.9864 70.6489C81.9578 70.6189 81.9234 70.595 81.8853 70.5787C81.8472 70.5624 81.8062 70.554 81.7648 70.554C81.7233 70.554 81.6823 70.5624 81.6442 70.5787C81.6061 70.595 81.5717 70.6189 81.5431 70.6489L79.6118 72.5803C79.5757 72.6058 79.5455 72.6389 79.5234 72.6772C79.5013 72.7156 79.4877 72.7582 79.4837 72.8023C79.4797 72.8464 79.4852 72.8908 79.5 72.9325C79.5148 72.9742 79.5385 73.0122 79.5694 73.0439C79.6003 73.0756 79.6377 73.1002 79.6791 73.116C79.7204 73.1318 79.7647 73.1385 79.8088 73.1356C79.853 73.1326 79.896 73.1201 79.9348 73.099C79.9737 73.0778 80.0075 73.0485 80.034 73.013L81.7648 71.2927L83.485 73.013C83.5106 73.0491 83.5436 73.0793 83.582 73.1014C83.6203 73.1235 83.663 73.1371 83.7071 73.1411C83.7511 73.1451 83.7956 73.1395 83.8373 73.1247C83.879 73.1099 83.917 73.0863 83.9487 73.0554C83.9803 73.0245 84.0049 72.9871 84.0208 72.9457C84.0366 72.9044 84.0433 72.8601 84.0403 72.816C84.0374 72.7718 84.0249 72.7288 84.0037 72.6899C83.9826 72.6511 83.9532 72.6172 83.9177 72.5908L81.9758 70.6489H81.9864ZM81.4587 70.86V131.069H82.0708V70.86H81.4587V70.86Z" fill="#1A1B22"/>
<path d="M198.837 130.393H84.2031" stroke="#1A1B22" stroke-miterlimit="10"/>
<path d="M81.2794 140.545C83.028 140.545 84.4455 139.029 84.4455 137.158C84.4455 135.287 83.028 133.77 81.2794 133.77C79.5308 133.77 78.1133 135.287 78.1133 137.158C78.1133 139.029 79.5308 140.545 81.2794 140.545Z" fill="#1A1B22"/>
<path d="M105.543 26.5127H52.5004C50.3088 26.5127 48.5322 28.2893 48.5322 30.4809V62.5218C48.5322 64.7134 50.3088 66.49 52.5004 66.49H105.543C107.735 66.49 109.511 64.7134 109.511 62.5218V30.4809C109.511 28.2893 107.735 26.5127 105.543 26.5127Z" fill="white" stroke="#1A1B22"/>
<path d="M131.156 73.572H146.396V129.042H131.167L131.156 73.572ZM147.008 95.893H162.258V129.042H146.997L147.008 95.893ZM115.305 114.837H130.544V129.042H115.305V114.837ZM99.4424 106.711H114.692V129.042H99.4424V106.711ZM83.5908 76.9492H98.8409V129.042H83.5908V76.9492ZM162.859 84.3895H178.11V129.042H162.859V84.3895ZM178.722 101.983H193.961V129.042H178.722V101.983Z" fill="#1D6BF3"/>
<path d="M179.629 126.002C179.629 126.002 177.803 123.966 172.927 107.734C170.236 98.795 173.233 95.5551 174.447 95.2174C175.397 95.0907 176.579 94.5419 178.415 96.2305C180.157 95.1751 171.397 83.3761 173.835 71.8726C183.291 59.6937 190.404 97.4442 192.431 98.5945C193.043 100.283 195.174 104.684 195.787 104.684C195.998 104.684 192.399 96.7793 192.441 90.4788C191.428 81.5081 190.879 69.4769 192.441 65.4454C192.779 64.5484 194.573 69.5086 194.974 68.8226C196.589 66.0998 198.562 65.0761 200.061 65.4454C211.037 68.1577 213.496 100.853 215.3 100.283C215.377 100.261 215.455 100.24 215.533 100.22C219.416 99.0589 225.358 98.5945 225.358 98.5945V104.009L226.888 115.85L228.714 125.316C228.714 125.316 226.582 148.323 214.688 152.724C202.805 157.115 193.053 147.648 193.053 147.648L182.985 133.105L179.629 126.002V126.002Z" fill="white"/>
<path d="M200.832 161.252C200.832 161.252 199.46 155.943 185.782 137.348C179.123 128.06 167.313 99.7765 173.983 95.4073C175.239 94.5841 177.276 94.8163 179.017 96.9692" stroke="#1A1B22" stroke-linecap="round" stroke-linejoin="round"/>
<path d="M185.804 121.813C185.804 121.813 180.917 101.392 177.287 91.6927C173.656 81.9833 170.691 71.1447 176.833 69.245C184.664 66.976 191.819 100.769 195.809 104.8C193.983 97.8666 189.55 80.5797 186.257 74.0364C182.965 67.4931 185.804 62.058 189.666 62.8073C193.529 63.5566 203.418 80.2103 208.304 101.518" stroke="#1A1B22" stroke-linecap="round" stroke-linejoin="round"/>
<path d="M195.206 68.5273C195.206 68.5273 195.839 64.9813 199.681 65.0446C203.512 65.0868 210.836 73.973 214.593 99.8401C214.593 99.8401 215.121 94.3944 215.216 82.6692C215.3 70.9547 218.139 70.2687 220.44 70.6064C222.74 70.9547 225.759 74.5535 225.231 88.5898C224.703 102.626 226.075 110.974 228.429 123.966C230.782 136.957 235.679 155.68 235.679 155.68M57.3748 45.9002H82.3765M57.3643 53.2561H82.3765M57.3643 39.0509H82.3765" stroke="#1A1B22" stroke-linecap="round" stroke-linejoin="round"/>
<path d="M99.5692 41.9951C100.051 42.8384 100.379 43.7602 100.54 44.7179L100.245 44.7707C100.402 45.6963 100.402 46.6418 100.245 47.5674L100.54 47.6096C100.379 48.5673 100.051 49.4891 99.5692 50.3325L99.3053 50.1847C98.8487 50.9972 98.2395 51.7139 97.5112 52.2954L97.6906 52.5276C96.9275 53.1312 96.0413 53.5599 95.0944 53.7835L95.0311 53.488C94.1285 53.6975 93.1898 53.6975 92.2872 53.488L92.2133 53.7835C91.2664 53.5599 90.3802 53.1312 89.6171 52.5276L89.807 52.2849C89.076 51.7075 88.4632 50.9944 88.0024 50.1847L87.7385 50.3325C87.2572 49.489 86.9285 48.5673 86.7676 47.6096L87.0631 47.5674C86.9058 46.6418 86.9058 45.6963 87.0631 44.7707L86.7676 44.7179C86.9283 43.7602 87.257 42.8384 87.7385 41.9951L88.0024 42.1428C88.4601 41.3341 89.0692 40.6211 89.7965 40.0426L89.6171 39.7999C90.3811 39.2001 91.2673 38.7751 92.2133 38.5546L92.2872 38.8501C93.1898 38.6406 94.1285 38.6406 95.0311 38.8501L95.0944 38.5546C96.0404 38.7751 96.9266 39.2001 97.6906 39.7999L97.5007 40.0426C98.2366 40.6222 98.8531 41.339 99.3159 42.1534L99.5797 41.9951H99.5692Z" stroke="#1A1B22" stroke-dasharray="2.31 2.31"/>
<path d="M92.7514 46.7445C92.7383 46.7833 92.7332 46.8243 92.7362 46.8652C92.7393 46.906 92.7505 46.9458 92.7692 46.9822C92.7878 47.0186 92.8137 47.0509 92.845 47.0771C92.8764 47.1034 92.9128 47.1231 92.9519 47.135L95.5587 47.9793C95.598 48.0016 95.6417 48.0148 95.6868 48.0182C95.7318 48.0215 95.7771 48.0148 95.8192 47.9986C95.8614 47.9824 95.8995 47.9571 95.9307 47.9244C95.9619 47.8918 95.9855 47.8526 95.9998 47.8097C96.014 47.7669 96.0187 47.7214 96.0133 47.6766C96.0079 47.6317 95.9927 47.5886 95.9687 47.5503C95.9447 47.5121 95.9125 47.4796 95.8744 47.4552C95.8364 47.4309 95.7934 47.4152 95.7486 47.4094L93.4268 46.6496L94.1867 44.3278C94.2059 44.2525 94.1957 44.1728 94.1583 44.1048C94.1209 44.0368 94.0591 43.9855 93.9853 43.9613C93.9115 43.9372 93.8313 43.942 93.7609 43.9747C93.6906 44.0075 93.6353 44.0658 93.6062 44.1378L92.762 46.7445H92.7514ZM115.611 50.565L115.357 50.3856C115.32 50.4443 115.304 50.5139 115.312 50.5829C115.32 50.6518 115.351 50.7162 115.4 50.7653C115.449 50.8144 115.513 50.8453 115.582 50.853C115.651 50.8607 115.721 50.8448 115.78 50.8077L115.611 50.565V50.565ZM120.233 87.925C120.184 87.9908 120.163 88.0733 120.175 88.1544C120.187 88.2356 120.231 88.3087 120.296 88.3577C120.362 88.4067 120.445 88.4275 120.526 88.4156C120.607 88.4038 120.68 88.3601 120.729 88.2944L120.233 87.9355V87.925ZM93.1841 47.1245C102.862 42.2276 109.067 40.0219 112.951 39.4625C114.893 39.1776 116.212 39.3148 117.078 39.6841C117.922 40.0535 118.365 40.6656 118.555 41.4255C118.735 42.2065 118.64 43.1457 118.386 44.1483C118.122 45.1404 117.7 46.1747 117.257 47.1034C116.711 48.2201 116.09 49.299 115.4 50.3328L115.368 50.3856C115.365 50.3894 115.361 50.3929 115.357 50.3961L115.611 50.5755L115.853 50.7444C116.58 49.6645 117.233 48.5361 117.806 47.3672C118.26 46.4174 118.703 45.3515 118.967 44.3066C119.241 43.2513 119.357 42.1959 119.146 41.2883C119.043 40.8055 118.822 40.3556 118.504 39.9783C118.185 39.601 117.779 39.3079 117.32 39.1248C116.307 38.6921 114.851 38.5655 112.867 38.861C108.877 39.4309 102.598 41.6788 92.9097 46.5862L93.1841 47.1245V47.1245ZM115.611 50.5755L115.79 50.8183L115.832 50.7866L115.969 50.6916C116.762 50.1389 117.571 49.6109 118.397 49.1086C120.385 47.889 122.467 46.8303 124.623 45.9425C126.942 44.9371 129.432 44.3854 131.958 44.3172C134.312 44.3489 136.412 45.0982 137.932 47.0401L138.407 46.6707C136.75 44.5494 134.449 43.7368 131.969 43.7051C129.499 43.6734 126.84 44.4122 124.391 45.3937C122.205 46.2889 120.095 47.3583 118.08 48.5914C117.241 49.1006 116.417 49.6356 115.611 50.1956L115.473 50.3011L115.442 50.3222H115.431L115.611 50.5755ZM137.932 47.0401C138.66 47.9793 138.976 49.2985 138.924 50.9449C138.808 52.8836 138.428 54.7974 137.794 56.6333C136.444 60.8548 134.037 65.7412 131.441 70.3848C128.834 75.0284 126.038 79.4187 123.885 82.6481C123.019 83.9453 122.14 85.2329 121.246 86.5108L120.508 87.5661L120.296 87.8511C120.279 87.8829 120.262 87.9146 120.244 87.9461L120.486 88.1255L120.729 88.3049C120.73 88.3014 120.73 88.2978 120.729 88.2944L120.75 88.2732L120.803 88.1994L121.004 87.925C122.157 86.2951 123.286 84.6486 124.391 82.9859C126.544 79.7459 129.352 75.345 131.969 70.6803C134.576 66.0261 137.003 61.0975 138.375 56.8233C139.027 54.9328 139.417 52.9622 139.536 50.966C139.589 49.2458 139.261 47.7577 138.407 46.6601L137.932 47.0401Z" fill="#1A1B22"/>
<path d="M229.021 30.6078C232.492 33.051 234.98 36.6501 236.039 40.7605M229.327 26.5447C231.437 27.0407 234.508 28.9193 235.733 30.9456" stroke="#1A1B22" stroke-linecap="round" stroke-linejoin="round"/>
<path d="M84.2031 81.0117H172.316" stroke="#1A1B22" stroke-linecap="round" stroke-linejoin="round" stroke-dasharray="2.31 2.31"/>
<path d="M116.212 104.684C120.082 104.684 123.219 101.202 123.219 96.906C123.219 92.6103 120.082 89.1279 116.212 89.1279C112.342 89.1279 109.204 92.6103 109.204 96.906C109.204 101.202 112.342 104.684 116.212 104.684Z" fill="#1A1B22"/>
<path d="M115.336 92.2413L114.84 92.3891L115.009 93.0434C114.07 93.4339 113.267 94.2887 113.542 95.3652C113.806 96.3995 114.692 96.7161 115.674 96.6739L115.927 96.6633L116.507 98.9535C115.916 99.059 115.262 98.7741 115.019 97.8664L114.091 98.1619C114.386 99.3756 115.452 99.9666 116.697 99.6922L116.887 100.442L117.383 100.294L117.183 99.5339C118.291 99.1118 119.104 98.2042 118.798 97.001C118.481 95.7346 117.352 95.6818 116.339 95.7346H116.223L115.684 93.6239C116.254 93.5289 116.835 93.7611 117.067 94.6159L117.985 94.331C117.7 93.1595 116.719 92.6107 115.494 92.8851L115.336 92.2413V92.2413ZM115.653 95.7663C114.998 95.7768 114.576 95.5657 114.45 95.0592C114.281 94.4259 114.692 93.951 115.188 93.7716L115.695 95.7663H115.663H115.653ZM116.455 96.6422C117.236 96.6106 117.742 96.695 117.922 97.381C118.091 98.0564 117.626 98.5735 117.003 98.8163L116.455 96.6422Z" fill="white"/>
<path d="M72.9209 168.924C75 164.122 87.485 147.563 92.4346 144.999C115.906 132.683 128.718 112.799 120.718 105.211C111.769 99.924 107.073 124.947 92.9834 119.29C88.171 117.348 88.4665 106.351 100.371 100.599C100.371 100.599 113.109 94.32 111.769 88.1672C110.049 80.3047 90.8516 82.0777 79.327 102.045C77.7439 104.821 76.9419 107.734 76.2664 110.509" fill="white"/>
<path d="M72.6465 168.808C72.6262 168.845 72.6139 168.886 72.6104 168.928C72.6069 168.971 72.6122 169.013 72.6261 169.054C72.6399 169.094 72.662 169.131 72.6908 169.162C72.7196 169.193 72.7546 169.218 72.7936 169.235C72.8325 169.251 72.8746 169.26 72.917 169.26C72.9595 169.26 73.0014 169.251 73.0402 169.233C73.079 169.216 73.1137 169.191 73.1422 169.159C73.1708 169.128 73.1924 169.091 73.2058 169.05L72.6465 168.808ZM92.4346 144.999L92.5718 145.273L92.4346 144.999ZM120.718 105.211L120.93 105C120.917 104.985 120.903 104.971 120.887 104.958L120.729 105.222L120.718 105.211ZM92.9939 119.3L93.0995 119.016L92.9939 119.3ZM100.382 100.62L100.508 100.884L100.371 100.61L100.382 100.62ZM111.779 88.1777L111.473 88.241L111.779 88.1777ZM79.3269 102.045L79.0631 101.897L79.3269 102.045ZM75.9814 110.435C75.966 110.476 75.9595 110.52 75.9624 110.563C75.9652 110.607 75.9773 110.649 75.9979 110.688C76.0184 110.726 76.047 110.76 76.0816 110.786C76.1162 110.813 76.1561 110.832 76.1986 110.842C76.241 110.851 76.2851 110.852 76.3279 110.844C76.3707 110.835 76.4111 110.817 76.4465 110.792C76.4819 110.766 76.5115 110.734 76.5332 110.696C76.5549 110.658 76.5683 110.616 76.5724 110.573L75.9814 110.435ZM73.2058 169.061C74.1257 167.194 75.1951 165.405 76.4036 163.71C78.1285 161.185 79.9413 158.721 81.8387 156.323C83.7266 153.914 85.7196 151.59 87.8121 149.357C89.7118 147.373 91.3898 145.896 92.5718 145.273L92.2974 144.745C91.0099 145.4 89.2685 146.962 87.3688 148.946C85.4692 150.951 83.369 153.41 81.3638 155.943C79.4552 158.351 77.6318 160.826 75.897 163.362C74.3562 165.631 73.1742 167.584 72.6465 168.818L73.2058 169.061ZM92.5718 145.273C104.35 139.099 113.468 131.026 118.639 123.511C121.214 119.765 122.829 116.134 123.283 112.958C123.737 109.76 123.019 106.984 120.94 105.011L120.518 105.444C122.418 107.259 123.114 109.813 122.671 112.863C122.249 115.923 120.676 119.459 118.133 123.163C113.025 130.582 103.991 138.603 92.2974 144.735L92.5718 145.273V145.273ZM120.877 104.958C119.874 104.32 118.675 104.066 117.5 104.24C116.402 104.42 115.389 104.979 114.407 105.75C112.444 107.29 110.555 109.781 108.54 112.208C106.513 114.657 104.36 117.042 101.848 118.477C100.54 119.267 99.06 119.728 97.5348 119.821C96.0095 119.915 94.4842 119.639 93.0889 119.016L92.8779 119.585C94.3564 120.242 95.9712 120.533 97.5858 120.434C99.2005 120.334 100.768 119.848 102.155 119.016C104.761 117.517 106.988 115.037 109.014 112.599C111.051 110.129 112.888 107.713 114.777 106.224C115.582 105.538 116.548 105.066 117.584 104.853C118.623 104.694 119.685 104.919 120.571 105.486L120.887 104.958H120.877ZM93.11 119.016C90.9043 118.129 89.7645 115.111 90.7144 111.459C91.6431 107.85 94.6192 103.723 100.508 100.884L100.234 100.336C94.2182 103.248 91.1048 107.501 90.1233 111.311C89.1419 115.09 90.2605 118.53 92.8779 119.585L93.11 119.016V119.016ZM100.371 100.61L100.508 100.884L100.55 100.863L100.656 100.81C101.276 100.488 101.889 100.15 102.492 99.7973C103.977 98.94 105.404 97.9882 106.766 96.9478C108.307 95.8042 109.669 94.4385 110.809 92.8952C111.843 91.4071 112.434 89.7713 112.075 88.1144L111.473 88.241C111.79 89.6658 111.294 91.1222 110.313 92.5469C109.198 94.0369 107.867 95.3529 106.365 96.4518C105.027 97.4764 103.624 98.4141 102.165 99.2591C101.538 99.6277 100.901 99.9796 100.255 100.314H100.223C100.223 100.318 100.223 100.321 100.223 100.325L100.35 100.599L100.371 100.61ZM112.075 88.1144C111.611 86.0036 109.985 84.5789 107.685 83.9246C105.395 83.2808 102.408 83.3969 99.1362 84.3889C92.6035 86.373 84.8676 91.8609 79.0737 101.897L79.6013 102.204C85.3214 92.2831 92.9517 86.9007 99.3262 84.9694C102.513 84.009 105.373 83.914 107.516 84.5156C109.669 85.1171 111.083 86.4152 111.473 88.241L112.075 88.1144ZM79.0631 101.887C77.4484 104.694 76.6463 107.649 75.9814 110.425L76.5724 110.562C77.2373 107.797 78.0288 104.926 79.5908 102.193L79.0631 101.876V101.887Z" fill="#1A1B22"/>
<path d="M78.1024 103.639C78.1024 103.639 60.5411 67.3343 50.2407 73.6243C39.9298 79.9143 66.7045 112.251 66.7045 112.251" fill="white"/>
<path d="M78.1024 103.639C78.1024 103.639 60.5411 67.3343 50.2407 73.6243C39.9298 79.9143 66.7045 112.251 66.7045 112.251" stroke="#1A1B22" stroke-linecap="round" stroke-linejoin="round"/>
<path d="M48.4047 81.8777C48.4047 81.8777 40.4261 83.904 45.8507 95.8085C48.3519 101.36 54.1987 109.074 59.7499 115.702C66.3354 123.617 56.6366 144.45 49.2595 151.49" stroke="#1A1B22" stroke-linecap="round" stroke-linejoin="round"/>
<path d="M61.6396 126.984C57.0698 118.53 50.3999 114.056 48.4686 109.834C45.999 104.504 47.1283 101.782 48.4686 100.441" stroke="#1A1B22" stroke-linecap="round" stroke-linejoin="round"/>
<path d="M67.7393 108.747H75.053V149.337H67.7393V108.747Z" fill="white"/>
<path d="M198.531 58.3431C198.531 59.5146 197.687 60.4116 196.706 60.4116C195.724 60.4116 194.88 59.5146 194.88 58.3431C194.88 57.1822 195.724 56.2852 196.706 56.2852C197.687 56.2852 198.531 57.1717 198.531 58.3431ZM204.019 58.3431C204.019 59.5146 203.175 60.4116 202.194 60.4116C201.212 60.4116 200.368 59.5146 200.368 58.3431C200.368 57.1822 201.212 56.2852 202.194 56.2852C203.175 56.2852 204.019 57.1717 204.019 58.3431ZM209.507 58.3431C209.507 59.5146 208.663 60.4116 207.681 60.4116C206.7 60.4116 205.856 59.5146 205.856 58.3431C205.856 57.1822 206.7 56.2852 207.681 56.2852C208.663 56.2852 209.507 57.1717 209.507 58.3431Z" stroke="#1A1B22"/>
</svg>
