<svg width="194" height="61" viewBox="0 0 194 61" fill="none" xmlns="http://www.w3.org/2000/svg">
<path d="M49 33.8154V37.8154C49 38.3459 48.7893 38.8546 48.4142 39.2296C48.0391 39.6047 47.5304 39.8154 47 39.8154H33C32.4696 39.8154 31.9609 39.6047 31.5858 39.2296C31.2107 38.8546 31 38.3459 31 37.8154V33.8154" stroke="black" stroke-width="2" stroke-linecap="round" stroke-linejoin="round"/>
<path d="M45 26.8154L40 21.8154L35 26.8154" stroke="black" stroke-width="2" stroke-linecap="round" stroke-linejoin="round"/>
<path d="M40 21.8154V33.8154" stroke="black" stroke-width="2" stroke-linecap="round" stroke-linejoin="round"/>
<path d="M65.6204 23.9094H75.7184V36.8154H73.5224V25.7994H67.7984V36.8154H65.6204V23.9094ZM82.304 36.9954C81.644 36.9954 81.032 36.8874 80.468 36.6714C79.904 36.4554 79.412 36.1434 78.992 35.7354C78.584 35.3154 78.26 34.8054 78.02 34.2054C77.792 33.6054 77.678 32.9154 77.678 32.1354C77.678 31.3554 77.792 30.6654 78.02 30.0654C78.26 29.4654 78.584 28.9614 78.992 28.5534C79.412 28.1334 79.904 27.8214 80.468 27.6174C81.032 27.4014 81.644 27.2934 82.304 27.2934C82.964 27.2934 83.576 27.4014 84.14 27.6174C84.704 27.8214 85.196 28.1334 85.616 28.5534C86.036 28.9614 86.366 29.4654 86.606 30.0654C86.846 30.6654 86.966 31.3554 86.966 32.1354C86.966 32.9154 86.846 33.6054 86.606 34.2054C86.366 34.8054 86.036 35.3154 85.616 35.7354C85.196 36.1434 84.704 36.4554 84.14 36.6714C83.576 36.8874 82.964 36.9954 82.304 36.9954ZM82.304 35.2494C83.024 35.2494 83.618 34.9974 84.086 34.4934C84.566 33.9894 84.806 33.2034 84.806 32.1354C84.806 31.0794 84.566 30.2994 84.086 29.7954C83.618 29.2794 83.024 29.0214 82.304 29.0214C81.596 29.0214 81.002 29.2794 80.522 29.7954C80.054 30.2994 79.82 31.0794 79.82 32.1354C79.82 33.2034 80.054 33.9894 80.522 34.4934C81.002 34.9974 81.596 35.2494 82.304 35.2494ZM88.3379 35.1234C88.6139 34.8834 88.8299 34.5534 88.9859 34.1334C89.1539 33.7134 89.2859 33.1914 89.3819 32.5674C89.4779 31.9314 89.5499 31.1934 89.5979 30.3534C89.6459 29.5134 89.6879 28.5534 89.7239 27.4734H96.5639V35.1234H97.9679V39.4794H96.1499L95.9879 36.8154H89.5439L89.3819 39.4794H87.5459V35.1234H88.3379ZM94.4759 35.1234V29.1654H91.5239C91.4639 30.6414 91.3619 31.8654 91.2179 32.8374C91.0859 33.7974 90.8639 34.5594 90.5519 35.1234H94.4759ZM107.142 36.1314C107.01 36.2154 106.848 36.3114 106.656 36.4194C106.464 36.5154 106.236 36.6054 105.972 36.6894C105.708 36.7734 105.402 36.8454 105.054 36.9054C104.706 36.9654 104.31 36.9954 103.866 36.9954C102.15 36.9954 100.866 36.5694 100.014 35.7174C99.1742 34.8654 98.7542 33.6714 98.7542 32.1354C98.7542 31.3794 98.8682 30.7014 99.0962 30.1014C99.3242 29.5014 99.6422 28.9974 100.05 28.5894C100.458 28.1694 100.944 27.8514 101.508 27.6354C102.072 27.4074 102.69 27.2934 103.362 27.2934C104.058 27.2934 104.682 27.4074 105.234 27.6354C105.798 27.8634 106.26 28.2054 106.62 28.6614C106.98 29.1174 107.226 29.6814 107.358 30.3534C107.502 31.0254 107.508 31.8114 107.376 32.7114H100.914C100.998 33.5634 101.28 34.2054 101.76 34.6374C102.24 35.0574 102.99 35.2674 104.01 35.2674C104.754 35.2674 105.372 35.1774 105.864 34.9974C106.368 34.8054 106.794 34.6074 107.142 34.4034V36.1314ZM103.362 28.9494C102.75 28.9494 102.234 29.1354 101.814 29.5074C101.394 29.8794 101.118 30.4314 100.986 31.1634H105.378C105.402 30.4074 105.234 29.8494 104.874 29.4894C104.514 29.1294 104.01 28.9494 103.362 28.9494ZM110.089 33.5034C110.221 32.8914 110.305 32.0994 110.341 31.1274C110.389 30.1434 110.413 28.9254 110.413 27.4734H117.127V36.8154H115.039V29.1654H112.321C112.297 30.4014 112.249 31.4934 112.177 32.4414C112.105 33.3894 111.955 34.1934 111.727 34.8534C111.511 35.5014 111.193 35.9994 110.773 36.3474C110.365 36.6954 109.813 36.8694 109.117 36.8694C109.021 36.8694 108.925 36.8634 108.829 36.8514C108.745 36.8514 108.655 36.8454 108.559 36.8334V34.8894C108.679 34.9134 108.769 34.9254 108.829 34.9254C109.153 34.9254 109.411 34.8114 109.603 34.5834C109.807 34.3434 109.969 33.9834 110.089 33.5034ZM121.562 33.9894L125.882 27.4734H127.934V36.8154H125.864V30.3354L121.58 36.8154H119.492V27.4734H121.562V33.9894ZM134.461 29.1654V36.8154H132.373V29.1654H129.547V27.4734H137.341V29.1654H134.461ZM146.458 33.5934C146.458 34.1334 146.356 34.6074 146.152 35.0154C145.96 35.4234 145.69 35.7594 145.342 36.0234C144.994 36.2874 144.58 36.4854 144.1 36.6174C143.62 36.7494 143.092 36.8154 142.516 36.8154H138.916V27.4734H141.004V30.4974H142.57C143.794 30.4974 144.748 30.7494 145.432 31.2534C146.116 31.7574 146.458 32.5374 146.458 33.5934ZM141.004 32.1534V35.1774H142.354C142.93 35.1774 143.398 35.0634 143.758 34.8354C144.118 34.5954 144.298 34.2054 144.298 33.6654C144.298 33.1254 144.136 32.7414 143.812 32.5134C143.488 32.2734 143.02 32.1534 142.408 32.1534H141.004ZM152.464 36.9954C151.708 36.9954 151.03 36.8874 150.43 36.6714C149.83 36.4434 149.32 36.1254 148.9 35.7174C148.48 35.2974 148.156 34.7874 147.928 34.1874C147.7 33.5874 147.586 32.9034 147.586 32.1354C147.586 31.3794 147.7 30.7014 147.928 30.1014C148.156 29.5014 148.48 28.9974 148.9 28.5894C149.32 28.1694 149.836 27.8514 150.448 27.6354C151.06 27.4074 151.744 27.2934 152.5 27.2934C153.148 27.2934 153.712 27.3654 154.192 27.5094C154.684 27.6534 155.074 27.8334 155.362 28.0494V29.7774C154.99 29.5374 154.582 29.3514 154.138 29.2194C153.706 29.0874 153.202 29.0214 152.626 29.0214C150.694 29.0214 149.728 30.0594 149.728 32.1354C149.728 34.2114 150.676 35.2494 152.572 35.2494C153.184 35.2494 153.706 35.1834 154.138 35.0514C154.582 34.9074 154.99 34.7274 155.362 34.5114V36.2394C155.05 36.4434 154.66 36.6234 154.192 36.7794C153.724 36.9234 153.148 36.9954 152.464 36.9954ZM157.177 30.5334C157.177 30.0294 157.273 29.5854 157.465 29.2014C157.657 28.8174 157.921 28.4994 158.257 28.2474C158.605 27.9834 159.019 27.7914 159.499 27.6714C159.991 27.5394 160.531 27.4734 161.119 27.4734H164.593V36.8154H162.505V33.6474H161.173L158.959 36.8154H156.619L159.193 33.1974C158.545 33.0054 158.047 32.6934 157.699 32.2614C157.351 31.8294 157.177 31.2534 157.177 30.5334ZM162.505 31.9914V29.1294H161.281C160.705 29.1294 160.231 29.2374 159.859 29.4534C159.499 29.6694 159.319 30.0294 159.319 30.5334C159.319 31.0494 159.481 31.4214 159.805 31.6494C160.141 31.8774 160.615 31.9914 161.227 31.9914H162.505Z" fill="black"/>
<rect x="0.5" y="1.31543" width="193" height="59" rx="29.5" stroke="black"/>
</svg>
