<svg width="38" height="41" viewBox="0 0 38 41" fill="none" xmlns="http://www.w3.org/2000/svg">
<path d="M25.8852 14.5033C25.8852 15.6498 25.6984 16.6165 25.3246 17.4034C24.9509 18.1678 24.472 18.8197 23.8881 19.3593C23.3274 19.8988 22.7084 20.3597 22.031 20.7419C21.377 21.1241 20.758 21.495 20.174 21.8547C19.6134 22.1919 19.1462 22.5629 18.7725 22.9675C18.3987 23.3722 18.2119 23.8555 18.2119 24.4176V25.092H14.4978V24.4513C14.4978 23.4396 14.673 22.6078 15.0234 21.9559C15.3738 21.3039 15.8176 20.7531 16.3549 20.3035C16.8921 19.8539 17.4644 19.4604 18.0717 19.1232C18.6791 18.7635 19.2513 18.3926 19.7886 18.0104C20.3258 17.6057 20.7697 17.1449 21.12 16.6278C21.4704 16.0882 21.6456 15.3913 21.6456 14.537C21.6456 14.0874 21.5872 13.649 21.4704 13.2219C21.3536 12.7722 21.12 12.3788 20.7697 12.0416C20.4426 11.7044 19.9755 11.4346 19.3681 11.2323C18.7608 11.0074 17.9666 10.895 16.9855 10.895C15.7942 10.895 14.8015 11.0299 14.0073 11.2997C13.2131 11.547 12.5824 11.8168 12.1152 12.109V8.87171C12.6525 8.57945 13.3649 8.30967 14.2526 8.06238C15.1636 7.7926 16.2965 7.65771 17.6513 7.65771C19.0528 7.65771 20.2674 7.83757 21.2952 8.19727C22.323 8.53449 23.1756 9.0066 23.853 9.61359C24.5304 10.2206 25.0326 10.9512 25.3597 11.8055C25.71 12.6373 25.8852 13.5366 25.8852 14.5033ZM16.46 33.3423C15.6891 33.3423 15.0351 33.095 14.4978 32.6004C13.9839 32.1058 13.727 31.4988 13.727 30.7794C13.727 30.06 13.9839 29.453 14.4978 28.9584C15.0351 28.4413 15.6891 28.1828 16.46 28.1828C17.2308 28.1828 17.8732 28.4413 18.3871 28.9584C18.9243 29.453 19.1929 30.06 19.1929 30.7794C19.1929 31.4988 18.9243 32.1058 18.3871 32.6004C17.8732 33.095 17.2308 33.3423 16.46 33.3423Z" fill="#215EC6" stroke="#215EC6" stroke-linejoin="round"/>
</svg>
