<svg width="196" height="38" viewBox="0 0 196 38" fill="none" xmlns="http://www.w3.org/2000/svg">
<rect y="2.76709" width="32.4663" height="32.4663" rx="16.2331" fill="black"/>
<path d="M18.5211 28.7566H21.9125V9.27686H16.9795C12.0185 9.27686 9.41183 11.8274 9.41183 15.5833C9.41183 18.5823 10.8413 20.3481 13.3919 22.1699L8.96338 28.7566H12.6351L17.5681 21.3851L15.8584 20.236C13.7843 18.8345 12.7752 17.7414 12.7752 15.3871C12.7752 13.313 14.2327 11.9115 17.0075 11.9115H18.5211V28.7566Z" fill="white"/>
<path d="M41.1431 7.06334V31.166H45.3394V10.3233H52.8303V31.166H57.0266V7.06334H41.1431ZM64.2961 13.7219H60.4813V36.1946H64.6083V29.1199C65.6487 30.6805 67.1746 31.5128 68.9433 31.5128C72.9662 31.5128 75.7406 28.2876 75.7406 22.4266C75.7406 16.6004 73.0355 13.3751 69.1514 13.3751C67.2093 13.3751 65.614 14.2768 64.5042 15.9761L64.2961 13.7219ZM67.9029 28.2529C65.718 28.2529 64.6083 26.4842 64.6083 22.4613C64.6083 18.4037 65.7874 16.635 68.111 16.635C70.3652 16.635 71.4749 18.4037 71.4749 22.4266C71.4749 26.4842 70.2958 28.2529 67.9029 28.2529ZM91.3691 19.2707C91.3691 15.0398 89.219 13.4445 84.8493 13.4445C82.1095 13.4445 79.9594 14.3115 78.7109 15.0398V18.4731C79.8206 17.6408 82.2482 16.7391 84.3637 16.7391C86.3405 16.7391 87.2422 17.4327 87.2422 19.3054V20.2765H86.5833C80.2715 20.2765 77.4624 22.3573 77.4624 25.8946C77.4624 29.432 79.6126 31.4088 82.8031 31.4088C85.2307 31.4088 86.2711 30.6111 87.0688 29.7788H87.2422C87.2769 30.2297 87.4156 30.8192 87.5543 31.166H91.5772C91.4385 29.7441 91.3691 28.3222 91.3691 26.9004V19.2707ZM87.2422 27.0044C86.722 27.7674 85.7509 28.3916 84.2944 28.3916C82.5604 28.3916 81.6934 27.3512 81.6934 25.7906C81.6934 23.7445 83.1153 23.0162 86.6526 23.0162H87.2422V27.0044ZM104.918 31.166H109.6L102.976 21.7677L108.802 13.7219H104.64L98.8142 21.7677V13.7219H94.6873V31.166H98.8142V22.6L104.918 31.166ZM123.266 16.9819V13.7219H109.429V16.9819H114.284V31.166H118.411V16.9819H123.266ZM125.71 13.7219V31.166H129.282L135.663 20.3805V31.166H139.686V13.7219H136.114L129.733 24.5074V13.7219H125.71ZM153.382 31.166H158.064L151.44 21.7677L157.266 13.7219H153.105L147.278 21.7677V13.7219H143.151V31.166H147.278V22.6L153.382 31.166ZM161.695 36.5414C165.544 36.5414 166.966 33.8017 168.145 30.2297L173.59 13.7219H169.602L165.753 26.831L161.903 13.7219H157.568L163.568 31.929C163.117 32.7613 162.458 33.2815 161.313 33.2815C160.551 33.2815 159.892 33.0387 159.441 32.5879V35.9519C159.441 35.9519 160.065 36.5414 161.695 36.5414ZM190.034 31.166H194.057L193.987 13.7219H188.334L184.554 25.3398L181.156 13.7219H175.156V31.166H178.659V18.1263L182.439 31.166H185.803L190.034 18.1263V31.166Z" fill="black"/>
</svg>
