<svg width="149" height="188" viewBox="0 0 149 188" fill="none" xmlns="http://www.w3.org/2000/svg">
<path fill-rule="evenodd" clip-rule="evenodd" d="M127.569 5.30269C126.568 6.08054 125.895 7.24899 125.895 9.24242C125.895 17.1979 126.119 25.1288 126.344 33.0862C126.451 36.8529 126.557 40.6254 126.64 44.4094C126.658 45.2285 126.78 46.5665 126.938 48.2965C127.01 49.0816 127.088 49.9474 127.168 50.8822C127.419 53.8152 127.667 57.3139 127.67 60.7438C127.672 64.1531 127.434 67.596 126.665 70.3807C125.917 73.0951 124.525 75.6602 121.859 76.4875C115.516 78.4564 108.455 78.8 101.511 78.7451C98.9775 78.7251 96.4779 78.6534 94.0247 78.583C89.6547 78.4576 85.4321 78.3365 81.4299 78.5194C80.2918 78.5713 79.0461 78.489 77.8737 78.4081L77.7221 78.3976C76.5705 78.318 75.4762 78.2423 74.4488 78.2588C72.2159 78.2947 70.9669 78.762 70.373 79.8166C69.7152 80.9845 69.4667 82.9883 69.6469 85.7485C69.8228 88.4408 70.3828 91.5764 71.0755 94.8007C71.4997 96.7753 71.9612 98.7293 72.4077 100.62C72.695 101.837 72.9762 103.028 73.2373 104.181C73.8869 107.05 74.4165 109.702 74.4774 111.611C74.5188 112.906 74.1912 114.072 73.4843 115.058C72.7918 116.023 71.8076 116.717 70.6924 117.221C68.5034 118.209 65.503 118.6 62.1505 118.705C57.3755 118.855 51.4244 118.427 45.226 117.981C42.7017 117.8 40.1364 117.615 37.5928 117.466C28.6736 116.941 19.9821 116.839 13.5525 118.57C10.3559 119.431 7.85403 120.711 6.15848 122.496C4.49764 124.244 3.50019 126.59 3.50013 129.842C3.50001 136.116 3.86168 141.097 4.22329 146.076C4.94716 156.045 5.67078 166.01 3.49158 186.338C3.40328 187.162 2.66394 187.758 1.84024 187.669C1.01653 187.581 0.420367 186.842 0.508671 186.018C2.66242 165.928 1.96275 156.394 1.24247 146.58C0.873934 141.558 0.5 136.463 0.500125 129.842C0.5002 125.907 1.73687 122.794 3.98365 120.43C6.19572 118.101 9.27492 116.615 12.7725 115.674C19.7311 113.8 28.8799 113.948 37.7689 114.471C40.4295 114.627 43.0647 114.817 45.626 115.001C51.7468 115.441 57.445 115.851 62.0562 115.706C65.334 115.603 67.8348 115.22 69.4576 114.487C70.2482 114.13 70.7476 113.726 71.0462 113.31C71.3303 112.913 71.5014 112.411 71.4789 111.707C71.4286 110.13 70.9703 107.753 70.3114 104.844C70.0637 103.75 69.7877 102.58 69.5021 101.37C69.0481 99.4468 68.5699 97.4204 68.1424 95.4308C67.4417 92.1691 66.8438 88.8609 66.6533 85.944C66.4673 83.0951 66.6439 80.3243 67.759 78.3444C69.2119 75.7648 72.0352 75.2972 74.4006 75.2592C75.5603 75.2406 76.7723 75.3246 77.8876 75.4019C77.9522 75.4064 78.0164 75.4108 78.0803 75.4152C79.2826 75.4982 80.3557 75.5653 81.293 75.5225C85.3935 75.3352 89.8272 75.4613 94.2835 75.588C96.7105 75.6571 99.1442 75.7263 101.534 75.7452C108.415 75.7995 115.09 75.4476 120.97 73.6224C122.106 73.2699 123.094 72.0456 123.774 69.5827C124.434 67.1902 124.672 64.0679 124.67 60.746C124.667 57.4448 124.428 54.0463 124.179 51.1378C124.107 50.2958 124.033 49.4844 123.964 48.725C123.799 46.9164 123.661 45.403 123.641 44.4752C123.559 40.7322 123.453 36.981 123.347 33.2248C123.121 25.2439 122.895 17.2401 122.895 9.24242C122.895 6.43842 123.909 4.34677 125.73 2.93301C127.463 1.58749 129.769 0.981935 132.144 0.708614C134.543 0.432648 137.212 0.476076 139.81 0.579948C140.59 0.611147 141.361 0.647561 142.12 0.683395C143.932 0.768995 145.674 0.851287 147.307 0.851287C148.136 0.851287 148.807 1.52286 148.807 2.35129C148.807 3.17971 148.136 3.85129 147.307 3.85129C145.599 3.85129 143.743 3.76368 141.9 3.67665C141.158 3.64161 140.418 3.60666 139.69 3.57755C137.108 3.47432 134.638 3.44149 132.487 3.68895C130.314 3.93906 128.659 4.45661 127.569 5.30269Z" fill="black"/>
</svg>
