<svg width="154" height="86" viewBox="0 0 154 86" fill="none" xmlns="http://www.w3.org/2000/svg">
<path fill-rule="evenodd" clip-rule="evenodd" d="M0.813181 0.872235C1.37767 0.265902 2.32681 0.231983 2.93315 0.796474C12.3559 9.56899 19.2653 13.1294 26.1177 14.6269C29.5748 15.3824 33.0721 15.6249 36.9634 15.7039C38.6939 15.7391 40.4878 15.7418 42.389 15.7447C42.6272 15.7451 42.8672 15.7455 43.1089 15.7459C45.2738 15.7498 47.5708 15.759 50.0286 15.821C57.445 16.008 65.7704 16.8299 73.1315 19.5617C80.5223 22.3046 87.0302 27.0108 90.5952 34.9868C92.576 39.4182 94.3058 44.6802 95.2498 50.0352C104.178 51.6874 111.963 56.0176 119.299 61.051C122.101 62.9733 124.849 65.0072 127.571 67.0382C127.929 67.3049 128.285 67.5715 128.642 67.8378C131.007 69.6046 133.354 71.3582 135.728 73.045C141.19 76.9275 146.707 80.395 152.634 82.7084C153.406 83.0096 153.787 83.8794 153.486 84.6511C153.185 85.4228 152.315 85.8042 151.543 85.503C145.275 83.0565 139.523 79.4229 133.99 75.4903C131.585 73.7811 129.206 72.0039 126.843 70.2386C126.487 69.9729 126.132 69.7075 125.777 69.4426C123.056 67.4125 120.35 65.4102 117.602 63.5247C110.71 58.7958 103.638 54.8582 95.7098 53.185C96.0683 56.3065 96.1251 59.4106 95.7749 62.352C95.2372 66.8669 93.7275 71.0945 90.7747 74.3831C87.8042 77.6913 83.4951 79.9128 77.6275 80.6117C71.4913 81.3427 63.7293 81.4477 57.9757 79.1146C55.0619 77.933 52.5448 76.0771 51.0952 73.2504C49.6432 70.4189 49.3817 66.8463 50.5178 62.4734C51.3844 59.1376 52.9824 56.7286 55.1472 55.0181C57.2839 53.3298 59.8723 52.4012 62.5998 51.8341C65.3201 51.2686 68.2939 51.0416 71.2382 50.833C71.4008 50.8214 71.5635 50.81 71.726 50.7985C74.5416 50.5998 77.3377 50.4025 80.0373 49.9506C84.3036 49.2364 88.3124 49.157 92.1127 49.5733C91.193 44.8662 89.6471 40.2172 87.8564 36.211C84.7099 29.1714 78.9578 24.9239 72.0877 22.3743C65.1879 19.8136 57.2515 19.0041 49.953 18.8201C47.5327 18.759 45.2656 18.7498 43.1035 18.7459C42.8625 18.7455 42.6225 18.7451 42.3838 18.7447C40.4869 18.7419 38.6632 18.7391 36.9025 18.7033C32.9344 18.6227 29.2132 18.3741 25.4773 17.5577C17.9438 15.9114 10.5694 12.0047 0.888942 2.9922C0.282608 2.42771 0.248689 1.47857 0.813181 0.872235ZM92.6213 52.6568C88.8191 52.1584 84.8124 52.193 80.5326 52.9094C77.6863 53.3859 74.7564 53.5924 71.9747 53.7884C71.7993 53.8008 71.6244 53.8131 71.4502 53.8255C68.478 54.0361 65.7024 54.2532 63.2105 54.7713C60.7257 55.2879 58.639 56.0825 57.0072 57.3719C55.4035 58.639 54.1399 60.4622 53.4214 63.2277C52.4116 67.1145 52.7419 69.8869 53.7647 71.8814C54.7899 73.8808 56.6307 75.3319 59.1031 76.3345C64.122 78.3696 71.2461 78.3507 77.2726 77.6328C82.5398 77.0054 86.1355 75.0595 88.5425 72.3788C90.9673 69.6783 92.3079 66.0953 92.7959 61.9972C93.1481 59.0396 93.0496 55.8644 92.6213 52.6568Z" fill="black"/>
</svg>
