<svg width="68" height="74" viewBox="0 0 68 74" fill="none" xmlns="http://www.w3.org/2000/svg">
<path fill-rule="evenodd" clip-rule="evenodd" d="M41.8993 29.457C41.8873 29.5765 41.8868 29.6971 41.8986 29.8155C41.8986 29.8157 41.8986 29.8153 41.8986 29.8155C41.9407 30.2378 42.1388 30.6317 42.5289 30.8393C42.5365 30.8434 42.5441 30.8473 42.5518 30.8512C42.6087 30.8799 42.6696 30.9047 42.7345 30.9252C42.9568 30.9945 43.1789 31.0632 43.4007 31.1312C44.3988 31.4373 45.3914 31.7307 46.3803 32.0124C50.3929 33.1552 54.346 34.104 58.3676 34.918C59.7417 35.1961 61.1237 35.4584 62.5189 35.7073C62.6641 35.7333 62.8094 35.759 62.9548 35.7846C62.8561 35.8421 62.7575 35.8994 62.659 35.9563C61.3726 36.7003 60.103 37.4001 58.8331 38.0696C55.4366 39.8603 52.0376 41.4341 48.3073 43.0539C47.9649 43.2026 47.6198 43.3517 47.2716 43.5013C46.9314 43.6475 46.5883 43.7943 46.2421 43.9418C46.1354 43.9873 46.0284 44.0328 45.9212 44.0784C45.5186 44.2164 45.2011 44.661 45.1262 45.1852C45.0999 45.3694 45.1035 45.5634 45.1439 45.7575C45.1964 46.0322 45.2488 46.3069 45.3013 46.5818C45.4118 47.161 45.5223 47.7406 45.6328 48.3205C45.6863 48.6013 45.7398 48.8821 45.7934 49.163C46.7327 54.0949 47.6721 59.0513 48.6115 64.0168C48.8876 65.4764 49.1637 66.9369 49.4398 68.3977C49.4758 68.5878 49.5117 68.778 49.5477 68.9681C49.2715 68.7126 48.9956 68.4574 48.7199 68.2025C48.1106 67.6391 47.5022 67.0768 46.8939 66.5145C46.5452 66.1922 46.1966 65.87 45.8478 65.5475C44.8779 64.651 43.9068 63.7529 42.9306 62.8487C42.9206 62.8395 42.9106 62.8302 42.9006 62.821C42.5351 62.4824 42.1689 62.143 41.8018 61.8025C40.1215 60.1762 38.4034 58.5952 36.7003 57.028C36.5691 56.9073 36.438 56.7866 36.307 56.6661C36.3028 56.6622 36.2986 56.6583 36.2944 56.6544C35.6916 56.0996 35.0913 55.5462 34.4956 54.9927C34.2538 54.7605 33.9952 54.4841 33.7233 54.1919C33.7058 54.173 33.6881 54.154 33.6704 54.135C33.5051 53.9571 33.3349 53.7742 33.1608 53.5924C33.1362 53.5666 33.1115 53.5409 33.0867 53.5153C32.9079 53.3303 32.7251 53.1474 32.5391 52.9732C32.1922 52.6485 31.8341 52.3541 31.47 52.1332C31.3899 52.0846 31.3095 52.0395 31.229 51.9985C30.8955 51.8288 30.5582 51.7277 30.2208 51.7277C29.5816 51.7277 28.8569 51.961 28.1057 52.3096C27.3026 52.6822 26.4693 53.1865 25.6777 53.6782C25.5698 53.7453 25.4627 53.812 25.3566 53.8782C24.6668 54.3084 24.0174 54.7133 23.4587 54.9927C22.526 55.4591 21.5933 55.9022 20.6606 56.3453C19.7279 56.7884 18.7952 57.2316 17.8625 57.698L8.05041 62.4499C8.05261 62.4461 8.05481 62.4423 8.05701 62.4385C8.94514 60.9013 9.83552 59.3614 10.7267 57.8205C11.2268 56.9559 11.7271 56.091 12.2274 55.2261C13.7346 52.6206 15.2418 50.015 16.742 47.4179C16.872 47.1928 17.002 46.9678 17.1319 46.7428C17.4391 46.2108 17.746 45.6792 18.0526 45.148C18.2225 44.8535 18.3924 44.5592 18.5621 44.2649C18.6276 44.1666 18.6759 44.0517 18.7076 43.9281C18.8264 43.4653 18.7133 42.8803 18.4066 42.5858C18.3553 42.5302 18.304 42.4745 18.2526 42.4189C18.0442 42.1928 17.8361 41.9663 17.6281 41.7394C17.3738 41.462 17.1199 41.184 16.8663 40.9055C13.578 37.2939 10.3439 33.5847 7.16412 29.7778C6.41162 28.877 5.66217 27.9706 4.91575 27.0588C4.74187 26.8464 4.56817 26.6337 4.39462 26.4207C4.45271 26.4283 4.5108 26.4358 4.56889 26.4432C5.94448 26.62 7.32008 26.7808 8.69568 26.9285C13.9884 27.4968 19.281 27.8708 24.5737 28.2139C24.7812 28.2274 24.9887 28.2408 25.1962 28.2542C25.759 28.2904 26.3218 28.3264 26.8847 28.3623C27.1158 28.377 27.3469 28.3918 27.5781 28.4065C27.9743 28.4065 28.2881 28.1592 28.4894 27.8086C28.5645 27.6777 28.624 27.5325 28.6663 27.3804C28.7415 27.1651 28.8167 26.9498 28.8918 26.7345C29.0991 26.1404 29.3061 25.5463 29.5127 24.9522C29.5779 24.7649 29.643 24.5776 29.7081 24.3903C31.3597 19.6369 32.9907 14.8835 34.6138 10.1301C35.0564 8.8338 35.4985 7.53754 35.9402 6.24129C36.0793 5.8332 36.2183 5.42511 36.3573 5.01702C36.4694 5.43019 36.5809 5.84277 36.6916 6.2549C37.0502 7.58967 37.4012 8.91959 37.7434 10.2484C39.0483 15.3151 40.2259 20.3656 41.2145 25.6077C41.382 26.4958 41.544 27.3894 41.7004 28.2896C41.7625 28.6472 41.8237 29.0059 41.884 29.3657C41.8884 29.3921 41.8929 29.4186 41.8973 29.4451C41.898 29.4491 41.8986 29.4531 41.8993 29.457ZM43.8083 26.7413C43.7148 26.2247 43.6193 25.71 43.5218 25.1971C42.2913 18.7246 40.7459 12.5344 39.0754 6.34161C38.8079 5.3499 38.5371 4.35813 38.264 3.36513C38.2073 3.15898 38.1504 2.95278 38.0935 2.74653C38.0668 2.64956 38.04 2.55258 38.0132 2.45559C38.003 2.41876 37.9929 2.38193 37.9827 2.3451C37.9464 2.21376 37.91 2.08239 37.8737 1.95099C37.8646 1.91827 37.8556 1.88554 37.8465 1.85281C37.8419 1.83612 37.8372 1.81943 37.8326 1.80274C37.7568 1.52889 37.6808 1.25489 37.6046 0.980738C37.4015 0.249294 36.9222 -0.0488214 36.4444 0.00644465C36.0082 0.0569042 35.5732 0.401952 35.3506 0.980738C35.2699 1.21182 35.1892 1.4429 35.1085 1.67398C35.1027 1.69074 35.0968 1.70751 35.091 1.72427C35.0359 1.88226 34.9808 2.04025 34.9257 2.19823C34.9078 2.24967 34.8898 2.30111 34.8719 2.35255C34.8375 2.45138 34.8031 2.55021 34.7686 2.64904C34.6982 2.85114 34.6279 3.05325 34.5576 3.25535C34.2225 4.21855 33.8882 5.18175 33.5548 6.14496C31.6064 11.7729 29.6842 17.4009 27.767 23.0289C27.7236 23.1561 27.6803 23.2834 27.6369 23.4106C27.4717 23.8957 27.3065 24.3807 27.1414 24.8658C27.0851 25.0311 27.0288 25.1965 26.9725 25.3618C26.9554 25.412 26.9383 25.4621 26.9212 25.5123C26.8799 25.6336 26.8386 25.7549 26.7973 25.8763C26.7914 25.8936 26.7855 25.9109 26.7796 25.9282C26.6709 25.9202 26.5621 25.9122 26.4534 25.9043C26.3849 25.8993 26.3164 25.8943 26.2479 25.8893C26.1703 25.8836 26.0928 25.8779 26.0153 25.8723C25.5156 25.8359 25.0165 25.7996 24.5177 25.7634C24.4312 25.7571 24.3448 25.7508 24.2583 25.7445C24.091 25.7324 23.9237 25.7202 23.7565 25.708C17.9632 25.2867 12.2228 24.8602 6.46915 24.2171C5.66823 24.1276 4.86706 24.0339 4.06546 23.9354C4.05568 23.9342 4.04589 23.933 4.03611 23.9318C3.56158 23.8734 3.08689 23.8134 2.61201 23.7515C2.12547 23.6882 1.63872 23.6229 1.15173 23.5557C0.603821 23.5087 0.233269 23.9348 0.0797577 24.4647C-0.0716095 24.9871 -0.0119629 25.6106 0.296745 25.9811C0.445183 26.1618 0.593613 26.3424 0.742058 26.5227C0.743584 26.5245 0.74511 26.5264 0.746635 26.5282C0.755074 26.5385 0.763504 26.5487 0.771942 26.559C0.91198 26.729 1.05203 26.8989 1.19209 27.0686C1.46187 27.3955 1.7317 27.7217 2.00161 28.0473C2.33874 28.4539 2.67599 28.8595 3.01346 29.2641C6.60406 33.5692 10.2181 37.7633 13.9484 41.9022C14.0828 42.0513 14.2173 42.2003 14.3519 42.3492C14.7282 42.7653 15.1057 43.1809 15.4845 43.596C15.5295 43.6454 15.5746 43.6948 15.6197 43.7441C15.6869 43.8177 15.7541 43.8913 15.8214 43.9648C15.8829 44.032 15.9445 44.0992 16.006 44.1664C15.9998 44.1772 15.9935 44.188 15.9873 44.1988C15.9752 44.2199 15.963 44.2409 15.9509 44.2619C15.9407 44.2796 15.9305 44.2972 15.9203 44.3149C15.8206 44.4877 15.7208 44.6606 15.621 44.8336C15.3279 45.3413 15.0345 45.8494 14.7408 46.3578C14.6508 46.5135 14.5608 46.6693 14.4709 46.8251C13.0534 49.2786 11.63 51.7392 10.2067 54.1998C9.16892 55.9937 8.13118 57.7877 7.09572 59.5789C6.53881 60.5423 5.98257 61.5049 5.42734 62.4663C5.33846 62.6202 5.24961 62.7741 5.16079 62.9279C4.98209 63.2374 4.8035 63.5467 4.62503 63.8559C4.54517 63.9943 4.46532 64.1326 4.3855 64.2709C4.36934 64.2989 4.35318 64.3269 4.33701 64.3549C4.24218 64.5193 4.14738 64.6836 4.05262 64.8478C4.04512 64.8608 4.03762 64.8738 4.03012 64.8868C3.97743 64.9782 3.92476 65.0695 3.87209 65.1608C3.74339 65.3814 3.69732 65.6387 3.71435 65.8966C3.76929 66.7291 4.48135 67.5691 5.19341 67.213C5.59221 67.0207 5.99137 66.8262 6.39088 66.6298C6.39592 66.6273 6.40096 66.6249 6.406 66.6224C6.44443 66.6035 6.48287 66.5846 6.52131 66.5657C6.52304 66.5648 6.52477 66.564 6.5265 66.5631C7.02536 66.3174 7.52476 66.0689 8.02468 65.8181C8.3921 65.6337 8.75981 65.4481 9.12779 65.2614C9.48795 65.0787 9.84837 64.895 10.2091 64.7106C11.4119 64.0953 12.6177 63.4713 13.8261 62.8458C15.5639 61.9464 17.3073 61.0441 19.0554 60.1611C19.0658 60.1559 19.0761 60.1507 19.0865 60.1454C20.944 59.2075 22.8071 58.2915 24.6747 57.4242C25.4791 57.0506 26.2844 56.686 27.0905 56.3326C27.215 56.278 27.3394 56.2237 27.4639 56.1697C27.6528 56.0877 27.8417 56.0064 28.0306 55.9257C28.6608 55.6566 29.2915 55.3948 29.9226 55.1414C29.9421 55.1335 29.9615 55.1257 29.981 55.118C30.0868 55.0755 30.1927 55.0333 30.2986 54.9914C30.3469 54.9723 30.3952 54.9532 30.4435 54.9341C30.5004 54.988 30.5577 55.0469 30.6128 55.106C30.6185 55.1121 30.6242 55.1182 30.6298 55.1244C30.7486 55.2531 30.855 55.3808 30.9203 55.4591C31.3142 55.8981 31.7387 56.3127 32.1752 56.7116C32.2943 56.8205 32.4143 56.9281 32.5349 57.0348C32.5464 57.0451 32.558 57.0553 32.5696 57.0655C32.5869 57.0808 32.6042 57.0961 32.6215 57.1113C32.9393 57.3908 33.2601 57.6639 33.5771 57.9337C33.8891 58.1992 34.1975 58.4617 34.4956 58.7241C36.3544 60.3396 38.1603 62.0185 39.9569 63.7085C39.9707 63.7214 39.9844 63.7343 39.9981 63.7473C40.3664 64.0938 40.7343 64.4407 41.1022 64.7876C42.7344 66.2801 44.3471 67.7726 45.9598 69.2651C46.1985 69.486 46.4372 69.7069 46.6759 69.9278C47.2778 70.4847 47.8801 71.0415 48.4838 71.5984C48.5619 71.6704 48.64 71.7424 48.7181 71.8144C48.9968 72.0714 49.2758 72.3283 49.5553 72.5853C49.5589 72.5886 49.5626 72.5919 49.5662 72.5952C49.5739 72.6023 49.5816 72.6094 49.5894 72.6165C49.6199 72.6446 49.6504 72.6727 49.6809 72.7007C49.711 72.7283 49.741 72.7559 49.7711 72.7836C50.1192 73.1034 50.4681 73.4232 50.8178 73.743C51.4513 74.3651 52.2129 73.7579 52.47 72.9842C52.5599 72.7138 52.5882 72.4229 52.5278 72.1571C52.5195 72.1138 52.5112 72.0704 52.5029 72.027C52.4962 71.992 52.4896 71.9571 52.4829 71.9221C52.4377 71.6854 52.3925 71.4486 52.3473 71.2118C52.3369 71.1569 52.3264 71.102 52.3159 71.0471C52.3053 70.9915 52.2947 70.9359 52.2841 70.8803C52.2223 70.5565 52.1606 70.2327 52.0988 69.9087C52.0622 69.7167 52.0256 69.5246 51.989 69.3325C51.8201 68.4461 51.6512 67.5589 51.4823 66.671C50.3881 60.9186 49.2939 55.1358 48.1997 49.347C48.1618 49.1464 48.1239 48.9458 48.086 48.7452C48.0222 48.4079 47.9585 48.0707 47.8947 47.7334C47.8227 47.3525 47.7508 46.9715 47.6788 46.5905C47.6701 46.5445 47.6614 46.4986 47.6527 46.4526C47.6497 46.4367 47.6467 46.4208 47.6437 46.4049C47.6398 46.3844 47.6359 46.3639 47.632 46.3434C47.6941 46.3163 47.7562 46.2892 47.8181 46.2621C47.9649 46.1979 48.1114 46.1338 48.2577 46.0696C48.3198 46.0424 48.3819 46.0151 48.4439 45.9879C48.9044 45.7856 49.3626 45.5833 49.8188 45.3806C50.0188 45.2918 50.2184 45.2028 50.4177 45.1137C54.7548 43.1748 58.9114 41.1853 63.0638 38.849C63.7663 38.4537 64.4687 38.0485 65.1718 37.632C65.341 37.5317 65.5102 37.4309 65.6795 37.3293C65.9757 37.1516 66.2721 36.9718 66.5687 36.7898C66.8625 36.6095 67.1566 36.4271 67.4509 36.2424C67.9997 35.8661 68.0938 35.2524 67.9226 34.7127C67.7544 34.1821 67.33 33.7229 66.8291 33.6305C66.5014 33.5763 66.1763 33.5221 65.8535 33.4676C65.5373 33.4143 65.2234 33.3607 64.9115 33.307C64.7328 33.2761 64.5548 33.2452 64.3774 33.2143C63.6081 33.0799 62.8512 32.9438 62.104 32.8054C56.9741 31.8548 52.3028 30.7901 47.228 29.3589C46.6791 29.2041 46.1255 29.045 45.5661 28.8813C45.5316 28.8712 45.4971 28.8611 45.4626 28.851C45.245 28.7871 45.0265 28.7226 44.807 28.6574C44.7279 28.6339 44.6486 28.6102 44.5692 28.5865C44.5122 28.5695 44.4552 28.5525 44.3982 28.5354C44.3017 28.5064 44.205 28.4774 44.1082 28.4482C44.0982 28.3896 44.0882 28.331 44.0781 28.2725C44.0738 28.2473 44.0695 28.2221 44.0651 28.1969C44.0617 28.1769 44.0583 28.1569 44.0548 28.1369C43.9761 27.6802 43.8957 27.2251 43.8137 26.7715C43.8119 26.7614 43.8101 26.7514 43.8083 26.7413Z" fill="black"/>
</svg>
