<svg width="119" height="70" viewBox="0 0 119 70" fill="none" xmlns="http://www.w3.org/2000/svg">
<path fill-rule="evenodd" clip-rule="evenodd" d="M1.79324 15.0225C1.793 15.0226 1.79288 15.0226 1.99911 16.5083L1.79324 15.0225C1.17096 15.1089 0.668072 15.574 0.533776 16.1877C0.399486 16.8014 0.66188 17.4338 1.19122 17.7722L1.25493 17.6726C1.1913 17.7722 1.19118 17.7721 1.19122 17.7722L3.38006 19.1715C4.69394 20.0115 6.44667 21.1322 8.20214 22.2549C9.95766 23.3777 11.7157 24.5024 13.0404 25.3505C13.7027 25.7746 14.2564 26.1293 14.647 26.3799C14.8425 26.5053 14.9965 26.6042 15.1027 26.6726C15.1434 26.6988 15.1721 26.7175 15.1915 26.73C15.2155 26.7456 15.2252 26.7519 15.2253 26.7516C15.2254 26.7515 15.2212 26.7484 15.2141 26.7432C15.2078 26.7386 15.1993 26.7324 15.1896 26.7251C15.2417 26.7641 15.2962 26.7995 15.3529 26.8314C40.8881 41.1814 64.6523 53.7486 93.8237 69.1026C94.2914 69.3488 94.8541 69.3307 95.305 69.0549C95.7559 68.779 96.0284 68.2863 96.0222 67.7578C96.0067 66.4257 95.9946 65.159 95.9855 63.9478C98.0641 58.755 99.804 54.1057 101.533 49.4864C104.432 41.7391 107.3 34.0762 111.68 24.0761C111.959 23.4407 112.32 22.6494 112.732 21.748C115.157 16.4417 119.324 7.32276 118.496 3.77976C118.429 3.4971 110.663 4.5246 106.595 5.0628C105.226 5.24381 104.276 5.36947 104.179 5.37133C102.572 5.40186 98.3567 5.88501 95.8006 6.19543C95.7328 5.59123 95.6384 5.00394 95.51 4.45366C95.1936 3.0979 94.5573 1.46056 93.0825 0.749508C92.5215 0.479056 91.8624 0.364703 91.2561 0.312339C90.624 0.257742 89.9178 0.260897 89.1893 0.298663C87.7315 0.374248 86.063 0.595465 84.4895 0.852107C82.9091 1.10986 81.3907 1.40904 80.2252 1.6487C79.7837 1.73949 79.3898 1.82238 79.0644 1.89087L78.7751 1.95166C78.5888 1.99074 78.4388 2.02187 78.3248 2.0446C78.229 2.06371 78.1822 2.07208 78.1672 2.07475C78.1619 2.0757 78.1606 2.07593 78.1626 2.07566C72.4456 2.83803 66.9141 4.16365 61.4663 5.48496L61.0052 5.5968C55.6926 6.88577 50.4568 8.1561 45.0763 8.9387C39.3661 9.76927 28.5471 11.29 19.1516 12.6036C14.4548 13.2603 10.1151 13.865 6.94952 14.3056C5.36675 14.5259 4.07756 14.7052 3.18407 14.8293L1.79868 15.0218L1.79433 15.0224L1.79324 15.0225ZM92.5111 15.6562C92.5183 15.5468 92.5415 15.3383 92.5736 15.0489C92.6955 13.9516 92.9468 11.6903 92.9503 9.24983C92.9526 7.72821 92.853 6.2689 92.5885 5.13547C92.2986 3.89349 91.923 3.52095 91.7796 3.45184C91.704 3.41537 91.4701 3.34199 90.998 3.30121C90.5517 3.26267 89.9942 3.26097 89.3447 3.29464C88.0464 3.36195 86.5014 3.56359 84.9724 3.81298C83.4501 4.06127 81.9768 4.35129 80.8295 4.58722C80.4754 4.66002 80.1362 4.73133 79.8312 4.79544C79.2128 4.92544 78.7349 5.0259 78.5592 5.04934C73.0216 5.78778 67.6371 7.07525 62.1734 8.40043L61.6625 8.52437C56.3871 9.80444 51.0303 11.1042 45.5081 11.9075C39.7882 12.7394 28.9606 14.2614 19.5671 15.5747C14.8694 16.2315 10.529 16.8364 7.36306 17.277L6.23228 17.4343L9.81852 19.7276C11.5741 20.8505 13.3327 21.9755 14.658 22.824C15.3205 23.2482 15.8751 23.6035 16.267 23.8549C16.4628 23.9805 16.6187 24.0806 16.7272 24.1506L16.7517 24.1663C16.7838 24.1869 16.8264 24.2142 16.868 24.2416C41.6948 38.1926 64.8524 50.4602 92.9964 65.2769C92.9319 58.1046 92.9703 52.8593 93.0123 47.692L93.0171 47.1039C93.0625 41.5541 93.1077 36.0157 93.0303 28.1767C93.0109 26.2123 92.8673 24.4801 92.7251 22.7652C92.7005 22.4681 92.6759 22.1715 92.652 21.8743C92.4915 19.8773 92.3644 17.8702 92.5111 15.6562Z" fill="black"/>
</svg>
