<svg width="25" height="24" viewBox="0 0 25 24" fill="none" xmlns="http://www.w3.org/2000/svg">
<path fill-rule="evenodd" clip-rule="evenodd" d="M12.2096 18.9333H13.5268C13.5268 18.9333 13.9238 18.8851 14.1264 18.6424C14.3189 18.4161 14.3189 17.9973 14.3189 17.9973C14.3189 17.9973 14.2904 16.0239 15.1154 15.7341C15.9285 15.4464 16.9598 17.6389 18.0589 18.4816C18.8985 19.1258 19.5301 18.9875 19.5301 18.9875L22.4736 18.9425C22.4736 18.9425 24.0154 18.8349 23.2867 17.4822C23.2307 17.3746 22.8732 16.4837 21.1132 14.6558C19.2689 12.75 19.5164 13.0572 21.7329 9.75366C23.0795 7.74139 23.6304 6.51151 23.4517 5.98924C23.2995 5.4977 22.2966 5.61956 22.2966 5.61956L18.9948 5.65131C18.9948 5.65131 18.7473 5.61956 18.5685 5.74347C18.3898 5.86533 18.2807 6.14387 18.2807 6.14387C18.2807 6.14387 17.7564 7.70965 17.056 9.0317C15.5683 11.8263 14.977 11.9799 14.7433 11.7956C14.1896 11.3952 14.3317 10.1776 14.3317 9.30512C14.3317 6.6006 14.702 5.46493 13.6158 5.17307C13.2583 5.07988 12.9915 5.01947 12.0712 5.00308C10.8887 4.98874 9.89133 5.01332 9.32574 5.32156C8.95449 5.52944 8.66574 5.98924 8.83165 6.0128C9.05166 6.04352 9.54574 6.16231 9.80699 6.56271C10.1507 7.08088 10.1361 8.23806 10.1361 8.23806C10.1361 8.23806 10.3295 11.429 9.68324 11.8253C9.22949 12.0936 8.62449 11.5386 7.30448 9.00303C6.63072 7.71272 6.12105 6.26881 6.12105 6.26881C6.12105 6.26881 6.0248 6.00665 5.84697 5.85304C5.63889 5.68408 5.33638 5.62263 5.33638 5.62263L2.18762 5.65335C2.18762 5.65335 1.72011 5.66974 1.55603 5.89913C1.40386 6.09882 1.54136 6.52892 1.54136 6.52892C1.54136 6.52892 4.00354 12.9671 6.79573 16.2093C9.35324 19.1811 12.2554 18.9896 12.2554 18.9896L12.2096 18.9333Z" fill="black"/>
</svg>
