<svg width="24" height="24" viewBox="0 0 24 24" fill="none" xmlns="http://www.w3.org/2000/svg">
<path fillRule="evenodd" clipRule="evenodd" d="M7.1361 14.0558L2.30799 12.8162C1.81875 12.6871 1.76402 12.0615 2.2234 11.8494L20.806 3.00258C21.1517 2.85771 21.5966 3.16264 21.5722 3.56595L19.5167 19.6779C19.433 20.0864 18.9736 20.2985 18.6572 20.0969L13.6898 17.2649C13.3735 17.0633 13.0177 17.0944 12.7412 17.3479L10.3116 19.6236C10.0401 19.9339 9.55082 19.8048 9.40239 19.4739L7.1361 14.0558ZM17.1421 6.87631L8.54367 13.073C8.20287 13.2747 8.05983 13.6884 8.21324 14.0762L9.51472 17.3436C9.59392 17.5659 9.94467 17.4779 9.98406 17.2452L10.062 15.4045C10.0914 15.0581 10.2394 14.7012 10.4567 14.453L17.3399 7.08825C17.5078 6.95894 17.31 6.747 17.1421 6.87631Z" fill="#1A1B22"/>
</svg>
