<svg width="25" height="24" viewBox="0 0 25 24" fill="none" xmlns="http://www.w3.org/2000/svg">
<path fill-rule="evenodd" clip-rule="evenodd" d="M7.62096 14.0556L2.79285 12.816C2.30362 12.6869 2.24888 12.0612 2.70826 11.8491L21.2908 3.00233C21.6366 2.85746 22.0815 3.1624 22.057 3.56571L20.0016 19.6776C19.9178 20.0861 19.4585 20.2983 19.1421 20.0967L14.1747 17.2646C13.8583 17.0631 13.5026 17.0942 13.2261 17.3476L10.7965 19.6233C10.5249 19.9336 10.0357 19.8045 9.88725 19.4736L7.62096 14.0556ZM17.627 6.87607L9.02853 13.0728C8.68773 13.2745 8.5447 13.6882 8.6981 14.0759L9.99959 17.3433C10.0788 17.5656 10.4295 17.4777 10.4689 17.245L10.5468 15.4042C10.5763 15.0578 10.7243 14.701 10.9415 14.4528L17.8248 7.088C17.9927 6.95869 17.7949 6.74676 17.627 6.87607Z" fill="black"/>
</svg>
